<?xml version="1.0" encoding="utf-8" standalone="no"?>
<!DOCTYPE svg PUBLIC "-//W3C//DTD SVG 1.1//EN"
  "http://www.w3.org/Graphics/SVG/1.1/DTD/svg11.dtd">
<svg xmlns:xlink="http://www.w3.org/1999/xlink" width="922.5625pt" height="373.094531pt" viewBox="0 0 922.5625 373.094531" xmlns="http://www.w3.org/2000/svg" version="1.1">
 <metadata>
  <rdf:RDF xmlns:dc="http://purl.org/dc/elements/1.1/" xmlns:cc="http://creativecommons.org/ns#" xmlns:rdf="http://www.w3.org/1999/02/22-rdf-syntax-ns#">
   <cc:Work>
    <dc:type rdf:resource="http://purl.org/dc/dcmitype/StillImage"/>
    <dc:date>2023-03-31T15:36:07.023336</dc:date>
    <dc:format>image/svg+xml</dc:format>
    <dc:creator>
     <cc:Agent>
      <dc:title>Matplotlib v3.6.0, https://matplotlib.org/</dc:title>
     </cc:Agent>
    </dc:creator>
   </cc:Work>
  </rdf:RDF>
 </metadata>
 <defs>
  <style type="text/css">*{stroke-linejoin: round; stroke-linecap: butt}</style>
 </defs>
 <g id="figure_1">
  <g id="patch_1">
   <path d="M 0 373.094531 
L 922.5625 373.094531 
L 922.5625 0 
L 0 0 
z
" style="fill: #ffffff"/>
  </g>
  <g id="axes_1">
   <g id="patch_2">
    <path d="M 72 302.894531 
L 470.571429 302.894531 
L 470.571429 31.094531 
L 72 31.094531 
z
" style="fill: #ffffff"/>
   </g>
   <g id="patch_3">
    <path d="M 114.835171 302.894531 
L 121.478028 302.894531 
L 121.478028 295.196583 
L 114.835171 295.196583 
L 114.835171 302.894531 
z
" clip-path="url(#pc2fc81e49b)" style="fill: none; stroke: #2c7fb8; stroke-width: 1.1; stroke-linejoin: miter"/>
   </g>
   <g id="patch_4">
    <path d="M 128.120885 302.894531 
L 134.763743 302.894531 
L 134.763743 272.102737 
L 128.120885 272.102737 
L 128.120885 302.894531 
z
" clip-path="url(#pc2fc81e49b)" style="fill: none; stroke: #2c7fb8; stroke-width: 1.1; stroke-linejoin: miter"/>
   </g>
   <g id="patch_5">
    <path d="M 141.4066 302.894531 
L 148.049457 302.894531 
L 148.049457 241.310943 
L 141.4066 241.310943 
L 141.4066 302.894531 
z
" clip-path="url(#pc2fc81e49b)" style="fill: none; stroke: #2c7fb8; stroke-width: 1.1; stroke-linejoin: miter"/>
   </g>
   <g id="patch_6">
    <path d="M 154.692314 302.894531 
L 161.335171 302.894531 
L 161.335171 156.633509 
L 154.692314 156.633509 
L 154.692314 302.894531 
z
" clip-path="url(#pc2fc81e49b)" style="fill: none; stroke: #2c7fb8; stroke-width: 1.1; stroke-linejoin: miter"/>
   </g>
   <g id="patch_7">
    <path d="M 167.978028 302.894531 
L 174.620885 302.894531 
L 174.620885 87.351972 
L 167.978028 87.351972 
L 167.978028 302.894531 
z
" clip-path="url(#pc2fc81e49b)" style="fill: none; stroke: #2c7fb8; stroke-width: 1.1; stroke-linejoin: miter"/>
   </g>
   <g id="patch_8">
    <path d="M 181.263743 302.894531 
L 187.9066 302.894531 
L 187.9066 118.143766 
L 181.263743 118.143766 
L 181.263743 302.894531 
z
" clip-path="url(#pc2fc81e49b)" style="fill: none; stroke: #2c7fb8; stroke-width: 1.1; stroke-linejoin: miter"/>
   </g>
   <g id="patch_9">
    <path d="M 194.549457 302.894531 
L 201.192314 302.894531 
L 201.192314 71.956074 
L 194.549457 71.956074 
L 194.549457 302.894531 
z
" clip-path="url(#pc2fc81e49b)" style="fill: none; stroke: #2c7fb8; stroke-width: 1.1; stroke-linejoin: miter"/>
   </g>
   <g id="patch_10">
    <path d="M 207.835171 302.894531 
L 214.478028 302.894531 
L 214.478028 125.841714 
L 207.835171 125.841714 
L 207.835171 302.894531 
z
" clip-path="url(#pc2fc81e49b)" style="fill: none; stroke: #2c7fb8; stroke-width: 1.1; stroke-linejoin: miter"/>
   </g>
   <g id="patch_11">
    <path d="M 221.120885 302.894531 
L 227.763743 302.894531 
L 227.763743 172.029406 
L 221.120885 172.029406 
L 221.120885 302.894531 
z
" clip-path="url(#pc2fc81e49b)" style="fill: none; stroke: #2c7fb8; stroke-width: 1.1; stroke-linejoin: miter"/>
   </g>
   <g id="patch_12">
    <path d="M 234.4066 302.894531 
L 241.049457 302.894531 
L 241.049457 210.519149 
L 234.4066 210.519149 
L 234.4066 302.894531 
z
" clip-path="url(#pc2fc81e49b)" style="fill: none; stroke: #2c7fb8; stroke-width: 1.1; stroke-linejoin: miter"/>
   </g>
   <g id="patch_13">
    <path d="M 247.692314 302.894531 
L 254.335171 302.894531 
L 254.335171 272.102737 
L 247.692314 272.102737 
L 247.692314 302.894531 
z
" clip-path="url(#pc2fc81e49b)" style="fill: none; stroke: #2c7fb8; stroke-width: 1.1; stroke-linejoin: miter"/>
   </g>
   <g id="patch_14">
    <path d="M 260.978028 302.894531 
L 267.620885 302.894531 
L 267.620885 279.800686 
L 260.978028 279.800686 
L 260.978028 302.894531 
z
" clip-path="url(#pc2fc81e49b)" style="fill: none; stroke: #2c7fb8; stroke-width: 1.1; stroke-linejoin: miter"/>
   </g>
   <g id="patch_15">
    <path d="M 274.263743 302.894531 
L 280.9066 302.894531 
L 280.9066 279.800686 
L 274.263743 279.800686 
L 274.263743 302.894531 
z
" clip-path="url(#pc2fc81e49b)" style="fill: none; stroke: #2c7fb8; stroke-width: 1.1; stroke-linejoin: miter"/>
   </g>
   <g id="patch_16">
    <path d="M 287.549457 302.894531 
L 294.192314 302.894531 
L 294.192314 279.800686 
L 287.549457 279.800686 
L 287.549457 302.894531 
z
" clip-path="url(#pc2fc81e49b)" style="fill: none; stroke: #2c7fb8; stroke-width: 1.1; stroke-linejoin: miter"/>
   </g>
   <g id="patch_17">
    <path d="M 300.835171 302.894531 
L 307.478028 302.894531 
L 307.478028 287.498634 
L 300.835171 287.498634 
L 300.835171 302.894531 
z
" clip-path="url(#pc2fc81e49b)" style="fill: none; stroke: #2c7fb8; stroke-width: 1.1; stroke-linejoin: miter"/>
   </g>
   <g id="patch_18">
    <path d="M 314.120885 302.894531 
L 320.763743 302.894531 
L 320.763743 302.894531 
L 314.120885 302.894531 
L 314.120885 302.894531 
z
" clip-path="url(#pc2fc81e49b)" style="fill: none; stroke: #2c7fb8; stroke-width: 1.1; stroke-linejoin: miter"/>
   </g>
   <g id="patch_19">
    <path d="M 327.4066 302.894531 
L 334.049457 302.894531 
L 334.049457 295.196583 
L 327.4066 295.196583 
L 327.4066 302.894531 
z
" clip-path="url(#pc2fc81e49b)" style="fill: none; stroke: #2c7fb8; stroke-width: 1.1; stroke-linejoin: miter"/>
   </g>
   <g id="patch_20">
    <path d="M 340.692314 302.894531 
L 347.335171 302.894531 
L 347.335171 295.196583 
L 340.692314 295.196583 
L 340.692314 302.894531 
z
" clip-path="url(#pc2fc81e49b)" style="fill: none; stroke: #2c7fb8; stroke-width: 1.1; stroke-linejoin: miter"/>
   </g>
   <g id="patch_21">
    <path d="M 353.978028 302.894531 
L 360.620885 302.894531 
L 360.620885 302.894531 
L 353.978028 302.894531 
L 353.978028 302.894531 
z
" clip-path="url(#pc2fc81e49b)" style="fill: none; stroke: #2c7fb8; stroke-width: 1.1; stroke-linejoin: miter"/>
   </g>
   <g id="patch_22">
    <path d="M 367.263743 302.894531 
L 373.9066 302.894531 
L 373.9066 295.196583 
L 367.263743 295.196583 
L 367.263743 302.894531 
z
" clip-path="url(#pc2fc81e49b)" style="fill: none; stroke: #2c7fb8; stroke-width: 1.1; stroke-linejoin: miter"/>
   </g>
   <g id="patch_23">
    <path d="M 380.549457 302.894531 
L 387.192314 302.894531 
L 387.192314 302.894531 
L 380.549457 302.894531 
L 380.549457 302.894531 
z
" clip-path="url(#pc2fc81e49b)" style="fill: none; stroke: #2c7fb8; stroke-width: 1.1; stroke-linejoin: miter"/>
   </g>
   <g id="patch_24">
    <path d="M 393.835171 302.894531 
L 400.478028 302.894531 
L 400.478028 302.894531 
L 393.835171 302.894531 
L 393.835171 302.894531 
z
" clip-path="url(#pc2fc81e49b)" style="fill: none; stroke: #2c7fb8; stroke-width: 1.1; stroke-linejoin: miter"/>
   </g>
   <g id="patch_25">
    <path d="M 407.120885 302.894531 
L 413.763743 302.894531 
L 413.763743 302.894531 
L 407.120885 302.894531 
L 407.120885 302.894531 
z
" clip-path="url(#pc2fc81e49b)" style="fill: none; stroke: #2c7fb8; stroke-width: 1.1; stroke-linejoin: miter"/>
   </g>
   <g id="patch_26">
    <path d="M 420.4066 302.894531 
L 427.049457 302.894531 
L 427.049457 302.894531 
L 420.4066 302.894531 
L 420.4066 302.894531 
z
" clip-path="url(#pc2fc81e49b)" style="fill: none; stroke: #2c7fb8; stroke-width: 1.1; stroke-linejoin: miter"/>
   </g>
   <g id="patch_27">
    <path d="M 433.692314 302.894531 
L 440.335171 302.894531 
L 440.335171 302.894531 
L 433.692314 302.894531 
L 433.692314 302.894531 
z
" clip-path="url(#pc2fc81e49b)" style="fill: none; stroke: #2c7fb8; stroke-width: 1.1; stroke-linejoin: miter"/>
   </g>
   <g id="patch_28">
    <path d="M 446.978028 302.894531 
L 453.620885 302.894531 
L 453.620885 302.894531 
L 446.978028 302.894531 
L 446.978028 302.894531 
z
" clip-path="url(#pc2fc81e49b)" style="fill: none; stroke: #2c7fb8; stroke-width: 1.1; stroke-linejoin: miter"/>
   </g>
   <g id="patch_29">
    <path d="M 460.263743 302.894531 
L 466.9066 302.894531 
L 466.9066 302.894531 
L 460.263743 302.894531 
L 460.263743 302.894531 
z
" clip-path="url(#pc2fc81e49b)" style="fill: none; stroke: #2c7fb8; stroke-width: 1.1; stroke-linejoin: miter"/>
   </g>
   <g id="patch_30">
    <path d="M 473.549457 302.894531 
L 480.192314 302.894531 
L 480.192314 302.894531 
L 473.549457 302.894531 
L 473.549457 302.894531 
z
" clip-path="url(#pc2fc81e49b)" style="fill: none; stroke: #2c7fb8; stroke-width: 1.1; stroke-linejoin: miter"/>
   </g>
   <g id="patch_31">
    <path d="M 486.835171 302.894531 
L 493.478028 302.894531 
L 493.478028 302.894531 
L 486.835171 302.894531 
L 486.835171 302.894531 
z
" clip-path="url(#pc2fc81e49b)" style="fill: none; stroke: #2c7fb8; stroke-width: 1.1; stroke-linejoin: miter"/>
   </g>
   <g id="patch_32">
    <path d="M 500.120885 302.894531 
L 506.763743 302.894531 
L 506.763743 302.894531 
L 500.120885 302.894531 
L 500.120885 302.894531 
z
" clip-path="url(#pc2fc81e49b)" style="fill: none; stroke: #2c7fb8; stroke-width: 1.1; stroke-linejoin: miter"/>
   </g>
   <g id="patch_33">
    <path d="M 513.4066 302.894531 
L 520.049457 302.894531 
L 520.049457 302.894531 
L 513.4066 302.894531 
L 513.4066 302.894531 
z
" clip-path="url(#pc2fc81e49b)" style="fill: none; stroke: #2c7fb8; stroke-width: 1.1; stroke-linejoin: miter"/>
   </g>
   <g id="patch_34">
    <path d="M 526.692314 302.894531 
L 533.335171 302.894531 
L 533.335171 302.894531 
L 526.692314 302.894531 
L 526.692314 302.894531 
z
" clip-path="url(#pc2fc81e49b)" style="fill: none; stroke: #2c7fb8; stroke-width: 1.1; stroke-linejoin: miter"/>
   </g>
   <g id="patch_35">
    <path d="M 539.978028 302.894531 
L 546.620885 302.894531 
L 546.620885 302.894531 
L 539.978028 302.894531 
L 539.978028 302.894531 
z
" clip-path="url(#pc2fc81e49b)" style="fill: none; stroke: #2c7fb8; stroke-width: 1.1; stroke-linejoin: miter"/>
   </g>
   <g id="patch_36">
    <path d="M 553.263743 302.894531 
L 559.9066 302.894531 
L 559.9066 302.894531 
L 553.263743 302.894531 
L 553.263743 302.894531 
z
" clip-path="url(#pc2fc81e49b)" style="fill: none; stroke: #2c7fb8; stroke-width: 1.1; stroke-linejoin: miter"/>
   </g>
   <g id="patch_37">
    <path d="M 566.549457 302.894531 
L 573.192314 302.894531 
L 573.192314 302.894531 
L 566.549457 302.894531 
L 566.549457 302.894531 
z
" clip-path="url(#pc2fc81e49b)" style="fill: none; stroke: #2c7fb8; stroke-width: 1.1; stroke-linejoin: miter"/>
   </g>
   <g id="patch_38">
    <path d="M 579.835171 302.894531 
L 586.478028 302.894531 
L 586.478028 302.894531 
L 579.835171 302.894531 
L 579.835171 302.894531 
z
" clip-path="url(#pc2fc81e49b)" style="fill: none; stroke: #2c7fb8; stroke-width: 1.1; stroke-linejoin: miter"/>
   </g>
   <g id="patch_39">
    <path d="M 593.120885 302.894531 
L 599.763743 302.894531 
L 599.763743 302.894531 
L 593.120885 302.894531 
L 593.120885 302.894531 
z
" clip-path="url(#pc2fc81e49b)" style="fill: none; stroke: #2c7fb8; stroke-width: 1.1; stroke-linejoin: miter"/>
   </g>
   <g id="patch_40">
    <path d="M 606.4066 302.894531 
L 613.049457 302.894531 
L 613.049457 302.894531 
L 606.4066 302.894531 
L 606.4066 302.894531 
z
" clip-path="url(#pc2fc81e49b)" style="fill: none; stroke: #2c7fb8; stroke-width: 1.1; stroke-linejoin: miter"/>
   </g>
   <g id="patch_41">
    <path d="M 108.192314 302.894531 
L 114.835171 302.894531 
L 114.835171 295.602781 
L 108.192314 295.602781 
L 108.192314 302.894531 
z
" clip-path="url(#pc2fc81e49b)" style="fill: none; stroke: #78c679; stroke-width: 1.1; stroke-linejoin: miter"/>
   </g>
   <g id="patch_42">
    <path d="M 121.478028 302.894531 
L 128.120885 302.894531 
L 128.120885 284.665155 
L 121.478028 284.665155 
L 121.478028 302.894531 
z
" clip-path="url(#pc2fc81e49b)" style="fill: none; stroke: #78c679; stroke-width: 1.1; stroke-linejoin: miter"/>
   </g>
   <g id="patch_43">
    <path d="M 134.763743 302.894531 
L 141.4066 302.894531 
L 141.4066 204.455899 
L 134.763743 204.455899 
L 134.763743 302.894531 
z
" clip-path="url(#pc2fc81e49b)" style="fill: none; stroke: #78c679; stroke-width: 1.1; stroke-linejoin: miter"/>
   </g>
   <g id="patch_44">
    <path d="M 148.049457 302.894531 
L 154.692314 302.894531 
L 154.692314 96.90258 
L 148.049457 96.90258 
L 148.049457 302.894531 
z
" clip-path="url(#pc2fc81e49b)" style="fill: none; stroke: #78c679; stroke-width: 1.1; stroke-linejoin: miter"/>
   </g>
   <g id="patch_45">
    <path d="M 161.335171 302.894531 
L 167.978028 302.894531 
L 167.978028 44.037388 
L 161.335171 44.037388 
L 161.335171 302.894531 
z
" clip-path="url(#pc2fc81e49b)" style="fill: none; stroke: #78c679; stroke-width: 1.1; stroke-linejoin: miter"/>
   </g>
   <g id="patch_46">
    <path d="M 174.620885 302.894531 
L 181.263743 302.894531 
L 181.263743 96.90258 
L 174.620885 96.90258 
L 174.620885 302.894531 
z
" clip-path="url(#pc2fc81e49b)" style="fill: none; stroke: #78c679; stroke-width: 1.1; stroke-linejoin: miter"/>
   </g>
   <g id="patch_47">
    <path d="M 187.9066 302.894531 
L 194.549457 302.894531 
L 194.549457 91.433767 
L 187.9066 91.433767 
L 187.9066 302.894531 
z
" clip-path="url(#pc2fc81e49b)" style="fill: none; stroke: #78c679; stroke-width: 1.1; stroke-linejoin: miter"/>
   </g>
   <g id="patch_48">
    <path d="M 201.192314 302.894531 
L 207.835171 302.894531 
L 207.835171 171.643022 
L 201.192314 171.643022 
L 201.192314 302.894531 
z
" clip-path="url(#pc2fc81e49b)" style="fill: none; stroke: #78c679; stroke-width: 1.1; stroke-linejoin: miter"/>
   </g>
   <g id="patch_49">
    <path d="M 214.478028 302.894531 
L 221.120885 302.894531 
L 221.120885 200.810024 
L 214.478028 200.810024 
L 214.478028 302.894531 
z
" clip-path="url(#pc2fc81e49b)" style="fill: none; stroke: #78c679; stroke-width: 1.1; stroke-linejoin: miter"/>
   </g>
   <g id="patch_50">
    <path d="M 227.763743 302.894531 
L 234.4066 302.894531 
L 234.4066 233.622901 
L 227.763743 233.622901 
L 227.763743 302.894531 
z
" clip-path="url(#pc2fc81e49b)" style="fill: none; stroke: #78c679; stroke-width: 1.1; stroke-linejoin: miter"/>
   </g>
   <g id="patch_51">
    <path d="M 241.049457 302.894531 
L 247.692314 302.894531 
L 247.692314 262.789903 
L 241.049457 262.789903 
L 241.049457 302.894531 
z
" clip-path="url(#pc2fc81e49b)" style="fill: none; stroke: #78c679; stroke-width: 1.1; stroke-linejoin: miter"/>
   </g>
   <g id="patch_52">
    <path d="M 254.335171 302.894531 
L 260.978028 302.894531 
L 260.978028 288.31103 
L 254.335171 288.31103 
L 254.335171 302.894531 
z
" clip-path="url(#pc2fc81e49b)" style="fill: none; stroke: #78c679; stroke-width: 1.1; stroke-linejoin: miter"/>
   </g>
   <g id="patch_53">
    <path d="M 267.620885 302.894531 
L 274.263743 302.894531 
L 274.263743 288.31103 
L 267.620885 288.31103 
L 267.620885 302.894531 
z
" clip-path="url(#pc2fc81e49b)" style="fill: none; stroke: #78c679; stroke-width: 1.1; stroke-linejoin: miter"/>
   </g>
   <g id="patch_54">
    <path d="M 280.9066 302.894531 
L 287.549457 302.894531 
L 287.549457 291.956905 
L 280.9066 291.956905 
L 280.9066 302.894531 
z
" clip-path="url(#pc2fc81e49b)" style="fill: none; stroke: #78c679; stroke-width: 1.1; stroke-linejoin: miter"/>
   </g>
   <g id="patch_55">
    <path d="M 294.192314 302.894531 
L 300.835171 302.894531 
L 300.835171 288.31103 
L 294.192314 288.31103 
L 294.192314 302.894531 
z
" clip-path="url(#pc2fc81e49b)" style="fill: none; stroke: #78c679; stroke-width: 1.1; stroke-linejoin: miter"/>
   </g>
   <g id="patch_56">
    <path d="M 307.478028 302.894531 
L 314.120885 302.894531 
L 314.120885 301.071594 
L 307.478028 301.071594 
L 307.478028 302.894531 
z
" clip-path="url(#pc2fc81e49b)" style="fill: none; stroke: #78c679; stroke-width: 1.1; stroke-linejoin: miter"/>
   </g>
   <g id="patch_57">
    <path d="M 320.763743 302.894531 
L 327.4066 302.894531 
L 327.4066 297.425718 
L 320.763743 297.425718 
L 320.763743 302.894531 
z
" clip-path="url(#pc2fc81e49b)" style="fill: none; stroke: #78c679; stroke-width: 1.1; stroke-linejoin: miter"/>
   </g>
   <g id="patch_58">
    <path d="M 334.049457 302.894531 
L 340.692314 302.894531 
L 340.692314 302.894531 
L 334.049457 302.894531 
L 334.049457 302.894531 
z
" clip-path="url(#pc2fc81e49b)" style="fill: none; stroke: #78c679; stroke-width: 1.1; stroke-linejoin: miter"/>
   </g>
   <g id="patch_59">
    <path d="M 347.335171 302.894531 
L 353.978028 302.894531 
L 353.978028 301.071594 
L 347.335171 301.071594 
L 347.335171 302.894531 
z
" clip-path="url(#pc2fc81e49b)" style="fill: none; stroke: #78c679; stroke-width: 1.1; stroke-linejoin: miter"/>
   </g>
   <g id="patch_60">
    <path d="M 360.620885 302.894531 
L 367.263743 302.894531 
L 367.263743 302.894531 
L 360.620885 302.894531 
L 360.620885 302.894531 
z
" clip-path="url(#pc2fc81e49b)" style="fill: none; stroke: #78c679; stroke-width: 1.1; stroke-linejoin: miter"/>
   </g>
   <g id="patch_61">
    <path d="M 373.9066 302.894531 
L 380.549457 302.894531 
L 380.549457 302.894531 
L 373.9066 302.894531 
L 373.9066 302.894531 
z
" clip-path="url(#pc2fc81e49b)" style="fill: none; stroke: #78c679; stroke-width: 1.1; stroke-linejoin: miter"/>
   </g>
   <g id="patch_62">
    <path d="M 387.192314 302.894531 
L 393.835171 302.894531 
L 393.835171 302.894531 
L 387.192314 302.894531 
L 387.192314 302.894531 
z
" clip-path="url(#pc2fc81e49b)" style="fill: none; stroke: #78c679; stroke-width: 1.1; stroke-linejoin: miter"/>
   </g>
   <g id="patch_63">
    <path d="M 400.478028 302.894531 
L 407.120885 302.894531 
L 407.120885 301.071594 
L 400.478028 301.071594 
L 400.478028 302.894531 
z
" clip-path="url(#pc2fc81e49b)" style="fill: none; stroke: #78c679; stroke-width: 1.1; stroke-linejoin: miter"/>
   </g>
   <g id="patch_64">
    <path d="M 413.763743 302.894531 
L 420.4066 302.894531 
L 420.4066 302.894531 
L 413.763743 302.894531 
L 413.763743 302.894531 
z
" clip-path="url(#pc2fc81e49b)" style="fill: none; stroke: #78c679; stroke-width: 1.1; stroke-linejoin: miter"/>
   </g>
   <g id="patch_65">
    <path d="M 427.049457 302.894531 
L 433.692314 302.894531 
L 433.692314 302.894531 
L 427.049457 302.894531 
L 427.049457 302.894531 
z
" clip-path="url(#pc2fc81e49b)" style="fill: none; stroke: #78c679; stroke-width: 1.1; stroke-linejoin: miter"/>
   </g>
   <g id="patch_66">
    <path d="M 440.335171 302.894531 
L 446.978028 302.894531 
L 446.978028 302.894531 
L 440.335171 302.894531 
L 440.335171 302.894531 
z
" clip-path="url(#pc2fc81e49b)" style="fill: none; stroke: #78c679; stroke-width: 1.1; stroke-linejoin: miter"/>
   </g>
   <g id="patch_67">
    <path d="M 453.620885 302.894531 
L 460.263743 302.894531 
L 460.263743 302.894531 
L 453.620885 302.894531 
L 453.620885 302.894531 
z
" clip-path="url(#pc2fc81e49b)" style="fill: none; stroke: #78c679; stroke-width: 1.1; stroke-linejoin: miter"/>
   </g>
   <g id="patch_68">
    <path d="M 466.9066 302.894531 
L 473.549457 302.894531 
L 473.549457 302.894531 
L 466.9066 302.894531 
L 466.9066 302.894531 
z
" clip-path="url(#pc2fc81e49b)" style="fill: none; stroke: #78c679; stroke-width: 1.1; stroke-linejoin: miter"/>
   </g>
   <g id="patch_69">
    <path d="M 480.192314 302.894531 
L 486.835171 302.894531 
L 486.835171 302.894531 
L 480.192314 302.894531 
L 480.192314 302.894531 
z
" clip-path="url(#pc2fc81e49b)" style="fill: none; stroke: #78c679; stroke-width: 1.1; stroke-linejoin: miter"/>
   </g>
   <g id="patch_70">
    <path d="M 493.478028 302.894531 
L 500.120885 302.894531 
L 500.120885 302.894531 
L 493.478028 302.894531 
L 493.478028 302.894531 
z
" clip-path="url(#pc2fc81e49b)" style="fill: none; stroke: #78c679; stroke-width: 1.1; stroke-linejoin: miter"/>
   </g>
   <g id="patch_71">
    <path d="M 506.763743 302.894531 
L 513.4066 302.894531 
L 513.4066 302.894531 
L 506.763743 302.894531 
L 506.763743 302.894531 
z
" clip-path="url(#pc2fc81e49b)" style="fill: none; stroke: #78c679; stroke-width: 1.1; stroke-linejoin: miter"/>
   </g>
   <g id="patch_72">
    <path d="M 520.049457 302.894531 
L 526.692314 302.894531 
L 526.692314 302.894531 
L 520.049457 302.894531 
L 520.049457 302.894531 
z
" clip-path="url(#pc2fc81e49b)" style="fill: none; stroke: #78c679; stroke-width: 1.1; stroke-linejoin: miter"/>
   </g>
   <g id="patch_73">
    <path d="M 533.335171 302.894531 
L 539.978028 302.894531 
L 539.978028 302.894531 
L 533.335171 302.894531 
L 533.335171 302.894531 
z
" clip-path="url(#pc2fc81e49b)" style="fill: none; stroke: #78c679; stroke-width: 1.1; stroke-linejoin: miter"/>
   </g>
   <g id="patch_74">
    <path d="M 546.620885 302.894531 
L 553.263743 302.894531 
L 553.263743 302.894531 
L 546.620885 302.894531 
L 546.620885 302.894531 
z
" clip-path="url(#pc2fc81e49b)" style="fill: none; stroke: #78c679; stroke-width: 1.1; stroke-linejoin: miter"/>
   </g>
   <g id="patch_75">
    <path d="M 559.9066 302.894531 
L 566.549457 302.894531 
L 566.549457 302.894531 
L 559.9066 302.894531 
L 559.9066 302.894531 
z
" clip-path="url(#pc2fc81e49b)" style="fill: none; stroke: #78c679; stroke-width: 1.1; stroke-linejoin: miter"/>
   </g>
   <g id="patch_76">
    <path d="M 573.192314 302.894531 
L 579.835171 302.894531 
L 579.835171 302.894531 
L 573.192314 302.894531 
L 573.192314 302.894531 
z
" clip-path="url(#pc2fc81e49b)" style="fill: none; stroke: #78c679; stroke-width: 1.1; stroke-linejoin: miter"/>
   </g>
   <g id="patch_77">
    <path d="M 586.478028 302.894531 
L 593.120885 302.894531 
L 593.120885 302.894531 
L 586.478028 302.894531 
L 586.478028 302.894531 
z
" clip-path="url(#pc2fc81e49b)" style="fill: none; stroke: #78c679; stroke-width: 1.1; stroke-linejoin: miter"/>
   </g>
   <g id="patch_78">
    <path d="M 599.763743 302.894531 
L 606.4066 302.894531 
L 606.4066 301.071594 
L 599.763743 301.071594 
L 599.763743 302.894531 
z
" clip-path="url(#pc2fc81e49b)" style="fill: none; stroke: #78c679; stroke-width: 1.1; stroke-linejoin: miter"/>
   </g>
   <g id="matplotlib.axis_1">
    <g id="xtick_1">
     <g id="line2d_1">
      <defs>
       <path id="m9af0d7f3d7" d="M 0 0 
L 0 3.5 
" style="stroke: #000000; stroke-width: 0.8"/>
      </defs>
      <g>
       <use xlink:href="#m9af0d7f3d7" x="72" y="302.894531" style="stroke: #000000; stroke-width: 0.8"/>
      </g>
     </g>
     <g id="text_1">
      <!-- 0 -->
      <g transform="translate(65.6375 325.091406) scale(0.2 -0.2)">
       <defs>
        <path id="DejaVuSans-30" d="M 2034 4250 
Q 1547 4250 1301 3770 
Q 1056 3291 1056 2328 
Q 1056 1369 1301 889 
Q 1547 409 2034 409 
Q 2525 409 2770 889 
Q 3016 1369 3016 2328 
Q 3016 3291 2770 3770 
Q 2525 4250 2034 4250 
z
M 2034 4750 
Q 2819 4750 3233 4129 
Q 3647 3509 3647 2328 
Q 3647 1150 3233 529 
Q 2819 -91 2034 -91 
Q 1250 -91 836 529 
Q 422 1150 422 2328 
Q 422 3509 836 4129 
Q 1250 4750 2034 4750 
z
" transform="scale(0.015625)"/>
       </defs>
       <use xlink:href="#DejaVuSans-30"/>
      </g>
     </g>
    </g>
    <g id="xtick_2">
     <g id="line2d_2">
      <g>
       <use xlink:href="#m9af0d7f3d7" x="138.428571" y="302.894531" style="stroke: #000000; stroke-width: 0.8"/>
      </g>
     </g>
     <g id="text_2">
      <!-- 1 -->
      <g transform="translate(132.066071 325.091406) scale(0.2 -0.2)">
       <defs>
        <path id="DejaVuSans-31" d="M 794 531 
L 1825 531 
L 1825 4091 
L 703 3866 
L 703 4441 
L 1819 4666 
L 2450 4666 
L 2450 531 
L 3481 531 
L 3481 0 
L 794 0 
L 794 531 
z
" transform="scale(0.015625)"/>
       </defs>
       <use xlink:href="#DejaVuSans-31"/>
      </g>
     </g>
    </g>
    <g id="xtick_3">
     <g id="line2d_3">
      <g>
       <use xlink:href="#m9af0d7f3d7" x="204.857143" y="302.894531" style="stroke: #000000; stroke-width: 0.8"/>
      </g>
     </g>
     <g id="text_3">
      <!-- 2 -->
      <g transform="translate(198.494643 325.091406) scale(0.2 -0.2)">
       <defs>
        <path id="DejaVuSans-32" d="M 1228 531 
L 3431 531 
L 3431 0 
L 469 0 
L 469 531 
Q 828 903 1448 1529 
Q 2069 2156 2228 2338 
Q 2531 2678 2651 2914 
Q 2772 3150 2772 3378 
Q 2772 3750 2511 3984 
Q 2250 4219 1831 4219 
Q 1534 4219 1204 4116 
Q 875 4013 500 3803 
L 500 4441 
Q 881 4594 1212 4672 
Q 1544 4750 1819 4750 
Q 2544 4750 2975 4387 
Q 3406 4025 3406 3419 
Q 3406 3131 3298 2873 
Q 3191 2616 2906 2266 
Q 2828 2175 2409 1742 
Q 1991 1309 1228 531 
z
" transform="scale(0.015625)"/>
       </defs>
       <use xlink:href="#DejaVuSans-32"/>
      </g>
     </g>
    </g>
    <g id="xtick_4">
     <g id="line2d_4">
      <g>
       <use xlink:href="#m9af0d7f3d7" x="271.285714" y="302.894531" style="stroke: #000000; stroke-width: 0.8"/>
      </g>
     </g>
     <g id="text_4">
      <!-- 3 -->
      <g transform="translate(264.923214 325.091406) scale(0.2 -0.2)">
       <defs>
        <path id="DejaVuSans-33" d="M 2597 2516 
Q 3050 2419 3304 2112 
Q 3559 1806 3559 1356 
Q 3559 666 3084 287 
Q 2609 -91 1734 -91 
Q 1441 -91 1130 -33 
Q 819 25 488 141 
L 488 750 
Q 750 597 1062 519 
Q 1375 441 1716 441 
Q 2309 441 2620 675 
Q 2931 909 2931 1356 
Q 2931 1769 2642 2001 
Q 2353 2234 1838 2234 
L 1294 2234 
L 1294 2753 
L 1863 2753 
Q 2328 2753 2575 2939 
Q 2822 3125 2822 3475 
Q 2822 3834 2567 4026 
Q 2313 4219 1838 4219 
Q 1578 4219 1281 4162 
Q 984 4106 628 3988 
L 628 4550 
Q 988 4650 1302 4700 
Q 1616 4750 1894 4750 
Q 2613 4750 3031 4423 
Q 3450 4097 3450 3541 
Q 3450 3153 3228 2886 
Q 3006 2619 2597 2516 
z
" transform="scale(0.015625)"/>
       </defs>
       <use xlink:href="#DejaVuSans-33"/>
      </g>
     </g>
    </g>
    <g id="xtick_5">
     <g id="line2d_5">
      <g>
       <use xlink:href="#m9af0d7f3d7" x="337.714286" y="302.894531" style="stroke: #000000; stroke-width: 0.8"/>
      </g>
     </g>
     <g id="text_5">
      <!-- 4 -->
      <g transform="translate(331.351786 325.091406) scale(0.2 -0.2)">
       <defs>
        <path id="DejaVuSans-34" d="M 2419 4116 
L 825 1625 
L 2419 1625 
L 2419 4116 
z
M 2253 4666 
L 3047 4666 
L 3047 1625 
L 3713 1625 
L 3713 1100 
L 3047 1100 
L 3047 0 
L 2419 0 
L 2419 1100 
L 313 1100 
L 313 1709 
L 2253 4666 
z
" transform="scale(0.015625)"/>
       </defs>
       <use xlink:href="#DejaVuSans-34"/>
      </g>
     </g>
    </g>
    <g id="xtick_6">
     <g id="line2d_6">
      <g>
       <use xlink:href="#m9af0d7f3d7" x="404.142857" y="302.894531" style="stroke: #000000; stroke-width: 0.8"/>
      </g>
     </g>
     <g id="text_6">
      <!-- 5 -->
      <g transform="translate(397.780357 325.091406) scale(0.2 -0.2)">
       <defs>
        <path id="DejaVuSans-35" d="M 691 4666 
L 3169 4666 
L 3169 4134 
L 1269 4134 
L 1269 2991 
Q 1406 3038 1543 3061 
Q 1681 3084 1819 3084 
Q 2600 3084 3056 2656 
Q 3513 2228 3513 1497 
Q 3513 744 3044 326 
Q 2575 -91 1722 -91 
Q 1428 -91 1123 -41 
Q 819 9 494 109 
L 494 744 
Q 775 591 1075 516 
Q 1375 441 1709 441 
Q 2250 441 2565 725 
Q 2881 1009 2881 1497 
Q 2881 1984 2565 2268 
Q 2250 2553 1709 2553 
Q 1456 2553 1204 2497 
Q 953 2441 691 2322 
L 691 4666 
z
" transform="scale(0.015625)"/>
       </defs>
       <use xlink:href="#DejaVuSans-35"/>
      </g>
     </g>
    </g>
    <g id="xtick_7">
     <g id="line2d_7">
      <g>
       <use xlink:href="#m9af0d7f3d7" x="470.571429" y="302.894531" style="stroke: #000000; stroke-width: 0.8"/>
      </g>
     </g>
     <g id="text_7">
      <!-- 6 -->
      <g transform="translate(464.208929 325.091406) scale(0.2 -0.2)">
       <defs>
        <path id="DejaVuSans-36" d="M 2113 2584 
Q 1688 2584 1439 2293 
Q 1191 2003 1191 1497 
Q 1191 994 1439 701 
Q 1688 409 2113 409 
Q 2538 409 2786 701 
Q 3034 994 3034 1497 
Q 3034 2003 2786 2293 
Q 2538 2584 2113 2584 
z
M 3366 4563 
L 3366 3988 
Q 3128 4100 2886 4159 
Q 2644 4219 2406 4219 
Q 1781 4219 1451 3797 
Q 1122 3375 1075 2522 
Q 1259 2794 1537 2939 
Q 1816 3084 2150 3084 
Q 2853 3084 3261 2657 
Q 3669 2231 3669 1497 
Q 3669 778 3244 343 
Q 2819 -91 2113 -91 
Q 1303 -91 875 529 
Q 447 1150 447 2328 
Q 447 3434 972 4092 
Q 1497 4750 2381 4750 
Q 2619 4750 2861 4703 
Q 3103 4656 3366 4563 
z
" transform="scale(0.015625)"/>
       </defs>
       <use xlink:href="#DejaVuSans-36"/>
      </g>
     </g>
    </g>
    <g id="text_8">
     <!--    -->
     <g transform="translate(264.929464 348.447656) scale(0.2 -0.2)">
      <defs>
       <path id="DejaVuSans-20" transform="scale(0.015625)"/>
      </defs>
      <use xlink:href="#DejaVuSans-20"/>
      <use xlink:href="#DejaVuSans-20" x="31.787109"/>
     </g>
    </g>
   </g>
   <g id="matplotlib.axis_2">
    <g id="ytick_1">
     <g id="line2d_8">
      <defs>
       <path id="m81913270ea" d="M 0 0 
L -3.5 0 
" style="stroke: #000000; stroke-width: 0.8"/>
      </defs>
      <g>
       <use xlink:href="#m81913270ea" x="72" y="302.894531" style="stroke: #000000; stroke-width: 0.8"/>
      </g>
     </g>
     <g id="text_9">
      <!-- 0 -->
      <g transform="translate(52.275 310.492969) scale(0.2 -0.2)">
       <use xlink:href="#DejaVuSans-30"/>
      </g>
     </g>
    </g>
    <g id="ytick_2">
     <g id="line2d_9">
      <g>
       <use xlink:href="#m81913270ea" x="72" y="232.073404" style="stroke: #000000; stroke-width: 0.8"/>
      </g>
     </g>
     <g id="text_10">
      <!-- 5 -->
      <g transform="translate(52.275 239.671842) scale(0.2 -0.2)">
       <use xlink:href="#DejaVuSans-35"/>
      </g>
     </g>
    </g>
    <g id="ytick_3">
     <g id="line2d_10">
      <g>
       <use xlink:href="#m81913270ea" x="72" y="161.252278" style="stroke: #000000; stroke-width: 0.8"/>
      </g>
     </g>
     <g id="text_11">
      <!-- 10 -->
      <g transform="translate(39.55 168.850715) scale(0.2 -0.2)">
       <use xlink:href="#DejaVuSans-31"/>
       <use xlink:href="#DejaVuSans-30" x="63.623047"/>
      </g>
     </g>
    </g>
    <g id="ytick_4">
     <g id="line2d_11">
      <g>
       <use xlink:href="#m81913270ea" x="72" y="90.431151" style="stroke: #000000; stroke-width: 0.8"/>
      </g>
     </g>
     <g id="text_12">
      <!-- 15 -->
      <g transform="translate(39.55 98.029588) scale(0.2 -0.2)">
       <use xlink:href="#DejaVuSans-31"/>
       <use xlink:href="#DejaVuSans-35" x="63.623047"/>
      </g>
     </g>
    </g>
    <g id="text_13">
     <!--    -->
     <g transform="translate(31.390625 173.350781) rotate(-90) scale(0.2 -0.2)">
      <use xlink:href="#DejaVuSans-20"/>
      <use xlink:href="#DejaVuSans-20" x="31.787109"/>
     </g>
    </g>
   </g>
   <g id="line2d_12">
    <path d="M 108.192314 293.882636 
L 110.674833 291.998061 
L 113.157353 289.770279 
L 115.639872 287.139726 
L 118.122391 284.042795 
L 120.60491 280.414602 
L 123.08743 276.192272 
L 125.569949 271.318619 
L 128.052468 265.746142 
L 130.534988 259.441215 
L 133.017507 252.388297 
L 135.500026 244.593841 
L 137.982545 236.089476 
L 140.465065 226.933983 
L 142.947584 217.213647 
L 147.912623 196.550078 
L 155.36018 164.747758 
L 157.8427 154.593077 
L 160.325219 144.931386 
L 162.807738 135.906095 
L 165.290257 127.640124 
L 167.772777 120.231411 
L 170.255296 113.750183 
L 172.737815 108.23869 
L 175.220335 103.714 
L 177.702854 100.173895 
L 180.185373 97.60518 
L 182.667892 95.992846 
L 185.150412 95.327973 
L 187.632931 95.612189 
L 190.11545 96.8571 
L 192.59797 99.078301 
L 195.080489 102.285017 
L 197.563008 106.467763 
L 200.045527 111.587172 
L 202.528047 117.567076 
L 205.010566 124.294074 
L 207.493085 131.624272 
L 212.458124 147.4472 
L 222.388201 179.975183 
L 229.835759 203.279085 
L 234.800797 218.199645 
L 239.765836 232.384232 
L 242.248355 239.042038 
L 244.730875 245.30549 
L 247.213394 251.098986 
L 249.695913 256.359138 
L 252.178432 261.040421 
L 254.660952 265.118199 
L 257.143471 268.589482 
L 259.62599 271.472142 
L 262.10851 273.803277 
L 264.591029 275.637117 
L 267.073548 277.042522 
L 269.556067 278.099806 
L 272.038587 278.896624 
L 277.003625 280.064349 
L 281.968664 281.182851 
L 284.451183 281.862554 
L 286.933702 282.658014 
L 291.898741 284.588987 
L 299.346299 287.991303 
L 304.311337 290.248427 
L 309.276376 292.285141 
L 314.241414 294.014256 
L 319.206453 295.408781 
L 324.171492 296.478498 
L 329.13653 297.263073 
L 334.101569 297.832035 
L 344.031646 298.657123 
L 353.961723 299.283359 
L 361.409281 299.484195 
L 371.339358 299.613866 
L 376.304397 299.874528 
L 381.269435 300.339006 
L 398.64707 302.287502 
L 406.094628 302.68354 
L 416.024705 302.860693 
L 440.849898 302.894489 
L 602.213651 302.894531 
L 602.213651 302.894531 
" clip-path="url(#pc2fc81e49b)" style="fill: none; stroke: #2c7fb8; stroke-width: 4; stroke-linecap: square"/>
   </g>
   <g id="line2d_13">
    <path d="M 108.192314 298.172856 
L 110.674833 296.911614 
L 113.157353 295.322528 
L 115.639872 293.24526 
L 118.122391 290.467757 
L 120.60491 286.744152 
L 123.08743 281.823666 
L 125.569949 275.483686 
L 128.052468 267.558923 
L 130.534988 257.960735 
L 133.017507 246.685219 
L 135.500026 233.81308 
L 137.982545 219.50608 
L 140.465065 204.003395 
L 145.430103 170.728859 
L 150.395142 137.212658 
L 152.877661 121.536649 
L 155.36018 107.21118 
L 157.8427 94.665977 
L 160.325219 84.265309 
L 162.807738 76.2794 
L 165.290257 70.854523 
L 167.772777 67.98637 
L 170.255296 67.505462 
L 172.737815 69.085367 
L 175.220335 72.281757 
L 177.702854 76.602111 
L 180.185373 81.59391 
L 185.150412 92.453535 
L 187.632931 98.196187 
L 190.11545 104.311336 
L 192.59797 110.993721 
L 195.080489 118.382263 
L 197.563008 126.488989 
L 202.528047 144.173205 
L 207.493085 161.824418 
L 209.975605 169.946129 
L 212.458124 177.428426 
L 214.940643 184.304541 
L 219.905682 196.820051 
L 234.800797 232.858646 
L 237.283317 238.438008 
L 239.765836 243.693831 
L 242.248355 248.629562 
L 247.213394 257.769427 
L 252.178432 266.346783 
L 254.660952 270.436173 
L 257.143471 274.287521 
L 259.62599 277.777386 
L 262.10851 280.789426 
L 264.591029 283.25159 
L 267.073548 285.159521 
L 269.556067 286.578538 
L 272.038587 287.624877 
L 277.003625 289.128905 
L 289.416222 292.430214 
L 294.38126 293.438079 
L 326.654011 298.816997 
L 336.584088 300.887842 
L 341.549127 301.504654 
L 346.514165 301.756279 
L 358.926762 302.127463 
L 371.339358 302.725333 
L 378.786916 302.849997 
L 388.716993 302.77747 
L 396.164551 302.507141 
L 408.577147 301.969074 
L 413.542186 302.01756 
L 423.472263 302.499393 
L 430.919821 302.775677 
L 440.849898 302.883817 
L 492.982803 302.894531 
L 579.870978 302.80352 
L 587.318536 302.562908 
L 599.731132 301.98795 
L 602.213651 301.961523 
L 602.213651 301.961523 
" clip-path="url(#pc2fc81e49b)" style="fill: none; stroke: #78c679; stroke-width: 4; stroke-linecap: square"/>
   </g>
   <g id="patch_79">
    <path d="M 72 302.894531 
L 72 31.094531 
" style="fill: none; stroke: #000000; stroke-width: 0.8; stroke-linejoin: miter; stroke-linecap: square"/>
   </g>
   <g id="patch_80">
    <path d="M 72 302.894531 
L 470.571429 302.894531 
" style="fill: none; stroke: #000000; stroke-width: 0.8; stroke-linejoin: miter; stroke-linecap: square"/>
   </g>
   <g id="text_14">
    <!-- p = 0.009 -->
    <g transform="translate(271.285714 203.744954) scale(0.2 -0.2)">
     <defs>
      <path id="ArialMT-70" d="M 422 -1272 
L 422 3319 
L 934 3319 
L 934 2888 
Q 1116 3141 1344 3267 
Q 1572 3394 1897 3394 
Q 2322 3394 2647 3175 
Q 2972 2956 3137 2557 
Q 3303 2159 3303 1684 
Q 3303 1175 3120 767 
Q 2938 359 2589 142 
Q 2241 -75 1856 -75 
Q 1575 -75 1351 44 
Q 1128 163 984 344 
L 984 -1272 
L 422 -1272 
z
M 931 1641 
Q 931 1000 1190 694 
Q 1450 388 1819 388 
Q 2194 388 2461 705 
Q 2728 1022 2728 1688 
Q 2728 2322 2467 2637 
Q 2206 2953 1844 2953 
Q 1484 2953 1207 2617 
Q 931 2281 931 1641 
z
" transform="scale(0.015625)"/>
      <path id="ArialMT-20" transform="scale(0.015625)"/>
      <path id="ArialMT-3d" d="M 3381 2694 
L 356 2694 
L 356 3219 
L 3381 3219 
L 3381 2694 
z
M 3381 1303 
L 356 1303 
L 356 1828 
L 3381 1828 
L 3381 1303 
z
" transform="scale(0.015625)"/>
      <path id="ArialMT-30" d="M 266 2259 
Q 266 3072 433 3567 
Q 600 4063 929 4331 
Q 1259 4600 1759 4600 
Q 2128 4600 2406 4451 
Q 2684 4303 2865 4023 
Q 3047 3744 3150 3342 
Q 3253 2941 3253 2259 
Q 3253 1453 3087 958 
Q 2922 463 2592 192 
Q 2263 -78 1759 -78 
Q 1097 -78 719 397 
Q 266 969 266 2259 
z
M 844 2259 
Q 844 1131 1108 757 
Q 1372 384 1759 384 
Q 2147 384 2411 759 
Q 2675 1134 2675 2259 
Q 2675 3391 2411 3762 
Q 2147 4134 1753 4134 
Q 1366 4134 1134 3806 
Q 844 3388 844 2259 
z
" transform="scale(0.015625)"/>
      <path id="ArialMT-2e" d="M 581 0 
L 581 641 
L 1222 641 
L 1222 0 
L 581 0 
z
" transform="scale(0.015625)"/>
      <path id="ArialMT-39" d="M 350 1059 
L 891 1109 
Q 959 728 1153 556 
Q 1347 384 1650 384 
Q 1909 384 2104 503 
Q 2300 622 2425 820 
Q 2550 1019 2634 1356 
Q 2719 1694 2719 2044 
Q 2719 2081 2716 2156 
Q 2547 1888 2255 1720 
Q 1963 1553 1622 1553 
Q 1053 1553 659 1965 
Q 266 2378 266 3053 
Q 266 3750 677 4175 
Q 1088 4600 1706 4600 
Q 2153 4600 2523 4359 
Q 2894 4119 3086 3673 
Q 3278 3228 3278 2384 
Q 3278 1506 3087 986 
Q 2897 466 2520 194 
Q 2144 -78 1638 -78 
Q 1100 -78 759 220 
Q 419 519 350 1059 
z
M 2653 3081 
Q 2653 3566 2395 3850 
Q 2138 4134 1775 4134 
Q 1400 4134 1122 3828 
Q 844 3522 844 3034 
Q 844 2597 1108 2323 
Q 1372 2050 1759 2050 
Q 2150 2050 2401 2323 
Q 2653 2597 2653 3081 
z
" transform="scale(0.015625)"/>
     </defs>
     <use xlink:href="#ArialMT-70"/>
     <use xlink:href="#ArialMT-20" x="55.615234"/>
     <use xlink:href="#ArialMT-3d" x="83.398438"/>
     <use xlink:href="#ArialMT-20" x="141.796875"/>
     <use xlink:href="#ArialMT-30" x="169.580078"/>
     <use xlink:href="#ArialMT-2e" x="225.195312"/>
     <use xlink:href="#ArialMT-30" x="252.978516"/>
     <use xlink:href="#ArialMT-30" x="308.59375"/>
     <use xlink:href="#ArialMT-39" x="364.208984"/>
    </g>
   </g>
   <g id="text_15">
    <!-- LP -->
    <g transform="translate(255.313058 25.094531) scale(0.25 -0.25)">
     <defs>
      <path id="Arial-BoldMT-4c" d="M 491 0 
L 491 4544 
L 1416 4544 
L 1416 772 
L 3716 772 
L 3716 0 
L 491 0 
z
" transform="scale(0.015625)"/>
      <path id="Arial-BoldMT-50" d="M 466 0 
L 466 4581 
L 1950 4581 
Q 2794 4581 3050 4513 
Q 3444 4409 3709 4064 
Q 3975 3719 3975 3172 
Q 3975 2750 3822 2462 
Q 3669 2175 3433 2011 
Q 3197 1847 2953 1794 
Q 2622 1728 1994 1728 
L 1391 1728 
L 1391 0 
L 466 0 
z
M 1391 3806 
L 1391 2506 
L 1897 2506 
Q 2444 2506 2628 2578 
Q 2813 2650 2917 2803 
Q 3022 2956 3022 3159 
Q 3022 3409 2875 3571 
Q 2728 3734 2503 3775 
Q 2338 3806 1838 3806 
L 1391 3806 
z
" transform="scale(0.015625)"/>
     </defs>
     <use xlink:href="#Arial-BoldMT-4c"/>
     <use xlink:href="#Arial-BoldMT-50" x="61.083984"/>
    </g>
   </g>
  </g>
  <g id="axes_2">
   <g id="patch_81">
    <path d="M 510.428571 302.894531 
L 909 302.894531 
L 909 31.094531 
L 510.428571 31.094531 
z
" style="fill: #ffffff"/>
   </g>
   <g id="patch_82">
    <path d="M 548.638416 302.894531 
L 555.281274 302.894531 
L 555.281274 298.24534 
L 548.638416 298.24534 
L 548.638416 302.894531 
z
" clip-path="url(#pa6e11b990f)" style="fill: none; stroke: #2c7fb8; stroke-width: 1.1; stroke-linejoin: miter"/>
   </g>
   <g id="patch_83">
    <path d="M 561.924131 302.894531 
L 568.566988 302.894531 
L 568.566988 288.946957 
L 561.924131 288.946957 
L 561.924131 302.894531 
z
" clip-path="url(#pa6e11b990f)" style="fill: none; stroke: #2c7fb8; stroke-width: 1.1; stroke-linejoin: miter"/>
   </g>
   <g id="patch_84">
    <path d="M 575.209845 302.894531 
L 581.852702 302.894531 
L 581.852702 247.104234 
L 575.209845 247.104234 
L 575.209845 302.894531 
z
" clip-path="url(#pa6e11b990f)" style="fill: none; stroke: #2c7fb8; stroke-width: 1.1; stroke-linejoin: miter"/>
   </g>
   <g id="patch_85">
    <path d="M 588.495559 302.894531 
L 595.138416 302.894531 
L 595.138416 168.06798 
L 588.495559 168.06798 
L 588.495559 302.894531 
z
" clip-path="url(#pa6e11b990f)" style="fill: none; stroke: #2c7fb8; stroke-width: 1.1; stroke-linejoin: miter"/>
   </g>
   <g id="patch_86">
    <path d="M 601.781274 302.894531 
L 608.424131 302.894531 
L 608.424131 130.874449 
L 601.781274 130.874449 
L 601.781274 302.894531 
z
" clip-path="url(#pa6e11b990f)" style="fill: none; stroke: #2c7fb8; stroke-width: 1.1; stroke-linejoin: miter"/>
   </g>
   <g id="patch_87">
    <path d="M 615.066988 302.894531 
L 621.709845 302.894531 
L 621.709845 47.189004 
L 615.066988 47.189004 
L 615.066988 302.894531 
z
" clip-path="url(#pa6e11b990f)" style="fill: none; stroke: #2c7fb8; stroke-width: 1.1; stroke-linejoin: miter"/>
   </g>
   <g id="patch_88">
    <path d="M 628.352702 302.894531 
L 634.995559 302.894531 
L 634.995559 98.330109 
L 628.352702 98.330109 
L 628.352702 302.894531 
z
" clip-path="url(#pa6e11b990f)" style="fill: none; stroke: #2c7fb8; stroke-width: 1.1; stroke-linejoin: miter"/>
   </g>
   <g id="patch_89">
    <path d="M 641.638416 302.894531 
L 648.281274 302.894531 
L 648.281274 121.576066 
L 641.638416 121.576066 
L 641.638416 302.894531 
z
" clip-path="url(#pa6e11b990f)" style="fill: none; stroke: #2c7fb8; stroke-width: 1.1; stroke-linejoin: miter"/>
   </g>
   <g id="patch_90">
    <path d="M 654.924131 302.894531 
L 661.566988 302.894531 
L 661.566988 191.313937 
L 654.924131 191.313937 
L 654.924131 302.894531 
z
" clip-path="url(#pa6e11b990f)" style="fill: none; stroke: #2c7fb8; stroke-width: 1.1; stroke-linejoin: miter"/>
   </g>
   <g id="patch_91">
    <path d="M 668.209845 302.894531 
L 674.852702 302.894531 
L 674.852702 168.06798 
L 668.209845 168.06798 
L 668.209845 302.894531 
z
" clip-path="url(#pa6e11b990f)" style="fill: none; stroke: #2c7fb8; stroke-width: 1.1; stroke-linejoin: miter"/>
   </g>
   <g id="patch_92">
    <path d="M 681.495559 302.894531 
L 688.138416 302.894531 
L 688.138416 265.701 
L 681.495559 265.701 
L 681.495559 302.894531 
z
" clip-path="url(#pa6e11b990f)" style="fill: none; stroke: #2c7fb8; stroke-width: 1.1; stroke-linejoin: miter"/>
   </g>
   <g id="patch_93">
    <path d="M 694.781274 302.894531 
L 701.424131 302.894531 
L 701.424131 261.051809 
L 694.781274 261.051809 
L 694.781274 302.894531 
z
" clip-path="url(#pa6e11b990f)" style="fill: none; stroke: #2c7fb8; stroke-width: 1.1; stroke-linejoin: miter"/>
   </g>
   <g id="patch_94">
    <path d="M 708.066988 302.894531 
L 714.709845 302.894531 
L 714.709845 274.999383 
L 708.066988 274.999383 
L 708.066988 302.894531 
z
" clip-path="url(#pa6e11b990f)" style="fill: none; stroke: #2c7fb8; stroke-width: 1.1; stroke-linejoin: miter"/>
   </g>
   <g id="patch_95">
    <path d="M 721.352702 302.894531 
L 727.995559 302.894531 
L 727.995559 279.648574 
L 721.352702 279.648574 
L 721.352702 302.894531 
z
" clip-path="url(#pa6e11b990f)" style="fill: none; stroke: #2c7fb8; stroke-width: 1.1; stroke-linejoin: miter"/>
   </g>
   <g id="patch_96">
    <path d="M 734.638416 302.894531 
L 741.281274 302.894531 
L 741.281274 293.596148 
L 734.638416 293.596148 
L 734.638416 302.894531 
z
" clip-path="url(#pa6e11b990f)" style="fill: none; stroke: #2c7fb8; stroke-width: 1.1; stroke-linejoin: miter"/>
   </g>
   <g id="patch_97">
    <path d="M 747.924131 302.894531 
L 754.566988 302.894531 
L 754.566988 288.946957 
L 747.924131 288.946957 
L 747.924131 302.894531 
z
" clip-path="url(#pa6e11b990f)" style="fill: none; stroke: #2c7fb8; stroke-width: 1.1; stroke-linejoin: miter"/>
   </g>
   <g id="patch_98">
    <path d="M 761.209845 302.894531 
L 767.852702 302.894531 
L 767.852702 293.596148 
L 761.209845 293.596148 
L 761.209845 302.894531 
z
" clip-path="url(#pa6e11b990f)" style="fill: none; stroke: #2c7fb8; stroke-width: 1.1; stroke-linejoin: miter"/>
   </g>
   <g id="patch_99">
    <path d="M 774.495559 302.894531 
L 781.138416 302.894531 
L 781.138416 288.946957 
L 774.495559 288.946957 
L 774.495559 302.894531 
z
" clip-path="url(#pa6e11b990f)" style="fill: none; stroke: #2c7fb8; stroke-width: 1.1; stroke-linejoin: miter"/>
   </g>
   <g id="patch_100">
    <path d="M 787.781274 302.894531 
L 794.424131 302.894531 
L 794.424131 298.24534 
L 787.781274 298.24534 
L 787.781274 302.894531 
z
" clip-path="url(#pa6e11b990f)" style="fill: none; stroke: #2c7fb8; stroke-width: 1.1; stroke-linejoin: miter"/>
   </g>
   <g id="patch_101">
    <path d="M 801.066988 302.894531 
L 807.709845 302.894531 
L 807.709845 302.894531 
L 801.066988 302.894531 
L 801.066988 302.894531 
z
" clip-path="url(#pa6e11b990f)" style="fill: none; stroke: #2c7fb8; stroke-width: 1.1; stroke-linejoin: miter"/>
   </g>
   <g id="patch_102">
    <path d="M 814.352702 302.894531 
L 820.995559 302.894531 
L 820.995559 298.24534 
L 814.352702 298.24534 
L 814.352702 302.894531 
z
" clip-path="url(#pa6e11b990f)" style="fill: none; stroke: #2c7fb8; stroke-width: 1.1; stroke-linejoin: miter"/>
   </g>
   <g id="patch_103">
    <path d="M 827.638416 302.894531 
L 834.281274 302.894531 
L 834.281274 302.894531 
L 827.638416 302.894531 
L 827.638416 302.894531 
z
" clip-path="url(#pa6e11b990f)" style="fill: none; stroke: #2c7fb8; stroke-width: 1.1; stroke-linejoin: miter"/>
   </g>
   <g id="patch_104">
    <path d="M 840.924131 302.894531 
L 847.566988 302.894531 
L 847.566988 302.894531 
L 840.924131 302.894531 
L 840.924131 302.894531 
z
" clip-path="url(#pa6e11b990f)" style="fill: none; stroke: #2c7fb8; stroke-width: 1.1; stroke-linejoin: miter"/>
   </g>
   <g id="patch_105">
    <path d="M 854.209845 302.894531 
L 860.852702 302.894531 
L 860.852702 302.894531 
L 854.209845 302.894531 
L 854.209845 302.894531 
z
" clip-path="url(#pa6e11b990f)" style="fill: none; stroke: #2c7fb8; stroke-width: 1.1; stroke-linejoin: miter"/>
   </g>
   <g id="patch_106">
    <path d="M 867.495559 302.894531 
L 874.138416 302.894531 
L 874.138416 302.894531 
L 867.495559 302.894531 
L 867.495559 302.894531 
z
" clip-path="url(#pa6e11b990f)" style="fill: none; stroke: #2c7fb8; stroke-width: 1.1; stroke-linejoin: miter"/>
   </g>
   <g id="patch_107">
    <path d="M 880.781274 302.894531 
L 887.424131 302.894531 
L 887.424131 302.894531 
L 880.781274 302.894531 
L 880.781274 302.894531 
z
" clip-path="url(#pa6e11b990f)" style="fill: none; stroke: #2c7fb8; stroke-width: 1.1; stroke-linejoin: miter"/>
   </g>
   <g id="patch_108">
    <path d="M 894.066988 302.894531 
L 900.709845 302.894531 
L 900.709845 302.894531 
L 894.066988 302.894531 
L 894.066988 302.894531 
z
" clip-path="url(#pa6e11b990f)" style="fill: none; stroke: #2c7fb8; stroke-width: 1.1; stroke-linejoin: miter"/>
   </g>
   <g id="patch_109">
    <path d="M 907.352702 302.894531 
L 913.995559 302.894531 
L 913.995559 302.894531 
L 907.352702 302.894531 
L 907.352702 302.894531 
z
" clip-path="url(#pa6e11b990f)" style="fill: none; stroke: #2c7fb8; stroke-width: 1.1; stroke-linejoin: miter"/>
   </g>
   <g id="patch_110">
    <path d="M 920.638416 302.894531 
L 923.5625 302.894531 
M 923.5625 302.894531 
L 920.638416 302.894531 
L 920.638416 302.894531 
" clip-path="url(#pa6e11b990f)" style="fill: none; stroke: #2c7fb8; stroke-width: 1.1; stroke-linejoin: miter"/>
   </g>
   <g id="patch_111">
    <path clip-path="url(#pa6e11b990f)" style="fill: none; stroke: #2c7fb8; stroke-width: 1.1; stroke-linejoin: miter"/>
   </g>
   <g id="patch_112">
    <path clip-path="url(#pa6e11b990f)" style="fill: none; stroke: #2c7fb8; stroke-width: 1.1; stroke-linejoin: miter"/>
   </g>
   <g id="patch_113">
    <path clip-path="url(#pa6e11b990f)" style="fill: none; stroke: #2c7fb8; stroke-width: 1.1; stroke-linejoin: miter"/>
   </g>
   <g id="patch_114">
    <path clip-path="url(#pa6e11b990f)" style="fill: none; stroke: #2c7fb8; stroke-width: 1.1; stroke-linejoin: miter"/>
   </g>
   <g id="patch_115">
    <path clip-path="url(#pa6e11b990f)" style="fill: none; stroke: #2c7fb8; stroke-width: 1.1; stroke-linejoin: miter"/>
   </g>
   <g id="patch_116">
    <path clip-path="url(#pa6e11b990f)" style="fill: none; stroke: #2c7fb8; stroke-width: 1.1; stroke-linejoin: miter"/>
   </g>
   <g id="patch_117">
    <path clip-path="url(#pa6e11b990f)" style="fill: none; stroke: #2c7fb8; stroke-width: 1.1; stroke-linejoin: miter"/>
   </g>
   <g id="patch_118">
    <path clip-path="url(#pa6e11b990f)" style="fill: none; stroke: #2c7fb8; stroke-width: 1.1; stroke-linejoin: miter"/>
   </g>
   <g id="patch_119">
    <path clip-path="url(#pa6e11b990f)" style="fill: none; stroke: #2c7fb8; stroke-width: 1.1; stroke-linejoin: miter"/>
   </g>
   <g id="patch_120">
    <path d="M 541.995559 302.894531 
L 548.638416 302.894531 
L 548.638416 294.149358 
L 541.995559 294.149358 
L 541.995559 302.894531 
z
" clip-path="url(#pa6e11b990f)" style="fill: none; stroke: #78c679; stroke-width: 1.1; stroke-linejoin: miter"/>
   </g>
   <g id="patch_121">
    <path d="M 555.281274 302.894531 
L 561.924131 302.894531 
L 561.924131 274.909975 
L 555.281274 274.909975 
L 555.281274 302.894531 
z
" clip-path="url(#pa6e11b990f)" style="fill: none; stroke: #78c679; stroke-width: 1.1; stroke-linejoin: miter"/>
   </g>
   <g id="patch_122">
    <path d="M 568.566988 302.894531 
L 575.209845 302.894531 
L 575.209845 198.826964 
L 568.566988 198.826964 
L 568.566988 302.894531 
z
" clip-path="url(#pa6e11b990f)" style="fill: none; stroke: #78c679; stroke-width: 1.1; stroke-linejoin: miter"/>
   </g>
   <g id="patch_123">
    <path d="M 581.852702 302.894531 
L 588.495559 302.894531 
L 588.495559 115.747813 
L 581.852702 115.747813 
L 581.852702 302.894531 
z
" clip-path="url(#pa6e11b990f)" style="fill: none; stroke: #78c679; stroke-width: 1.1; stroke-linejoin: miter"/>
   </g>
   <g id="patch_124">
    <path d="M 595.138416 302.894531 
L 601.781274 302.894531 
L 601.781274 44.037388 
L 595.138416 44.037388 
L 595.138416 302.894531 
z
" clip-path="url(#pa6e11b990f)" style="fill: none; stroke: #78c679; stroke-width: 1.1; stroke-linejoin: miter"/>
   </g>
   <g id="patch_125">
    <path d="M 608.424131 302.894531 
L 615.066988 302.894531 
L 615.066988 65.900323 
L 608.424131 65.900323 
L 608.424131 302.894531 
z
" clip-path="url(#pa6e11b990f)" style="fill: none; stroke: #78c679; stroke-width: 1.1; stroke-linejoin: miter"/>
   </g>
   <g id="patch_126">
    <path d="M 621.709845 302.894531 
L 628.352702 302.894531 
L 628.352702 113.124261 
L 621.709845 113.124261 
L 621.709845 302.894531 
z
" clip-path="url(#pa6e11b990f)" style="fill: none; stroke: #78c679; stroke-width: 1.1; stroke-linejoin: miter"/>
   </g>
   <g id="patch_127">
    <path d="M 634.995559 302.894531 
L 641.638416 302.894531 
L 641.638416 155.101095 
L 634.995559 155.101095 
L 634.995559 302.894531 
z
" clip-path="url(#pa6e11b990f)" style="fill: none; stroke: #78c679; stroke-width: 1.1; stroke-linejoin: miter"/>
   </g>
   <g id="patch_128">
    <path d="M 648.281274 302.894531 
L 654.924131 302.894531 
L 654.924131 197.077929 
L 648.281274 197.077929 
L 648.281274 302.894531 
z
" clip-path="url(#pa6e11b990f)" style="fill: none; stroke: #78c679; stroke-width: 1.1; stroke-linejoin: miter"/>
   </g>
   <g id="patch_129">
    <path d="M 661.566988 302.894531 
L 668.209845 302.894531 
L 668.209845 242.552832 
L 661.566988 242.552832 
L 661.566988 302.894531 
z
" clip-path="url(#pa6e11b990f)" style="fill: none; stroke: #78c679; stroke-width: 1.1; stroke-linejoin: miter"/>
   </g>
   <g id="patch_130">
    <path d="M 674.852702 302.894531 
L 681.495559 302.894531 
L 681.495559 258.294145 
L 674.852702 258.294145 
L 674.852702 302.894531 
z
" clip-path="url(#pa6e11b990f)" style="fill: none; stroke: #78c679; stroke-width: 1.1; stroke-linejoin: miter"/>
   </g>
   <g id="patch_131">
    <path d="M 688.138416 302.894531 
L 694.781274 302.894531 
L 694.781274 274.035458 
L 688.138416 274.035458 
L 688.138416 302.894531 
z
" clip-path="url(#pa6e11b990f)" style="fill: none; stroke: #78c679; stroke-width: 1.1; stroke-linejoin: miter"/>
   </g>
   <g id="patch_132">
    <path d="M 701.424131 302.894531 
L 708.066988 302.894531 
L 708.066988 286.278701 
L 701.424131 286.278701 
L 701.424131 302.894531 
z
" clip-path="url(#pa6e11b990f)" style="fill: none; stroke: #78c679; stroke-width: 1.1; stroke-linejoin: miter"/>
   </g>
   <g id="patch_133">
    <path d="M 714.709845 302.894531 
L 721.352702 302.894531 
L 721.352702 292.400323 
L 714.709845 292.400323 
L 714.709845 302.894531 
z
" clip-path="url(#pa6e11b990f)" style="fill: none; stroke: #78c679; stroke-width: 1.1; stroke-linejoin: miter"/>
   </g>
   <g id="patch_134">
    <path d="M 727.995559 302.894531 
L 734.638416 302.894531 
L 734.638416 296.77291 
L 727.995559 296.77291 
L 727.995559 302.894531 
z
" clip-path="url(#pa6e11b990f)" style="fill: none; stroke: #78c679; stroke-width: 1.1; stroke-linejoin: miter"/>
   </g>
   <g id="patch_135">
    <path d="M 741.281274 302.894531 
L 747.924131 302.894531 
L 747.924131 298.521944 
L 741.281274 298.521944 
L 741.281274 302.894531 
z
" clip-path="url(#pa6e11b990f)" style="fill: none; stroke: #78c679; stroke-width: 1.1; stroke-linejoin: miter"/>
   </g>
   <g id="patch_136">
    <path d="M 754.566988 302.894531 
L 761.209845 302.894531 
L 761.209845 296.77291 
L 754.566988 296.77291 
L 754.566988 302.894531 
z
" clip-path="url(#pa6e11b990f)" style="fill: none; stroke: #78c679; stroke-width: 1.1; stroke-linejoin: miter"/>
   </g>
   <g id="patch_137">
    <path d="M 767.852702 302.894531 
L 774.495559 302.894531 
L 774.495559 300.270979 
L 767.852702 300.270979 
L 767.852702 302.894531 
z
" clip-path="url(#pa6e11b990f)" style="fill: none; stroke: #78c679; stroke-width: 1.1; stroke-linejoin: miter"/>
   </g>
   <g id="patch_138">
    <path d="M 781.138416 302.894531 
L 787.781274 302.894531 
L 787.781274 302.020014 
L 781.138416 302.020014 
L 781.138416 302.894531 
z
" clip-path="url(#pa6e11b990f)" style="fill: none; stroke: #78c679; stroke-width: 1.1; stroke-linejoin: miter"/>
   </g>
   <g id="patch_139">
    <path d="M 794.424131 302.894531 
L 801.066988 302.894531 
L 801.066988 302.020014 
L 794.424131 302.020014 
L 794.424131 302.894531 
z
" clip-path="url(#pa6e11b990f)" style="fill: none; stroke: #78c679; stroke-width: 1.1; stroke-linejoin: miter"/>
   </g>
   <g id="patch_140">
    <path d="M 807.709845 302.894531 
L 814.352702 302.894531 
L 814.352702 302.020014 
L 807.709845 302.020014 
L 807.709845 302.894531 
z
" clip-path="url(#pa6e11b990f)" style="fill: none; stroke: #78c679; stroke-width: 1.1; stroke-linejoin: miter"/>
   </g>
   <g id="patch_141">
    <path d="M 820.995559 302.894531 
L 827.638416 302.894531 
L 827.638416 301.145497 
L 820.995559 301.145497 
L 820.995559 302.894531 
z
" clip-path="url(#pa6e11b990f)" style="fill: none; stroke: #78c679; stroke-width: 1.1; stroke-linejoin: miter"/>
   </g>
   <g id="patch_142">
    <path d="M 834.281274 302.894531 
L 840.924131 302.894531 
L 840.924131 302.894531 
L 834.281274 302.894531 
L 834.281274 302.894531 
z
" clip-path="url(#pa6e11b990f)" style="fill: none; stroke: #78c679; stroke-width: 1.1; stroke-linejoin: miter"/>
   </g>
   <g id="patch_143">
    <path d="M 847.566988 302.894531 
L 854.209845 302.894531 
L 854.209845 302.020014 
L 847.566988 302.020014 
L 847.566988 302.894531 
z
" clip-path="url(#pa6e11b990f)" style="fill: none; stroke: #78c679; stroke-width: 1.1; stroke-linejoin: miter"/>
   </g>
   <g id="patch_144">
    <path d="M 860.852702 302.894531 
L 867.495559 302.894531 
L 867.495559 302.894531 
L 860.852702 302.894531 
L 860.852702 302.894531 
z
" clip-path="url(#pa6e11b990f)" style="fill: none; stroke: #78c679; stroke-width: 1.1; stroke-linejoin: miter"/>
   </g>
   <g id="patch_145">
    <path d="M 874.138416 302.894531 
L 880.781274 302.894531 
L 880.781274 302.894531 
L 874.138416 302.894531 
L 874.138416 302.894531 
z
" clip-path="url(#pa6e11b990f)" style="fill: none; stroke: #78c679; stroke-width: 1.1; stroke-linejoin: miter"/>
   </g>
   <g id="patch_146">
    <path d="M 887.424131 302.894531 
L 894.066988 302.894531 
L 894.066988 302.894531 
L 887.424131 302.894531 
L 887.424131 302.894531 
z
" clip-path="url(#pa6e11b990f)" style="fill: none; stroke: #78c679; stroke-width: 1.1; stroke-linejoin: miter"/>
   </g>
   <g id="patch_147">
    <path d="M 900.709845 302.894531 
L 907.352702 302.894531 
L 907.352702 302.894531 
L 900.709845 302.894531 
L 900.709845 302.894531 
z
" clip-path="url(#pa6e11b990f)" style="fill: none; stroke: #78c679; stroke-width: 1.1; stroke-linejoin: miter"/>
   </g>
   <g id="patch_148">
    <path d="M 913.995559 302.894531 
L 920.638416 302.894531 
L 920.638416 302.894531 
L 913.995559 302.894531 
L 913.995559 302.894531 
z
" clip-path="url(#pa6e11b990f)" style="fill: none; stroke: #78c679; stroke-width: 1.1; stroke-linejoin: miter"/>
   </g>
   <g id="patch_149">
    <path clip-path="url(#pa6e11b990f)" style="fill: none; stroke: #78c679; stroke-width: 1.1; stroke-linejoin: miter"/>
   </g>
   <g id="patch_150">
    <path clip-path="url(#pa6e11b990f)" style="fill: none; stroke: #78c679; stroke-width: 1.1; stroke-linejoin: miter"/>
   </g>
   <g id="patch_151">
    <path clip-path="url(#pa6e11b990f)" style="fill: none; stroke: #78c679; stroke-width: 1.1; stroke-linejoin: miter"/>
   </g>
   <g id="patch_152">
    <path clip-path="url(#pa6e11b990f)" style="fill: none; stroke: #78c679; stroke-width: 1.1; stroke-linejoin: miter"/>
   </g>
   <g id="patch_153">
    <path clip-path="url(#pa6e11b990f)" style="fill: none; stroke: #78c679; stroke-width: 1.1; stroke-linejoin: miter"/>
   </g>
   <g id="patch_154">
    <path clip-path="url(#pa6e11b990f)" style="fill: none; stroke: #78c679; stroke-width: 1.1; stroke-linejoin: miter"/>
   </g>
   <g id="patch_155">
    <path clip-path="url(#pa6e11b990f)" style="fill: none; stroke: #78c679; stroke-width: 1.1; stroke-linejoin: miter"/>
   </g>
   <g id="patch_156">
    <path clip-path="url(#pa6e11b990f)" style="fill: none; stroke: #78c679; stroke-width: 1.1; stroke-linejoin: miter"/>
   </g>
   <g id="patch_157">
    <path clip-path="url(#pa6e11b990f)" style="fill: none; stroke: #78c679; stroke-width: 1.1; stroke-linejoin: miter"/>
   </g>
   <g id="matplotlib.axis_3">
    <g id="xtick_8">
     <g id="line2d_14">
      <g>
       <use xlink:href="#m9af0d7f3d7" x="510.428571" y="302.894531" style="stroke: #000000; stroke-width: 0.8"/>
      </g>
     </g>
     <g id="text_16">
      <!-- 0 -->
      <g transform="translate(504.066071 325.091406) scale(0.2 -0.2)">
       <use xlink:href="#DejaVuSans-30"/>
      </g>
     </g>
    </g>
    <g id="xtick_9">
     <g id="line2d_15">
      <g>
       <use xlink:href="#m9af0d7f3d7" x="576.857143" y="302.894531" style="stroke: #000000; stroke-width: 0.8"/>
      </g>
     </g>
     <g id="text_17">
      <!-- 1 -->
      <g transform="translate(570.494643 325.091406) scale(0.2 -0.2)">
       <use xlink:href="#DejaVuSans-31"/>
      </g>
     </g>
    </g>
    <g id="xtick_10">
     <g id="line2d_16">
      <g>
       <use xlink:href="#m9af0d7f3d7" x="643.285714" y="302.894531" style="stroke: #000000; stroke-width: 0.8"/>
      </g>
     </g>
     <g id="text_18">
      <!-- 2 -->
      <g transform="translate(636.923214 325.091406) scale(0.2 -0.2)">
       <use xlink:href="#DejaVuSans-32"/>
      </g>
     </g>
    </g>
    <g id="xtick_11">
     <g id="line2d_17">
      <g>
       <use xlink:href="#m9af0d7f3d7" x="709.714286" y="302.894531" style="stroke: #000000; stroke-width: 0.8"/>
      </g>
     </g>
     <g id="text_19">
      <!-- 3 -->
      <g transform="translate(703.351786 325.091406) scale(0.2 -0.2)">
       <use xlink:href="#DejaVuSans-33"/>
      </g>
     </g>
    </g>
    <g id="xtick_12">
     <g id="line2d_18">
      <g>
       <use xlink:href="#m9af0d7f3d7" x="776.142857" y="302.894531" style="stroke: #000000; stroke-width: 0.8"/>
      </g>
     </g>
     <g id="text_20">
      <!-- 4 -->
      <g transform="translate(769.780357 325.091406) scale(0.2 -0.2)">
       <use xlink:href="#DejaVuSans-34"/>
      </g>
     </g>
    </g>
    <g id="xtick_13">
     <g id="line2d_19">
      <g>
       <use xlink:href="#m9af0d7f3d7" x="842.571429" y="302.894531" style="stroke: #000000; stroke-width: 0.8"/>
      </g>
     </g>
     <g id="text_21">
      <!-- 5 -->
      <g transform="translate(836.208929 325.091406) scale(0.2 -0.2)">
       <use xlink:href="#DejaVuSans-35"/>
      </g>
     </g>
    </g>
    <g id="xtick_14">
     <g id="line2d_20">
      <g>
       <use xlink:href="#m9af0d7f3d7" x="909" y="302.894531" style="stroke: #000000; stroke-width: 0.8"/>
      </g>
     </g>
     <g id="text_22">
      <!-- 6 -->
      <g transform="translate(902.6375 325.091406) scale(0.2 -0.2)">
       <use xlink:href="#DejaVuSans-36"/>
      </g>
     </g>
    </g>
    <g id="text_23">
     <!--    -->
     <g transform="translate(703.358036 348.447656) scale(0.2 -0.2)">
      <use xlink:href="#DejaVuSans-20"/>
      <use xlink:href="#DejaVuSans-20" x="31.787109"/>
     </g>
    </g>
   </g>
   <g id="matplotlib.axis_4">
    <g id="ytick_5">
     <g id="line2d_21">
      <g>
       <use xlink:href="#m81913270ea" x="510.428571" y="302.894531" style="stroke: #000000; stroke-width: 0.8"/>
      </g>
     </g>
     <g id="text_24">
      <!-- 0 -->
      <g transform="translate(490.703571 310.492969) scale(0.2 -0.2)">
       <use xlink:href="#DejaVuSans-30"/>
      </g>
     </g>
    </g>
    <g id="ytick_6">
     <g id="line2d_22">
      <g>
       <use xlink:href="#m81913270ea" x="510.428571" y="230.134686" style="stroke: #000000; stroke-width: 0.8"/>
      </g>
     </g>
     <g id="text_25">
      <!-- 5 -->
      <g transform="translate(490.703571 237.733123) scale(0.2 -0.2)">
       <use xlink:href="#DejaVuSans-35"/>
      </g>
     </g>
    </g>
    <g id="ytick_7">
     <g id="line2d_23">
      <g>
       <use xlink:href="#m81913270ea" x="510.428571" y="157.37484" style="stroke: #000000; stroke-width: 0.8"/>
      </g>
     </g>
     <g id="text_26">
      <!-- 10 -->
      <g transform="translate(477.978571 164.973278) scale(0.2 -0.2)">
       <use xlink:href="#DejaVuSans-31"/>
       <use xlink:href="#DejaVuSans-30" x="63.623047"/>
      </g>
     </g>
    </g>
    <g id="ytick_8">
     <g id="line2d_24">
      <g>
       <use xlink:href="#m81913270ea" x="510.428571" y="84.614995" style="stroke: #000000; stroke-width: 0.8"/>
      </g>
     </g>
     <g id="text_27">
      <!-- 15 -->
      <g transform="translate(477.978571 92.213432) scale(0.2 -0.2)">
       <use xlink:href="#DejaVuSans-31"/>
       <use xlink:href="#DejaVuSans-35" x="63.623047"/>
      </g>
     </g>
    </g>
    <g id="text_28">
     <!--    -->
     <g transform="translate(469.819196 173.350781) rotate(-90) scale(0.2 -0.2)">
      <use xlink:href="#DejaVuSans-20"/>
      <use xlink:href="#DejaVuSans-20" x="31.787109"/>
     </g>
    </g>
   </g>
   <g id="line2d_25">
    <path d="M 541.995559 298.665207 
L 544.501321 297.482246 
L 547.007083 295.992271 
L 549.512846 294.118766 
L 552.018608 291.775794 
L 554.52437 288.872308 
L 557.030132 285.317736 
L 559.535894 281.028132 
L 562.041656 275.932155 
L 564.547418 269.976289 
L 567.053181 263.128988 
L 569.558943 255.383789 
L 572.064705 246.76161 
L 574.570467 237.312493 
L 577.076229 227.116837 
L 579.581991 216.285878 
L 584.593515 193.310046 
L 592.110802 158.369631 
L 594.616564 147.417862 
L 597.122326 137.145074 
L 599.628088 127.725005 
L 602.13385 119.306608 
L 604.639612 112.010254 
L 607.145375 105.92454 
L 609.651137 101.103311 
L 612.156899 97.56329 
L 614.662661 95.283483 
L 617.168423 94.207843 
L 619.674185 94.252123 
L 622.179947 95.314579 
L 624.685709 97.288596 
L 627.191472 100.074177 
L 629.697234 103.585123 
L 632.202996 107.749891 
L 634.708758 112.506155 
L 637.21452 117.791403 
L 639.720282 123.533492 
L 644.731806 136.027121 
L 654.754855 162.468694 
L 662.272141 182.717316 
L 667.283666 197.168332 
L 679.812476 235.027108 
L 682.318238 241.720971 
L 684.824001 247.760542 
L 687.329763 253.071867 
L 689.835525 257.638128 
L 692.341287 261.492306 
L 694.847049 264.703654 
L 697.352811 267.362334 
L 699.858573 269.565919 
L 702.364335 271.409902 
L 704.870098 272.982494 
L 709.881622 275.619121 
L 732.433481 286.251585 
L 737.445005 288.051894 
L 742.456529 289.44565 
L 747.468054 290.582308 
L 754.98534 292.046468 
L 759.996864 292.793939 
L 765.008389 293.2342 
L 777.537199 293.793195 
L 780.042961 294.115249 
L 782.548723 294.572609 
L 787.560248 295.843669 
L 795.077534 298.049195 
L 800.089058 299.21832 
L 805.100583 299.986585 
L 810.112107 300.469254 
L 825.14668 301.739338 
L 832.663966 302.340259 
L 840.181252 302.69863 
L 850.204301 302.864529 
L 877.767684 302.894522 
L 923.5625 302.894531 
L 923.5625 302.894531 
" clip-path="url(#pa6e11b990f)" style="fill: none; stroke: #2c7fb8; stroke-width: 4; stroke-linecap: square"/>
   </g>
   <g id="line2d_26">
    <path d="M 541.995559 298.343463 
L 544.501321 296.665282 
L 547.007083 294.509979 
L 549.512846 291.729905 
L 552.018608 288.133439 
L 554.52437 283.500778 
L 557.030132 277.614969 
L 559.535894 270.301335 
L 562.041656 261.464542 
L 564.547418 251.112646 
L 567.053181 239.361409 
L 569.558943 226.41827 
L 572.064705 212.55165 
L 577.076229 183.220337 
L 582.087753 153.582903 
L 587.099278 125.501784 
L 589.60504 112.54444 
L 592.110802 100.557029 
L 594.616564 89.731573 
L 597.122326 80.281359 
L 599.628088 72.447676 
L 602.13385 66.488105 
L 604.639612 62.63932 
L 607.145375 61.058589 
L 609.651137 61.761956 
L 612.156899 64.585896 
L 614.662661 69.195875 
L 617.168423 75.148186 
L 619.674185 81.987756 
L 624.685709 97.007647 
L 629.697234 113.09865 
L 632.202996 121.657077 
L 637.21452 139.938949 
L 644.731806 168.158368 
L 647.237569 176.902749 
L 649.743331 185.068909 
L 652.249093 192.66616 
L 657.260617 206.651788 
L 664.777903 226.541411 
L 667.283666 232.850273 
L 669.789428 238.734234 
L 672.29519 244.018192 
L 674.800952 248.606782 
L 677.306714 252.519058 
L 679.812476 255.883411 
L 684.824001 261.775212 
L 689.835525 267.705259 
L 697.352811 276.987513 
L 699.858573 279.741454 
L 702.364335 282.143807 
L 704.870098 284.168527 
L 707.37586 285.850703 
L 709.881622 287.26356 
L 714.893146 289.595517 
L 719.90467 291.592531 
L 724.916195 293.321619 
L 729.927719 294.695379 
L 734.939243 295.737374 
L 742.456529 297.023618 
L 747.468054 297.717161 
L 752.479578 298.098419 
L 762.502626 298.405949 
L 767.514151 298.939008 
L 780.042961 300.77533 
L 785.054486 301.21172 
L 795.077534 301.718603 
L 802.594821 302.028983 
L 807.606345 302.053023 
L 815.123631 301.733085 
L 820.135155 301.5357 
L 825.14668 301.570134 
L 845.192777 302.32054 
L 855.215825 302.510348 
L 867.744636 302.836811 
L 882.779209 302.893961 
L 923.5625 302.894531 
L 923.5625 302.894531 
" clip-path="url(#pa6e11b990f)" style="fill: none; stroke: #78c679; stroke-width: 4; stroke-linecap: square"/>
   </g>
   <g id="patch_158">
    <path d="M 510.428571 302.894531 
L 510.428571 31.094531 
" style="fill: none; stroke: #000000; stroke-width: 0.8; stroke-linejoin: miter; stroke-linecap: square"/>
   </g>
   <g id="patch_159">
    <path d="M 510.428571 302.894531 
L 909 302.894531 
" style="fill: none; stroke: #000000; stroke-width: 0.8; stroke-linejoin: miter; stroke-linecap: square"/>
   </g>
   <g id="text_29">
    <!-- p &lt; 0.001 -->
    <g transform="translate(709.714286 201.030747) scale(0.2 -0.2)">
     <defs>
      <path id="ArialMT-3c" d="M 350 2003 
L 350 2528 
L 3384 3809 
L 3384 3250 
L 978 2263 
L 3384 1266 
L 3384 706 
L 350 2003 
z
" transform="scale(0.015625)"/>
      <path id="ArialMT-31" d="M 2384 0 
L 1822 0 
L 1822 3584 
Q 1619 3391 1289 3197 
Q 959 3003 697 2906 
L 697 3450 
Q 1169 3672 1522 3987 
Q 1875 4303 2022 4600 
L 2384 4600 
L 2384 0 
z
" transform="scale(0.015625)"/>
     </defs>
     <use xlink:href="#ArialMT-70"/>
     <use xlink:href="#ArialMT-20" x="55.615234"/>
     <use xlink:href="#ArialMT-3c" x="83.398438"/>
     <use xlink:href="#ArialMT-20" x="141.796875"/>
     <use xlink:href="#ArialMT-30" x="169.580078"/>
     <use xlink:href="#ArialMT-2e" x="225.195312"/>
     <use xlink:href="#ArialMT-30" x="252.978516"/>
     <use xlink:href="#ArialMT-30" x="308.59375"/>
     <use xlink:href="#ArialMT-31" x="364.208984"/>
    </g>
   </g>
   <g id="text_30">
    <!-- PO -->
    <g transform="translate(691.653739 25.094531) scale(0.25 -0.25)">
     <defs>
      <path id="Arial-BoldMT-4f" d="M 278 2263 
Q 278 2963 488 3438 
Q 644 3788 914 4066 
Q 1184 4344 1506 4478 
Q 1934 4659 2494 4659 
Q 3506 4659 4114 4031 
Q 4722 3403 4722 2284 
Q 4722 1175 4119 548 
Q 3516 -78 2506 -78 
Q 1484 -78 881 545 
Q 278 1169 278 2263 
z
M 1231 2294 
Q 1231 1516 1590 1114 
Q 1950 713 2503 713 
Q 3056 713 3411 1111 
Q 3766 1509 3766 2306 
Q 3766 3094 3420 3481 
Q 3075 3869 2503 3869 
Q 1931 3869 1581 3476 
Q 1231 3084 1231 2294 
z
" transform="scale(0.015625)"/>
     </defs>
     <use xlink:href="#Arial-BoldMT-50"/>
     <use xlink:href="#Arial-BoldMT-4f" x="66.699219"/>
    </g>
   </g>
   <g id="legend_1">
    <g id="patch_160">
     <path d="M 784.935 98.335781 
L 896.4 98.335781 
Q 900 98.335781 900 94.735781 
L 900 43.694531 
Q 900 40.094531 896.4 40.094531 
L 784.935 40.094531 
Q 781.335 40.094531 781.335 43.694531 
L 781.335 94.735781 
Q 781.335 98.335781 784.935 98.335781 
z
" style="fill: #ffffff; opacity: 0.8; stroke: #cccccc; stroke-linejoin: miter"/>
    </g>
    <g id="line2d_27">
     <path d="M 788.535 54.671719 
L 806.535 54.671719 
L 824.535 54.671719 
" style="fill: none; stroke: #2c7fb8; stroke-width: 4; stroke-linecap: square"/>
    </g>
    <g id="text_31">
     <!-- Old -->
     <g transform="translate(838.935 60.971719) scale(0.18 -0.18)">
      <defs>
       <path id="DejaVuSans-4f" d="M 2522 4238 
Q 1834 4238 1429 3725 
Q 1025 3213 1025 2328 
Q 1025 1447 1429 934 
Q 1834 422 2522 422 
Q 3209 422 3611 934 
Q 4013 1447 4013 2328 
Q 4013 3213 3611 3725 
Q 3209 4238 2522 4238 
z
M 2522 4750 
Q 3503 4750 4090 4092 
Q 4678 3434 4678 2328 
Q 4678 1225 4090 567 
Q 3503 -91 2522 -91 
Q 1538 -91 948 565 
Q 359 1222 359 2328 
Q 359 3434 948 4092 
Q 1538 4750 2522 4750 
z
" transform="scale(0.015625)"/>
       <path id="DejaVuSans-6c" d="M 603 4863 
L 1178 4863 
L 1178 0 
L 603 0 
L 603 4863 
z
" transform="scale(0.015625)"/>
       <path id="DejaVuSans-64" d="M 2906 2969 
L 2906 4863 
L 3481 4863 
L 3481 0 
L 2906 0 
L 2906 525 
Q 2725 213 2448 61 
Q 2172 -91 1784 -91 
Q 1150 -91 751 415 
Q 353 922 353 1747 
Q 353 2572 751 3078 
Q 1150 3584 1784 3584 
Q 2172 3584 2448 3432 
Q 2725 3281 2906 2969 
z
M 947 1747 
Q 947 1113 1208 752 
Q 1469 391 1925 391 
Q 2381 391 2643 752 
Q 2906 1113 2906 1747 
Q 2906 2381 2643 2742 
Q 2381 3103 1925 3103 
Q 1469 3103 1208 2742 
Q 947 2381 947 1747 
z
" transform="scale(0.015625)"/>
      </defs>
      <use xlink:href="#DejaVuSans-4f"/>
      <use xlink:href="#DejaVuSans-6c" x="78.710938"/>
      <use xlink:href="#DejaVuSans-64" x="106.494141"/>
     </g>
    </g>
    <g id="line2d_28">
     <path d="M 788.535 81.092344 
L 806.535 81.092344 
L 824.535 81.092344 
" style="fill: none; stroke: #78c679; stroke-width: 4; stroke-linecap: square"/>
    </g>
    <g id="text_32">
     <!-- Young -->
     <g transform="translate(838.935 87.392344) scale(0.18 -0.18)">
      <defs>
       <path id="DejaVuSans-59" d="M -13 4666 
L 666 4666 
L 1959 2747 
L 3244 4666 
L 3922 4666 
L 2272 2222 
L 2272 0 
L 1638 0 
L 1638 2222 
L -13 4666 
z
" transform="scale(0.015625)"/>
       <path id="DejaVuSans-6f" d="M 1959 3097 
Q 1497 3097 1228 2736 
Q 959 2375 959 1747 
Q 959 1119 1226 758 
Q 1494 397 1959 397 
Q 2419 397 2687 759 
Q 2956 1122 2956 1747 
Q 2956 2369 2687 2733 
Q 2419 3097 1959 3097 
z
M 1959 3584 
Q 2709 3584 3137 3096 
Q 3566 2609 3566 1747 
Q 3566 888 3137 398 
Q 2709 -91 1959 -91 
Q 1206 -91 779 398 
Q 353 888 353 1747 
Q 353 2609 779 3096 
Q 1206 3584 1959 3584 
z
" transform="scale(0.015625)"/>
       <path id="DejaVuSans-75" d="M 544 1381 
L 544 3500 
L 1119 3500 
L 1119 1403 
Q 1119 906 1312 657 
Q 1506 409 1894 409 
Q 2359 409 2629 706 
Q 2900 1003 2900 1516 
L 2900 3500 
L 3475 3500 
L 3475 0 
L 2900 0 
L 2900 538 
Q 2691 219 2414 64 
Q 2138 -91 1772 -91 
Q 1169 -91 856 284 
Q 544 659 544 1381 
z
M 1991 3584 
L 1991 3584 
z
" transform="scale(0.015625)"/>
       <path id="DejaVuSans-6e" d="M 3513 2113 
L 3513 0 
L 2938 0 
L 2938 2094 
Q 2938 2591 2744 2837 
Q 2550 3084 2163 3084 
Q 1697 3084 1428 2787 
Q 1159 2491 1159 1978 
L 1159 0 
L 581 0 
L 581 3500 
L 1159 3500 
L 1159 2956 
Q 1366 3272 1645 3428 
Q 1925 3584 2291 3584 
Q 2894 3584 3203 3211 
Q 3513 2838 3513 2113 
z
" transform="scale(0.015625)"/>
       <path id="DejaVuSans-67" d="M 2906 1791 
Q 2906 2416 2648 2759 
Q 2391 3103 1925 3103 
Q 1463 3103 1205 2759 
Q 947 2416 947 1791 
Q 947 1169 1205 825 
Q 1463 481 1925 481 
Q 2391 481 2648 825 
Q 2906 1169 2906 1791 
z
M 3481 434 
Q 3481 -459 3084 -895 
Q 2688 -1331 1869 -1331 
Q 1566 -1331 1297 -1286 
Q 1028 -1241 775 -1147 
L 775 -588 
Q 1028 -725 1275 -790 
Q 1522 -856 1778 -856 
Q 2344 -856 2625 -561 
Q 2906 -266 2906 331 
L 2906 616 
Q 2728 306 2450 153 
Q 2172 0 1784 0 
Q 1141 0 747 490 
Q 353 981 353 1791 
Q 353 2603 747 3093 
Q 1141 3584 1784 3584 
Q 2172 3584 2450 3431 
Q 2728 3278 2906 2969 
L 2906 3500 
L 3481 3500 
L 3481 434 
z
" transform="scale(0.015625)"/>
      </defs>
      <use xlink:href="#DejaVuSans-59"/>
      <use xlink:href="#DejaVuSans-6f" x="47.833984"/>
      <use xlink:href="#DejaVuSans-75" x="109.015625"/>
      <use xlink:href="#DejaVuSans-6e" x="172.394531"/>
      <use xlink:href="#DejaVuSans-67" x="235.773438"/>
     </g>
    </g>
   </g>
  </g>
  <g id="text_33">
   <!-- Percentage of neurons -->
   <g transform="translate(25.399219 303.333984) rotate(-90) scale(0.25 -0.25)">
    <defs>
     <path id="Arial-BoldMT-65" d="M 2381 1056 
L 3256 909 
Q 3088 428 2723 176 
Q 2359 -75 1813 -75 
Q 947 -75 531 491 
Q 203 944 203 1634 
Q 203 2459 634 2926 
Q 1066 3394 1725 3394 
Q 2466 3394 2894 2905 
Q 3322 2416 3303 1406 
L 1103 1406 
Q 1113 1016 1316 798 
Q 1519 581 1822 581 
Q 2028 581 2168 693 
Q 2309 806 2381 1056 
z
M 2431 1944 
Q 2422 2325 2234 2523 
Q 2047 2722 1778 2722 
Q 1491 2722 1303 2513 
Q 1116 2303 1119 1944 
L 2431 1944 
z
" transform="scale(0.015625)"/>
     <path id="Arial-BoldMT-72" d="M 1300 0 
L 422 0 
L 422 3319 
L 1238 3319 
L 1238 2847 
Q 1447 3181 1614 3287 
Q 1781 3394 1994 3394 
Q 2294 3394 2572 3228 
L 2300 2463 
Q 2078 2606 1888 2606 
Q 1703 2606 1575 2504 
Q 1447 2403 1373 2137 
Q 1300 1872 1300 1025 
L 1300 0 
z
" transform="scale(0.015625)"/>
     <path id="Arial-BoldMT-63" d="M 3353 2338 
L 2488 2181 
Q 2444 2441 2289 2572 
Q 2134 2703 1888 2703 
Q 1559 2703 1364 2476 
Q 1169 2250 1169 1719 
Q 1169 1128 1367 884 
Q 1566 641 1900 641 
Q 2150 641 2309 783 
Q 2469 925 2534 1272 
L 3397 1125 
Q 3263 531 2881 228 
Q 2500 -75 1859 -75 
Q 1131 -75 698 384 
Q 266 844 266 1656 
Q 266 2478 700 2936 
Q 1134 3394 1875 3394 
Q 2481 3394 2839 3133 
Q 3197 2872 3353 2338 
z
" transform="scale(0.015625)"/>
     <path id="Arial-BoldMT-6e" d="M 3478 0 
L 2600 0 
L 2600 1694 
Q 2600 2231 2544 2389 
Q 2488 2547 2361 2634 
Q 2234 2722 2056 2722 
Q 1828 2722 1647 2597 
Q 1466 2472 1398 2265 
Q 1331 2059 1331 1503 
L 1331 0 
L 453 0 
L 453 3319 
L 1269 3319 
L 1269 2831 
Q 1703 3394 2363 3394 
Q 2653 3394 2893 3289 
Q 3134 3184 3257 3021 
Q 3381 2859 3429 2653 
Q 3478 2447 3478 2063 
L 3478 0 
z
" transform="scale(0.015625)"/>
     <path id="Arial-BoldMT-74" d="M 1981 3319 
L 1981 2619 
L 1381 2619 
L 1381 1281 
Q 1381 875 1398 808 
Q 1416 741 1477 697 
Q 1538 653 1625 653 
Q 1747 653 1978 738 
L 2053 56 
Q 1747 -75 1359 -75 
Q 1122 -75 931 4 
Q 741 84 652 211 
Q 563 338 528 553 
Q 500 706 500 1172 
L 500 2619 
L 97 2619 
L 97 3319 
L 500 3319 
L 500 3978 
L 1381 4491 
L 1381 3319 
L 1981 3319 
z
" transform="scale(0.015625)"/>
     <path id="Arial-BoldMT-61" d="M 1116 2306 
L 319 2450 
Q 453 2931 781 3162 
Q 1109 3394 1756 3394 
Q 2344 3394 2631 3255 
Q 2919 3116 3036 2902 
Q 3153 2688 3153 2116 
L 3144 1091 
Q 3144 653 3186 445 
Q 3228 238 3344 0 
L 2475 0 
Q 2441 88 2391 259 
Q 2369 338 2359 363 
Q 2134 144 1878 34 
Q 1622 -75 1331 -75 
Q 819 -75 523 203 
Q 228 481 228 906 
Q 228 1188 362 1408 
Q 497 1628 739 1745 
Q 981 1863 1438 1950 
Q 2053 2066 2291 2166 
L 2291 2253 
Q 2291 2506 2166 2614 
Q 2041 2722 1694 2722 
Q 1459 2722 1328 2630 
Q 1197 2538 1116 2306 
z
M 2291 1594 
Q 2122 1538 1756 1459 
Q 1391 1381 1278 1306 
Q 1106 1184 1106 997 
Q 1106 813 1243 678 
Q 1381 544 1594 544 
Q 1831 544 2047 700 
Q 2206 819 2256 991 
Q 2291 1103 2291 1419 
L 2291 1594 
z
" transform="scale(0.015625)"/>
     <path id="Arial-BoldMT-67" d="M 378 -219 
L 1381 -341 
Q 1406 -516 1497 -581 
Q 1622 -675 1891 -675 
Q 2234 -675 2406 -572 
Q 2522 -503 2581 -350 
Q 2622 -241 2622 53 
L 2622 538 
Q 2228 0 1628 0 
Q 959 0 569 566 
Q 263 1013 263 1678 
Q 263 2513 664 2953 
Q 1066 3394 1663 3394 
Q 2278 3394 2678 2853 
L 2678 3319 
L 3500 3319 
L 3500 341 
Q 3500 -247 3403 -537 
Q 3306 -828 3131 -993 
Q 2956 -1159 2664 -1253 
Q 2372 -1347 1925 -1347 
Q 1081 -1347 728 -1058 
Q 375 -769 375 -325 
Q 375 -281 378 -219 
z
M 1163 1728 
Q 1163 1200 1367 954 
Q 1572 709 1872 709 
Q 2194 709 2416 961 
Q 2638 1213 2638 1706 
Q 2638 2222 2425 2472 
Q 2213 2722 1888 2722 
Q 1572 2722 1367 2476 
Q 1163 2231 1163 1728 
z
" transform="scale(0.015625)"/>
     <path id="Arial-BoldMT-20" transform="scale(0.015625)"/>
     <path id="Arial-BoldMT-6f" d="M 256 1706 
Q 256 2144 472 2553 
Q 688 2963 1083 3178 
Q 1478 3394 1966 3394 
Q 2719 3394 3200 2905 
Q 3681 2416 3681 1669 
Q 3681 916 3195 420 
Q 2709 -75 1972 -75 
Q 1516 -75 1102 131 
Q 688 338 472 736 
Q 256 1134 256 1706 
z
M 1156 1659 
Q 1156 1166 1390 903 
Q 1625 641 1969 641 
Q 2313 641 2545 903 
Q 2778 1166 2778 1666 
Q 2778 2153 2545 2415 
Q 2313 2678 1969 2678 
Q 1625 2678 1390 2415 
Q 1156 2153 1156 1659 
z
" transform="scale(0.015625)"/>
     <path id="Arial-BoldMT-66" d="M 75 3319 
L 563 3319 
L 563 3569 
Q 563 3988 652 4194 
Q 741 4400 980 4529 
Q 1219 4659 1584 4659 
Q 1959 4659 2319 4547 
L 2200 3934 
Q 1991 3984 1797 3984 
Q 1606 3984 1523 3895 
Q 1441 3806 1441 3553 
L 1441 3319 
L 2097 3319 
L 2097 2628 
L 1441 2628 
L 1441 0 
L 563 0 
L 563 2628 
L 75 2628 
L 75 3319 
z
" transform="scale(0.015625)"/>
     <path id="Arial-BoldMT-75" d="M 2644 0 
L 2644 497 
Q 2463 231 2167 78 
Q 1872 -75 1544 -75 
Q 1209 -75 943 72 
Q 678 219 559 484 
Q 441 750 441 1219 
L 441 3319 
L 1319 3319 
L 1319 1794 
Q 1319 1094 1367 936 
Q 1416 778 1544 686 
Q 1672 594 1869 594 
Q 2094 594 2272 717 
Q 2450 841 2515 1023 
Q 2581 1206 2581 1919 
L 2581 3319 
L 3459 3319 
L 3459 0 
L 2644 0 
z
" transform="scale(0.015625)"/>
     <path id="Arial-BoldMT-73" d="M 150 947 
L 1031 1081 
Q 1088 825 1259 692 
Q 1431 559 1741 559 
Q 2081 559 2253 684 
Q 2369 772 2369 919 
Q 2369 1019 2306 1084 
Q 2241 1147 2013 1200 
Q 950 1434 666 1628 
Q 272 1897 272 2375 
Q 272 2806 612 3100 
Q 953 3394 1669 3394 
Q 2350 3394 2681 3172 
Q 3013 2950 3138 2516 
L 2309 2363 
Q 2256 2556 2107 2659 
Q 1959 2763 1684 2763 
Q 1338 2763 1188 2666 
Q 1088 2597 1088 2488 
Q 1088 2394 1175 2328 
Q 1294 2241 1995 2081 
Q 2697 1922 2975 1691 
Q 3250 1456 3250 1038 
Q 3250 581 2869 253 
Q 2488 -75 1741 -75 
Q 1063 -75 667 200 
Q 272 475 150 947 
z
" transform="scale(0.015625)"/>
    </defs>
    <use xlink:href="#Arial-BoldMT-50"/>
    <use xlink:href="#Arial-BoldMT-65" x="66.699219"/>
    <use xlink:href="#Arial-BoldMT-72" x="122.314453"/>
    <use xlink:href="#Arial-BoldMT-63" x="161.230469"/>
    <use xlink:href="#Arial-BoldMT-65" x="216.845703"/>
    <use xlink:href="#Arial-BoldMT-6e" x="272.460938"/>
    <use xlink:href="#Arial-BoldMT-74" x="333.544922"/>
    <use xlink:href="#Arial-BoldMT-61" x="366.845703"/>
    <use xlink:href="#Arial-BoldMT-67" x="422.460938"/>
    <use xlink:href="#Arial-BoldMT-65" x="483.544922"/>
    <use xlink:href="#Arial-BoldMT-20" x="539.160156"/>
    <use xlink:href="#Arial-BoldMT-6f" x="566.943359"/>
    <use xlink:href="#Arial-BoldMT-66" x="628.027344"/>
    <use xlink:href="#Arial-BoldMT-20" x="661.328125"/>
    <use xlink:href="#Arial-BoldMT-6e" x="689.111328"/>
    <use xlink:href="#Arial-BoldMT-65" x="750.195312"/>
    <use xlink:href="#Arial-BoldMT-75" x="805.810547"/>
    <use xlink:href="#Arial-BoldMT-72" x="866.894531"/>
    <use xlink:href="#Arial-BoldMT-6f" x="905.810547"/>
    <use xlink:href="#Arial-BoldMT-6e" x="966.894531"/>
    <use xlink:href="#Arial-BoldMT-73" x="1027.978516"/>
   </g>
  </g>
  <g id="text_34">
   <!-- Fano Factor -->
   <g transform="translate(405.472656 360.960937) scale(0.25 -0.25)">
    <defs>
     <path id="Arial-BoldMT-46" d="M 472 0 
L 472 4581 
L 3613 4581 
L 3613 3806 
L 1397 3806 
L 1397 2722 
L 3309 2722 
L 3309 1947 
L 1397 1947 
L 1397 0 
L 472 0 
z
" transform="scale(0.015625)"/>
    </defs>
    <use xlink:href="#Arial-BoldMT-46"/>
    <use xlink:href="#Arial-BoldMT-61" x="61.083984"/>
    <use xlink:href="#Arial-BoldMT-6e" x="116.699219"/>
    <use xlink:href="#Arial-BoldMT-6f" x="177.783203"/>
    <use xlink:href="#Arial-BoldMT-20" x="238.867188"/>
    <use xlink:href="#Arial-BoldMT-46" x="266.650391"/>
    <use xlink:href="#Arial-BoldMT-61" x="327.734375"/>
    <use xlink:href="#Arial-BoldMT-63" x="383.349609"/>
    <use xlink:href="#Arial-BoldMT-74" x="438.964844"/>
    <use xlink:href="#Arial-BoldMT-6f" x="472.265625"/>
    <use xlink:href="#Arial-BoldMT-72" x="533.349609"/>
   </g>
  </g>
 </g>
 <defs>
  <clipPath id="pc2fc81e49b">
   <rect x="72" y="31.094531" width="398.571429" height="271.8"/>
  </clipPath>
  <clipPath id="pa6e11b990f">
   <rect x="510.428571" y="31.094531" width="398.571429" height="271.8"/>
  </clipPath>
 </defs>
</svg>
