<?xml version="1.0" encoding="utf-8" standalone="no"?>
<!DOCTYPE svg PUBLIC "-//W3C//DTD SVG 1.1//EN"
  "http://www.w3.org/Graphics/SVG/1.1/DTD/svg11.dtd">
<svg xmlns:xlink="http://www.w3.org/1999/xlink" width="906.699219pt" height="480.580742pt" viewBox="0 0 906.699219 480.580742" xmlns="http://www.w3.org/2000/svg" version="1.1">
 <metadata>
  <rdf:RDF xmlns:dc="http://purl.org/dc/elements/1.1/" xmlns:cc="http://creativecommons.org/ns#" xmlns:rdf="http://www.w3.org/1999/02/22-rdf-syntax-ns#">
   <cc:Work>
    <dc:type rdf:resource="http://purl.org/dc/dcmitype/StillImage"/>
    <dc:date>2023-03-31T15:35:26.592592</dc:date>
    <dc:format>image/svg+xml</dc:format>
    <dc:creator>
     <cc:Agent>
      <dc:title>Matplotlib v3.6.0, https://matplotlib.org/</dc:title>
     </cc:Agent>
    </dc:creator>
   </cc:Work>
  </rdf:RDF>
 </metadata>
 <defs>
  <style type="text/css">*{stroke-linejoin: round; stroke-linecap: butt}</style>
 </defs>
 <g id="figure_1">
  <g id="patch_1">
   <path d="M 0 480.580742 
L 906.699219 480.580742 
L 906.699219 0 
L 0 0 
z
" style="fill: #ffffff"/>
  </g>
  <g id="axes_1">
   <g id="patch_2">
    <path d="M 50.571875 205.076977 
L 431.02642 205.076977 
L 431.02642 53.374652 
L 50.571875 53.374652 
z
" style="fill: #ffffff"/>
   </g>
   <g id="PolyCollection_1">
    <defs>
     <path id="m71168a1da4" d="M 12.52642 -320.783502 
L 12.52642 -283.861964 
L 18.86733 -283.82807 
L 25.208239 -285.507248 
L 31.549148 -286.88187 
L 37.890057 -287.379171 
L 44.230966 -286.882569 
L 50.571875 -285.526915 
L 56.912784 -283.805822 
L 63.253693 -282.510406 
L 69.594602 -282.399325 
L 75.935511 -282.65865 
L 82.27642 -283.782319 
L 88.61733 -285.626766 
L 94.958239 -286.332781 
L 101.299148 -287.814235 
L 107.640057 -291.865742 
L 113.980966 -293.959228 
L 120.321875 -297.003084 
L 126.662784 -303.429996 
L 133.003693 -309.737196 
L 139.344602 -313.833605 
L 145.685511 -317.957469 
L 152.02642 -321.337839 
L 158.36733 -321.138354 
L 164.708239 -322.587973 
L 171.049148 -325.623688 
L 177.390057 -329.793269 
L 183.730966 -334.8888 
L 190.071875 -340.524142 
L 196.412784 -344.595712 
L 202.753693 -346.04007 
L 209.094602 -348.599664 
L 215.435511 -349.006696 
L 221.77642 -349.687232 
L 228.11733 -350.41154 
L 234.458239 -351.979824 
L 240.799148 -351.696174 
L 247.140057 -352.07066 
L 253.480966 -351.004503 
L 259.821875 -348.634018 
L 266.162784 -349.080595 
L 272.503693 -349.923908 
L 278.844602 -350.660035 
L 285.185511 -351.621543 
L 291.52642 -352.876312 
L 297.86733 -352.505345 
L 304.208239 -350.977627 
L 310.549148 -349.729978 
L 316.890057 -349.510005 
L 323.230966 -349.688378 
L 329.571875 -348.56294 
L 335.912784 -346.694854 
L 342.253693 -347.536162 
L 348.594602 -346.859162 
L 354.935511 -346.149847 
L 361.27642 -345.442584 
L 367.61733 -345.845426 
L 373.958239 -342.733584 
L 380.299148 -341.263515 
L 386.640057 -340.405815 
L 392.980966 -340.52488 
L 399.321875 -340.753458 
L 405.662784 -340.881719 
L 412.003693 -341.698949 
L 418.344602 -340.52786 
L 424.685511 -339.966054 
L 431.02642 -339.047111 
L 431.02642 -380.032587 
L 431.02642 -380.032587 
L 424.685511 -380.838532 
L 418.344602 -381.770667 
L 412.003693 -383.147834 
L 405.662784 -382.680541 
L 399.321875 -382.630809 
L 392.980966 -382.642179 
L 386.640057 -382.392111 
L 380.299148 -383.051101 
L 373.958239 -384.254748 
L 367.61733 -387.300793 
L 361.27642 -386.666085 
L 354.935511 -387.347971 
L 348.594602 -388.045303 
L 342.253693 -388.970095 
L 335.912784 -388.357747 
L 329.571875 -390.419603 
L 323.230966 -391.60212 
L 316.890057 -391.555845 
L 310.549148 -391.723583 
L 304.208239 -392.821896 
L 297.86733 -394.462135 
L 291.52642 -394.981421 
L 285.185511 -393.463822 
L 278.844602 -392.556743 
L 272.503693 -391.992989 
L 266.162784 -390.945705 
L 259.821875 -390.299097 
L 253.480966 -392.823975 
L 247.140057 -393.970366 
L 240.799148 -393.515484 
L 234.458239 -393.949072 
L 228.11733 -392.447052 
L 221.77642 -392.080694 
L 215.435511 -391.424362 
L 209.094602 -391.266463 
L 202.753693 -388.690725 
L 196.412784 -387.255773 
L 190.071875 -382.498561 
L 183.730966 -375.96734 
L 177.390057 -369.870839 
L 171.049148 -364.922287 
L 164.708239 -361.332215 
L 158.36733 -359.539179 
L 152.02642 -359.835934 
L 145.685511 -356.3658 
L 139.344602 -352.032094 
L 133.003693 -347.500785 
L 126.662784 -340.728674 
L 120.321875 -333.880344 
L 113.980966 -330.53178 
L 107.640057 -328.204036 
L 101.299148 -324.009625 
L 94.958239 -322.51502 
L 88.61733 -321.685258 
L 82.27642 -319.934074 
L 75.935511 -318.697578 
L 69.594602 -318.367882 
L 63.253693 -318.386158 
L 56.912784 -319.876354 
L 50.571875 -321.669292 
L 44.230966 -323.280766 
L 37.890057 -323.887505 
L 31.549148 -323.514303 
L 25.208239 -322.228932 
L 18.86733 -320.530992 
L 12.52642 -320.783502 
z
" style="stroke: #2c7fb8; stroke-opacity: 0.15"/>
    </defs>
    <g clip-path="url(#p9bbff975fa)">
     <use xlink:href="#m71168a1da4" x="0" y="480.580742" style="fill: #2c7fb8; fill-opacity: 0.15; stroke: #2c7fb8; stroke-opacity: 0.15"/>
    </g>
   </g>
   <g id="PolyCollection_2">
    <defs>
     <path id="m7d95ca8e29" d="M 12.52642 -310.620059 
L 12.52642 -293.714853 
L 18.86733 -292.584501 
L 25.208239 -291.462411 
L 31.549148 -291.303956 
L 37.890057 -291.007672 
L 44.230966 -291.475826 
L 50.571875 -292.468098 
L 56.912784 -293.589509 
L 63.253693 -294.185267 
L 69.594602 -294.492572 
L 75.935511 -293.721588 
L 82.27642 -293.121176 
L 88.61733 -293.531118 
L 94.958239 -294.042633 
L 101.299148 -295.142754 
L 107.640057 -297.127186 
L 113.980966 -303.023288 
L 120.321875 -311.451761 
L 126.662784 -318.385096 
L 133.003693 -327.052016 
L 139.344602 -337.438197 
L 145.685511 -343.866677 
L 152.02642 -349.41448 
L 158.36733 -358.642748 
L 164.708239 -367.885267 
L 171.049148 -376.279509 
L 177.390057 -385.26257 
L 183.730966 -391.497926 
L 190.071875 -395.072613 
L 196.412784 -397.055314 
L 202.753693 -397.547906 
L 209.094602 -395.813415 
L 215.435511 -394.295998 
L 221.77642 -392.745759 
L 228.11733 -390.604301 
L 234.458239 -388.060986 
L 240.799148 -386.604979 
L 247.140057 -384.89727 
L 253.480966 -383.017321 
L 259.821875 -380.787877 
L 266.162784 -378.72796 
L 272.503693 -376.63419 
L 278.844602 -375.061142 
L 285.185511 -373.932012 
L 291.52642 -372.490898 
L 297.86733 -371.637382 
L 304.208239 -371.090236 
L 310.549148 -370.312289 
L 316.890057 -368.497601 
L 323.230966 -367.939384 
L 329.571875 -366.286913 
L 335.912784 -365.161768 
L 342.253693 -363.779901 
L 348.594602 -363.409103 
L 354.935511 -362.301555 
L 361.27642 -362.276666 
L 367.61733 -360.444385 
L 373.958239 -359.195638 
L 380.299148 -358.132576 
L 386.640057 -357.459234 
L 392.980966 -355.286924 
L 399.321875 -355.068505 
L 405.662784 -354.52574 
L 412.003693 -353.500695 
L 418.344602 -352.386408 
L 424.685511 -352.421852 
L 431.02642 -351.288854 
L 431.02642 -371.415878 
L 431.02642 -371.415878 
L 424.685511 -372.636468 
L 418.344602 -372.666927 
L 412.003693 -373.884254 
L 405.662784 -375.039025 
L 399.321875 -375.511791 
L 392.980966 -375.736004 
L 386.640057 -377.944639 
L 380.299148 -378.632294 
L 373.958239 -379.757897 
L 367.61733 -381.08481 
L 361.27642 -383.000345 
L 354.935511 -383.091905 
L 348.594602 -384.248196 
L 342.253693 -384.627296 
L 335.912784 -386.088254 
L 329.571875 -387.182058 
L 323.230966 -388.876672 
L 316.890057 -389.429418 
L 310.549148 -391.340616 
L 304.208239 -392.248904 
L 297.86733 -392.925565 
L 291.52642 -393.803824 
L 285.185511 -395.359563 
L 278.844602 -396.473485 
L 272.503693 -398.047944 
L 266.162784 -400.130858 
L 259.821875 -402.300716 
L 253.480966 -404.601757 
L 247.140057 -406.616049 
L 240.799148 -408.400694 
L 234.458239 -409.958494 
L 228.11733 -412.649408 
L 221.77642 -414.984648 
L 215.435511 -416.706858 
L 209.094602 -418.386195 
L 202.753693 -420.31053 
L 196.412784 -419.973885 
L 190.071875 -418.077004 
L 183.730966 -414.381433 
L 177.390057 -407.937398 
L 171.049148 -398.579502 
L 164.708239 -389.644438 
L 158.36733 -379.63969 
L 152.02642 -369.624935 
L 145.685511 -363.549488 
L 139.344602 -356.532743 
L 133.003693 -345.322453 
L 126.662784 -336.177801 
L 120.321875 -328.968883 
L 113.980966 -320.196234 
L 107.640057 -314.124957 
L 101.299148 -312.139784 
L 94.958239 -311.010303 
L 88.61733 -310.525301 
L 82.27642 -310.079432 
L 75.935511 -310.650507 
L 69.594602 -311.492605 
L 63.253693 -311.136943 
L 56.912784 -310.494918 
L 50.571875 -309.294931 
L 44.230966 -308.277115 
L 37.890057 -307.75477 
L 31.549148 -308.097979 
L 25.208239 -308.238568 
L 18.86733 -309.428631 
L 12.52642 -310.620059 
z
" style="stroke: #78c679; stroke-opacity: 0.25"/>
    </defs>
    <g clip-path="url(#p9bbff975fa)">
     <use xlink:href="#m7d95ca8e29" x="0" y="480.580742" style="fill: #78c679; fill-opacity: 0.25; stroke: #78c679; stroke-opacity: 0.25"/>
    </g>
   </g>
   <g id="matplotlib.axis_1">
    <g id="xtick_1">
     <g id="line2d_1">
      <defs>
       <path id="mfbbe4bfc4e" d="M 0 0 
L 0 3.5 
" style="stroke: #000000; stroke-width: 0.8"/>
      </defs>
      <g>
       <use xlink:href="#mfbbe4bfc4e" x="50.571875" y="205.076977" style="stroke: #000000; stroke-width: 0.8"/>
      </g>
     </g>
    </g>
    <g id="xtick_2">
     <g id="line2d_2">
      <g>
       <use xlink:href="#mfbbe4bfc4e" x="113.980966" y="205.076977" style="stroke: #000000; stroke-width: 0.8"/>
      </g>
     </g>
    </g>
    <g id="xtick_3">
     <g id="line2d_3">
      <g>
       <use xlink:href="#mfbbe4bfc4e" x="177.390057" y="205.076977" style="stroke: #000000; stroke-width: 0.8"/>
      </g>
     </g>
    </g>
    <g id="xtick_4">
     <g id="line2d_4">
      <g>
       <use xlink:href="#mfbbe4bfc4e" x="240.799148" y="205.076977" style="stroke: #000000; stroke-width: 0.8"/>
      </g>
     </g>
    </g>
    <g id="xtick_5">
     <g id="line2d_5">
      <g>
       <use xlink:href="#mfbbe4bfc4e" x="304.208239" y="205.076977" style="stroke: #000000; stroke-width: 0.8"/>
      </g>
     </g>
    </g>
    <g id="xtick_6">
     <g id="line2d_6">
      <g>
       <use xlink:href="#mfbbe4bfc4e" x="367.61733" y="205.076977" style="stroke: #000000; stroke-width: 0.8"/>
      </g>
     </g>
    </g>
    <g id="xtick_7">
     <g id="line2d_7">
      <g>
       <use xlink:href="#mfbbe4bfc4e" x="431.02642" y="205.076977" style="stroke: #000000; stroke-width: 0.8"/>
      </g>
     </g>
    </g>
   </g>
   <g id="matplotlib.axis_2">
    <g id="ytick_1">
     <g id="line2d_8">
      <defs>
       <path id="me42971c31a" d="M 0 0 
L -3.5 0 
" style="stroke: #000000; stroke-width: 0.8"/>
      </defs>
      <g>
       <use xlink:href="#me42971c31a" x="50.571875" y="175.072527" style="stroke: #000000; stroke-width: 0.8"/>
      </g>
     </g>
     <g id="text_1">
      <!-- 0 -->
      <g transform="translate(34.028125 180.771355) scale(0.15 -0.15)">
       <defs>
        <path id="DejaVuSans-30" d="M 2034 4250 
Q 1547 4250 1301 3770 
Q 1056 3291 1056 2328 
Q 1056 1369 1301 889 
Q 1547 409 2034 409 
Q 2525 409 2770 889 
Q 3016 1369 3016 2328 
Q 3016 3291 2770 3770 
Q 2525 4250 2034 4250 
z
M 2034 4750 
Q 2819 4750 3233 4129 
Q 3647 3509 3647 2328 
Q 3647 1150 3233 529 
Q 2819 -91 2034 -91 
Q 1250 -91 836 529 
Q 422 1150 422 2328 
Q 422 3509 836 4129 
Q 1250 4750 2034 4750 
z
" transform="scale(0.015625)"/>
       </defs>
       <use xlink:href="#DejaVuSans-30"/>
      </g>
     </g>
    </g>
    <g id="ytick_2">
     <g id="line2d_9">
      <g>
       <use xlink:href="#me42971c31a" x="50.571875" y="119.742743" style="stroke: #000000; stroke-width: 0.8"/>
      </g>
     </g>
     <g id="text_2">
      <!-- 1 -->
      <g transform="translate(34.028125 125.441571) scale(0.15 -0.15)">
       <defs>
        <path id="DejaVuSans-31" d="M 794 531 
L 1825 531 
L 1825 4091 
L 703 3866 
L 703 4441 
L 1819 4666 
L 2450 4666 
L 2450 531 
L 3481 531 
L 3481 0 
L 794 0 
L 794 531 
z
" transform="scale(0.015625)"/>
       </defs>
       <use xlink:href="#DejaVuSans-31"/>
      </g>
     </g>
    </g>
    <g id="ytick_3">
     <g id="line2d_10">
      <g>
       <use xlink:href="#me42971c31a" x="50.571875" y="64.412958" style="stroke: #000000; stroke-width: 0.8"/>
      </g>
     </g>
     <g id="text_3">
      <!-- 2 -->
      <g transform="translate(34.028125 70.111786) scale(0.15 -0.15)">
       <defs>
        <path id="DejaVuSans-32" d="M 1228 531 
L 3431 531 
L 3431 0 
L 469 0 
L 469 531 
Q 828 903 1448 1529 
Q 2069 2156 2228 2338 
Q 2531 2678 2651 2914 
Q 2772 3150 2772 3378 
Q 2772 3750 2511 3984 
Q 2250 4219 1831 4219 
Q 1534 4219 1204 4116 
Q 875 4013 500 3803 
L 500 4441 
Q 881 4594 1212 4672 
Q 1544 4750 1819 4750 
Q 2544 4750 2975 4387 
Q 3406 4025 3406 3419 
Q 3406 3131 3298 2873 
Q 3191 2616 2906 2266 
Q 2828 2175 2409 1742 
Q 1991 1309 1228 531 
z
" transform="scale(0.015625)"/>
       </defs>
       <use xlink:href="#DejaVuSans-32"/>
      </g>
     </g>
    </g>
    <g id="text_4">
     <!-- LP -->
     <g transform="translate(25.094531 145.198471) rotate(-90) scale(0.25 -0.25)">
      <defs>
       <path id="Arial-BoldMT-4c" d="M 491 0 
L 491 4544 
L 1416 4544 
L 1416 772 
L 3716 772 
L 3716 0 
L 491 0 
z
" transform="scale(0.015625)"/>
       <path id="Arial-BoldMT-50" d="M 466 0 
L 466 4581 
L 1950 4581 
Q 2794 4581 3050 4513 
Q 3444 4409 3709 4064 
Q 3975 3719 3975 3172 
Q 3975 2750 3822 2462 
Q 3669 2175 3433 2011 
Q 3197 1847 2953 1794 
Q 2622 1728 1994 1728 
L 1391 1728 
L 1391 0 
L 466 0 
z
M 1391 3806 
L 1391 2506 
L 1897 2506 
Q 2444 2506 2628 2578 
Q 2813 2650 2917 2803 
Q 3022 2956 3022 3159 
Q 3022 3409 2875 3571 
Q 2728 3734 2503 3775 
Q 2338 3806 1838 3806 
L 1391 3806 
z
" transform="scale(0.015625)"/>
      </defs>
      <use xlink:href="#Arial-BoldMT-4c"/>
      <use xlink:href="#Arial-BoldMT-50" x="61.083984"/>
     </g>
    </g>
   </g>
   <g id="line2d_11">
    <path d="M 12.52642 178.258009 
L 18.86733 178.401211 
L 25.208239 176.712652 
L 31.549148 175.382655 
L 37.890057 174.947404 
L 44.230966 175.499074 
L 50.571875 176.982638 
L 56.912784 178.739654 
L 63.253693 180.132459 
L 69.594602 180.197138 
L 75.935511 179.902628 
L 82.27642 178.722545 
L 88.61733 176.924729 
L 94.958239 176.156841 
L 101.299148 174.668811 
L 107.640057 170.545852 
L 113.980966 168.335238 
L 120.321875 165.139028 
L 126.662784 158.501407 
L 133.003693 151.961751 
L 139.344602 147.647892 
L 145.685511 143.419107 
L 152.02642 139.993855 
L 158.36733 140.241975 
L 164.708239 138.620648 
L 171.049148 135.307754 
L 177.390057 130.748688 
L 183.730966 125.152671 
L 190.071875 119.06939 
L 196.412784 114.654999 
L 202.753693 113.215344 
L 209.094602 110.647678 
L 215.435511 110.365213 
L 221.77642 109.696778 
L 228.11733 109.151446 
L 234.458239 107.616294 
L 240.799148 107.974913 
L 247.140057 107.560228 
L 253.480966 108.666503 
L 259.821875 111.114184 
L 266.162784 110.567592 
L 272.503693 109.622293 
L 278.844602 108.972353 
L 285.185511 108.038059 
L 291.52642 106.651875 
L 297.86733 107.097001 
L 304.208239 108.68098 
L 310.549148 109.853961 
L 316.890057 110.047817 
L 323.230966 109.935492 
L 329.571875 111.08947 
L 335.912784 113.054442 
L 342.253693 112.327613 
L 348.594602 113.128509 
L 354.935511 113.831833 
L 361.27642 114.526407 
L 367.61733 114.007632 
L 373.958239 117.086576 
L 380.299148 118.423434 
L 386.640057 119.181778 
L 392.980966 118.997212 
L 399.321875 118.888608 
L 405.662784 118.799612 
L 412.003693 118.15735 
L 418.344602 119.431478 
L 424.685511 120.178449 
L 431.02642 121.040893 
" clip-path="url(#p9bbff975fa)" style="fill: none; stroke: #2c7fb8; stroke-width: 2; stroke-linecap: square"/>
   </g>
   <g id="line2d_12">
    <path d="M 12.52642 178.413286 
L 18.86733 179.574176 
L 25.208239 180.730252 
L 31.549148 180.879774 
L 37.890057 181.199521 
L 44.230966 180.704271 
L 50.571875 179.699228 
L 56.912784 178.538528 
L 63.253693 177.919636 
L 69.594602 177.588153 
L 75.935511 178.394694 
L 82.27642 178.980437 
L 88.61733 178.552532 
L 94.958239 178.054274 
L 101.299148 176.939473 
L 107.640057 174.95467 
L 113.980966 168.970981 
L 120.321875 160.37042 
L 126.662784 153.299293 
L 133.003693 144.393507 
L 139.344602 133.595272 
L 145.685511 126.872659 
L 152.02642 121.061034 
L 158.36733 111.439522 
L 164.708239 101.81589 
L 171.049148 93.151236 
L 177.390057 83.980758 
L 183.730966 77.641062 
L 190.071875 74.005933 
L 196.412784 72.066142 
L 202.753693 71.651524 
L 209.094602 73.480937 
L 215.435511 75.079314 
L 221.77642 76.715538 
L 228.11733 78.953887 
L 234.458239 81.571002 
L 240.799148 83.077905 
L 247.140057 84.824082 
L 253.480966 86.771202 
L 259.821875 89.036445 
L 266.162784 91.151333 
L 272.503693 93.239675 
L 278.844602 94.813428 
L 285.185511 95.934954 
L 291.52642 97.433381 
L 297.86733 98.299268 
L 304.208239 98.911171 
L 310.549148 99.754289 
L 316.890057 101.617232 
L 323.230966 102.172714 
L 329.571875 103.846256 
L 335.912784 104.955731 
L 342.253693 106.377143 
L 348.594602 106.752092 
L 354.935511 107.884012 
L 361.27642 107.942236 
L 367.61733 109.816144 
L 373.958239 111.103974 
L 380.299148 112.198307 
L 386.640057 112.878805 
L 392.980966 115.069277 
L 399.321875 115.290594 
L 405.662784 115.798359 
L 412.003693 116.888267 
L 418.344602 118.054074 
L 424.685511 118.051582 
L 431.02642 119.228375 
" clip-path="url(#p9bbff975fa)" style="fill: none; stroke: #78c679; stroke-width: 2; stroke-linecap: square"/>
   </g>
   <g id="line2d_13">
    <path d="M 113.980966 205.076977 
L 113.980966 53.374652 
" clip-path="url(#p9bbff975fa)" style="fill: none; stroke-dasharray: 4.44,1.92; stroke-dashoffset: 0; stroke: #808080; stroke-opacity: 0.8; stroke-width: 1.2"/>
   </g>
   <g id="patch_3">
    <path d="M 50.571875 205.076977 
L 50.571875 53.374652 
" style="fill: none; stroke: #000000; stroke-width: 0.8; stroke-linejoin: miter; stroke-linecap: square"/>
   </g>
   <g id="patch_4">
    <path d="M 50.571875 205.076977 
L 431.02642 205.076977 
" style="fill: none; stroke: #000000; stroke-width: 0.8; stroke-linejoin: miter; stroke-linecap: square"/>
   </g>
  </g>
  <g id="axes_2">
   <g id="patch_5">
    <path d="M 507.11733 205.076977 
L 887.571875 205.076977 
L 887.571875 53.374652 
L 507.11733 53.374652 
z
" style="fill: #ffffff"/>
   </g>
   <g id="PolyCollection_3">
    <defs>
     <path id="m784a611bd3" d="M 469.071875 -349.814393 
L 469.071875 -332.513554 
L 475.412784 -333.296859 
L 481.753693 -330.806498 
L 488.094602 -331.543324 
L 494.435511 -330.36432 
L 500.77642 -328.9568 
L 507.11733 -330.966623 
L 513.458239 -333.18947 
L 519.799148 -331.596336 
L 526.140057 -329.859294 
L 532.480966 -328.098713 
L 538.821875 -328.458876 
L 545.162784 -326.412096 
L 551.503693 -324.457118 
L 557.844602 -321.669803 
L 564.185511 -321.82221 
L 570.52642 -319.763496 
L 576.86733 -314.060135 
L 583.208239 -305.955406 
L 589.549148 -305.621361 
L 595.890057 -306.812371 
L 602.230966 -302.602262 
L 608.571875 -297.893996 
L 614.912784 -290.453287 
L 621.253693 -282.399325 
L 627.594602 -283.73357 
L 633.935511 -286.657678 
L 640.27642 -289.006108 
L 646.61733 -293.147548 
L 652.958239 -295.937083 
L 659.299148 -297.062711 
L 665.640057 -294.470491 
L 671.980966 -295.843426 
L 678.321875 -298.460525 
L 684.662784 -299.477782 
L 691.003693 -302.372388 
L 697.344602 -304.81683 
L 703.685511 -306.540081 
L 710.02642 -302.831931 
L 716.36733 -302.624141 
L 722.708239 -297.759412 
L 729.049148 -296.99125 
L 735.390057 -296.700544 
L 741.730966 -297.259636 
L 748.071875 -296.554698 
L 754.412784 -296.077824 
L 760.753693 -298.726016 
L 767.094602 -297.47914 
L 773.435511 -296.753868 
L 779.77642 -296.875001 
L 786.11733 -296.265642 
L 792.458239 -294.94389 
L 798.799148 -296.762573 
L 805.140057 -295.650717 
L 811.480966 -292.331083 
L 817.821875 -292.520099 
L 824.162784 -293.436367 
L 830.503693 -293.303572 
L 836.844602 -294.546737 
L 843.185511 -293.653934 
L 849.52642 -289.879478 
L 855.86733 -293.872426 
L 862.208239 -292.614221 
L 868.549148 -291.755856 
L 874.890057 -293.956738 
L 881.230966 -295.487848 
L 887.571875 -294.611384 
L 887.571875 -312.716256 
L 887.571875 -312.716256 
L 881.230966 -313.356571 
L 874.890057 -311.599494 
L 868.549148 -309.226581 
L 862.208239 -310.546347 
L 855.86733 -311.489369 
L 849.52642 -307.23727 
L 843.185511 -311.314186 
L 836.844602 -312.255152 
L 830.503693 -310.719981 
L 824.162784 -311.55173 
L 817.821875 -310.780378 
L 811.480966 -311.116876 
L 805.140057 -315.500043 
L 798.799148 -316.881321 
L 792.458239 -314.345158 
L 786.11733 -315.646763 
L 779.77642 -316.325759 
L 773.435511 -315.913605 
L 767.094602 -316.784531 
L 760.753693 -318.429034 
L 754.412784 -315.815196 
L 748.071875 -314.983894 
L 741.730966 -314.35691 
L 735.390057 -313.342762 
L 729.049148 -313.723156 
L 722.708239 -315.438129 
L 716.36733 -321.679973 
L 710.02642 -321.967069 
L 703.685511 -326.150981 
L 697.344602 -324.460669 
L 691.003693 -321.587033 
L 684.662784 -319.010496 
L 678.321875 -318.614378 
L 671.980966 -316.776187 
L 665.640057 -316.019911 
L 659.299148 -317.921217 
L 652.958239 -315.470663 
L 646.61733 -311.020389 
L 640.27642 -306.22567 
L 633.935511 -303.334453 
L 627.594602 -300.921821 
L 621.253693 -299.824215 
L 614.912784 -308.436689 
L 608.571875 -316.613435 
L 602.230966 -321.591743 
L 595.890057 -325.103815 
L 589.549148 -323.401693 
L 583.208239 -322.911608 
L 576.86733 -331.096636 
L 570.52642 -336.690101 
L 564.185511 -338.522932 
L 557.844602 -338.615039 
L 551.503693 -341.725639 
L 545.162784 -344.38539 
L 538.821875 -347.604036 
L 532.480966 -347.243421 
L 526.140057 -348.957302 
L 519.799148 -351.225742 
L 513.458239 -352.267038 
L 507.11733 -349.959424 
L 500.77642 -347.901975 
L 494.435511 -349.405295 
L 488.094602 -350.371605 
L 481.753693 -348.841397 
L 475.412784 -350.622997 
L 469.071875 -349.814393 
z
" style="stroke: #78c679; stroke-opacity: 0.25"/>
    </defs>
    <g clip-path="url(#p5938fc0e6f)">
     <use xlink:href="#m784a611bd3" x="0" y="480.580742" style="fill: #78c679; fill-opacity: 0.25; stroke: #78c679; stroke-opacity: 0.25"/>
    </g>
   </g>
   <g id="PolyCollection_4">
    <defs>
     <path id="m1e40d785df" d="M 469.071875 -370.214216 
L 469.071875 -332.722146 
L 475.412784 -336.462722 
L 481.753693 -345.642034 
L 488.094602 -348.47197 
L 494.435511 -347.371798 
L 500.77642 -342.84843 
L 507.11733 -342.63983 
L 513.458239 -331.488054 
L 519.799148 -331.230705 
L 526.140057 -335.012523 
L 532.480966 -332.301402 
L 538.821875 -325.948111 
L 545.162784 -318.211883 
L 551.503693 -312.65903 
L 557.844602 -310.612196 
L 564.185511 -314.976269 
L 570.52642 -313.921162 
L 576.86733 -318.528609 
L 583.208239 -328.138284 
L 589.549148 -324.726844 
L 595.890057 -320.305557 
L 602.230966 -311.304064 
L 608.571875 -312.092673 
L 614.912784 -313.904105 
L 621.253693 -313.704238 
L 627.594602 -317.565981 
L 633.935511 -320.442176 
L 640.27642 -322.67109 
L 646.61733 -322.322299 
L 652.958239 -317.647551 
L 659.299148 -318.015738 
L 665.640057 -323.78261 
L 671.980966 -324.519301 
L 678.321875 -329.536039 
L 684.662784 -332.909474 
L 691.003693 -334.940641 
L 697.344602 -335.02388 
L 703.685511 -345.146713 
L 710.02642 -341.294435 
L 716.36733 -340.002436 
L 722.708239 -331.242126 
L 729.049148 -331.203697 
L 735.390057 -322.989005 
L 741.730966 -321.701443 
L 748.071875 -326.275493 
L 754.412784 -332.943209 
L 760.753693 -339.69219 
L 767.094602 -341.060273 
L 773.435511 -349.276126 
L 779.77642 -351.111135 
L 786.11733 -358.265623 
L 792.458239 -365.494387 
L 798.799148 -360.911033 
L 805.140057 -355.154932 
L 811.480966 -357.975715 
L 817.821875 -361.190653 
L 824.162784 -354.112057 
L 830.503693 -346.534403 
L 836.844602 -345.465073 
L 843.185511 -350.121595 
L 849.52642 -347.893505 
L 855.86733 -353.370031 
L 862.208239 -355.882213 
L 868.549148 -356.03411 
L 874.890057 -353.419966 
L 881.230966 -357.343762 
L 887.571875 -351.742535 
L 887.571875 -403.005662 
L 887.571875 -403.005662 
L 881.230966 -404.978934 
L 874.890057 -399.978559 
L 868.549148 -404.506443 
L 862.208239 -405.289599 
L 855.86733 -402.349549 
L 849.52642 -391.822291 
L 843.185511 -393.256563 
L 836.844602 -387.166526 
L 830.503693 -386.63247 
L 824.162784 -395.552252 
L 817.821875 -403.71749 
L 811.480966 -399.121728 
L 805.140057 -398.57792 
L 798.799148 -408.841726 
L 792.458239 -420.31053 
L 786.11733 -411.194244 
L 779.77642 -401.317903 
L 773.435511 -396.630569 
L 767.094602 -384.401419 
L 760.753693 -379.922024 
L 754.412784 -371.151124 
L 748.071875 -362.942186 
L 741.730966 -357.412889 
L 735.390057 -358.612074 
L 729.049148 -367.770411 
L 722.708239 -372.534179 
L 716.36733 -383.20582 
L 710.02642 -385.219806 
L 703.685511 -387.867887 
L 697.344602 -375.537962 
L 691.003693 -374.026801 
L 684.662784 -371.202417 
L 678.321875 -367.222685 
L 671.980966 -364.023375 
L 665.640057 -363.604005 
L 659.299148 -356.823403 
L 652.958239 -355.464069 
L 646.61733 -358.341904 
L 640.27642 -358.260309 
L 633.935511 -355.962453 
L 627.594602 -352.528703 
L 621.253693 -349.643326 
L 614.912784 -350.121052 
L 608.571875 -349.162543 
L 602.230966 -348.118324 
L 595.890057 -357.77007 
L 589.549148 -364.040033 
L 583.208239 -368.655266 
L 576.86733 -359.202144 
L 570.52642 -353.894043 
L 564.185511 -354.933921 
L 557.844602 -348.823667 
L 551.503693 -349.578169 
L 545.162784 -356.535285 
L 538.821875 -364.519044 
L 532.480966 -371.472781 
L 526.140057 -374.550453 
L 519.799148 -370.710225 
L 513.458239 -370.915191 
L 507.11733 -382.634854 
L 500.77642 -382.23853 
L 494.435511 -389.645695 
L 488.094602 -393.369871 
L 481.753693 -389.342313 
L 475.412784 -377.649481 
L 469.071875 -370.214216 
z
" style="stroke: #2c7fb8; stroke-opacity: 0.15"/>
    </defs>
    <g clip-path="url(#p5938fc0e6f)">
     <use xlink:href="#m1e40d785df" x="0" y="480.580742" style="fill: #2c7fb8; fill-opacity: 0.15; stroke: #2c7fb8; stroke-opacity: 0.15"/>
    </g>
   </g>
   <g id="matplotlib.axis_3">
    <g id="xtick_8">
     <g id="line2d_14">
      <g>
       <use xlink:href="#mfbbe4bfc4e" x="507.11733" y="205.076977" style="stroke: #000000; stroke-width: 0.8"/>
      </g>
     </g>
    </g>
    <g id="xtick_9">
     <g id="line2d_15">
      <g>
       <use xlink:href="#mfbbe4bfc4e" x="570.52642" y="205.076977" style="stroke: #000000; stroke-width: 0.8"/>
      </g>
     </g>
    </g>
    <g id="xtick_10">
     <g id="line2d_16">
      <g>
       <use xlink:href="#mfbbe4bfc4e" x="633.935511" y="205.076977" style="stroke: #000000; stroke-width: 0.8"/>
      </g>
     </g>
    </g>
    <g id="xtick_11">
     <g id="line2d_17">
      <g>
       <use xlink:href="#mfbbe4bfc4e" x="697.344602" y="205.076977" style="stroke: #000000; stroke-width: 0.8"/>
      </g>
     </g>
    </g>
    <g id="xtick_12">
     <g id="line2d_18">
      <g>
       <use xlink:href="#mfbbe4bfc4e" x="760.753693" y="205.076977" style="stroke: #000000; stroke-width: 0.8"/>
      </g>
     </g>
    </g>
    <g id="xtick_13">
     <g id="line2d_19">
      <g>
       <use xlink:href="#mfbbe4bfc4e" x="824.162784" y="205.076977" style="stroke: #000000; stroke-width: 0.8"/>
      </g>
     </g>
    </g>
    <g id="xtick_14">
     <g id="line2d_20">
      <g>
       <use xlink:href="#mfbbe4bfc4e" x="887.571875" y="205.076977" style="stroke: #000000; stroke-width: 0.8"/>
      </g>
     </g>
    </g>
   </g>
   <g id="matplotlib.axis_4">
    <g id="ytick_4">
     <g id="line2d_21">
      <g>
       <use xlink:href="#me42971c31a" x="507.11733" y="167.766478" style="stroke: #000000; stroke-width: 0.8"/>
      </g>
     </g>
     <g id="text_5">
      <!-- 1.8 -->
      <g transform="translate(476.262642 173.465306) scale(0.15 -0.15)">
       <defs>
        <path id="DejaVuSans-2e" d="M 684 794 
L 1344 794 
L 1344 0 
L 684 0 
L 684 794 
z
" transform="scale(0.015625)"/>
        <path id="DejaVuSans-38" d="M 2034 2216 
Q 1584 2216 1326 1975 
Q 1069 1734 1069 1313 
Q 1069 891 1326 650 
Q 1584 409 2034 409 
Q 2484 409 2743 651 
Q 3003 894 3003 1313 
Q 3003 1734 2745 1975 
Q 2488 2216 2034 2216 
z
M 1403 2484 
Q 997 2584 770 2862 
Q 544 3141 544 3541 
Q 544 4100 942 4425 
Q 1341 4750 2034 4750 
Q 2731 4750 3128 4425 
Q 3525 4100 3525 3541 
Q 3525 3141 3298 2862 
Q 3072 2584 2669 2484 
Q 3125 2378 3379 2068 
Q 3634 1759 3634 1313 
Q 3634 634 3220 271 
Q 2806 -91 2034 -91 
Q 1263 -91 848 271 
Q 434 634 434 1313 
Q 434 1759 690 2068 
Q 947 2378 1403 2484 
z
M 1172 3481 
Q 1172 3119 1398 2916 
Q 1625 2713 2034 2713 
Q 2441 2713 2670 2916 
Q 2900 3119 2900 3481 
Q 2900 3844 2670 4047 
Q 2441 4250 2034 4250 
Q 1625 4250 1398 4047 
Q 1172 3844 1172 3481 
z
" transform="scale(0.015625)"/>
       </defs>
       <use xlink:href="#DejaVuSans-31"/>
       <use xlink:href="#DejaVuSans-2e" x="63.623047"/>
       <use xlink:href="#DejaVuSans-38" x="95.410156"/>
      </g>
     </g>
    </g>
    <g id="ytick_5">
     <g id="line2d_22">
      <g>
       <use xlink:href="#me42971c31a" x="507.11733" y="128.275586" style="stroke: #000000; stroke-width: 0.8"/>
      </g>
     </g>
     <g id="text_6">
      <!-- 1.9 -->
      <g transform="translate(476.262642 133.974414) scale(0.15 -0.15)">
       <defs>
        <path id="DejaVuSans-39" d="M 703 97 
L 703 672 
Q 941 559 1184 500 
Q 1428 441 1663 441 
Q 2288 441 2617 861 
Q 2947 1281 2994 2138 
Q 2813 1869 2534 1725 
Q 2256 1581 1919 1581 
Q 1219 1581 811 2004 
Q 403 2428 403 3163 
Q 403 3881 828 4315 
Q 1253 4750 1959 4750 
Q 2769 4750 3195 4129 
Q 3622 3509 3622 2328 
Q 3622 1225 3098 567 
Q 2575 -91 1691 -91 
Q 1453 -91 1209 -44 
Q 966 3 703 97 
z
M 1959 2075 
Q 2384 2075 2632 2365 
Q 2881 2656 2881 3163 
Q 2881 3666 2632 3958 
Q 2384 4250 1959 4250 
Q 1534 4250 1286 3958 
Q 1038 3666 1038 3163 
Q 1038 2656 1286 2365 
Q 1534 2075 1959 2075 
z
" transform="scale(0.015625)"/>
       </defs>
       <use xlink:href="#DejaVuSans-31"/>
       <use xlink:href="#DejaVuSans-2e" x="63.623047"/>
       <use xlink:href="#DejaVuSans-39" x="95.410156"/>
      </g>
     </g>
    </g>
    <g id="ytick_6">
     <g id="line2d_23">
      <g>
       <use xlink:href="#me42971c31a" x="507.11733" y="88.784693" style="stroke: #000000; stroke-width: 0.8"/>
      </g>
     </g>
     <g id="text_7">
      <!-- 2.0 -->
      <g transform="translate(476.262642 94.483521) scale(0.15 -0.15)">
       <use xlink:href="#DejaVuSans-32"/>
       <use xlink:href="#DejaVuSans-2e" x="63.623047"/>
       <use xlink:href="#DejaVuSans-30" x="95.410156"/>
      </g>
     </g>
    </g>
   </g>
   <g id="line2d_24">
    <path d="M 469.071875 129.112561 
L 475.412784 123.52464 
L 481.753693 113.088568 
L 488.094602 109.659821 
L 494.435511 112.071995 
L 500.77642 118.037261 
L 507.11733 117.943399 
L 513.458239 129.379119 
L 519.799148 129.610277 
L 526.140057 125.799254 
L 532.480966 128.69365 
L 538.821875 135.347164 
L 545.162784 143.207158 
L 551.503693 149.462142 
L 557.844602 150.86281 
L 564.185511 145.625647 
L 570.52642 146.673139 
L 576.86733 141.715365 
L 583.208239 132.183966 
L 589.549148 136.197303 
L 595.890057 141.542928 
L 602.230966 150.869547 
L 608.571875 149.953134 
L 614.912784 148.568163 
L 621.253693 148.90696 
L 627.594602 145.533399 
L 633.935511 142.378427 
L 640.27642 140.115043 
L 646.61733 140.24864 
L 652.958239 144.024932 
L 659.299148 143.161171 
L 665.640057 136.887434 
L 671.980966 136.309403 
L 678.321875 132.20138 
L 684.662784 128.524796 
L 691.003693 126.097021 
L 697.344602 125.299821 
L 703.685511 114.073442 
L 710.02642 117.323621 
L 716.36733 118.976614 
L 722.708239 128.692589 
L 729.049148 131.093688 
L 735.390057 139.780202 
L 741.730966 141.023575 
L 748.071875 135.971902 
L 754.412784 128.533575 
L 760.753693 120.773635 
L 767.094602 117.849895 
L 773.435511 107.627394 
L 779.77642 104.366222 
L 786.11733 95.850808 
L 792.458239 87.678283 
L 798.799148 95.704362 
L 805.140057 103.714316 
L 811.480966 102.03202 
L 817.821875 98.12667 
L 824.162784 105.748587 
L 830.503693 113.997305 
L 836.844602 114.264942 
L 843.185511 108.891662 
L 849.52642 110.722844 
L 855.86733 102.720951 
L 862.208239 99.994835 
L 868.549148 100.310465 
L 874.890057 103.881479 
L 881.230966 99.419393 
L 887.571875 103.206643 
" clip-path="url(#p5938fc0e6f)" style="fill: none; stroke: #2c7fb8; stroke-width: 2; stroke-linecap: square"/>
   </g>
   <g id="line2d_25">
    <path d="M 469.071875 139.416768 
L 475.412784 138.620814 
L 481.753693 140.756794 
L 488.094602 139.623277 
L 494.435511 140.695934 
L 500.77642 142.151354 
L 507.11733 140.117718 
L 513.458239 137.852487 
L 519.799148 139.169703 
L 526.140057 141.172444 
L 532.480966 142.909675 
L 538.821875 142.549286 
L 545.162784 145.181999 
L 551.503693 147.489363 
L 557.844602 150.438321 
L 564.185511 150.40817 
L 570.52642 152.353943 
L 576.86733 158.002356 
L 583.208239 166.147234 
L 589.549148 166.069215 
L 595.890057 164.622649 
L 602.230966 168.483739 
L 608.571875 173.327026 
L 614.912784 181.135754 
L 621.253693 189.468972 
L 627.594602 188.253046 
L 633.935511 185.584676 
L 640.27642 182.964853 
L 646.61733 178.496773 
L 652.958239 174.876869 
L 659.299148 173.088778 
L 665.640057 175.335541 
L 671.980966 174.270936 
L 678.321875 172.04329 
L 684.662784 171.336603 
L 691.003693 168.601031 
L 697.344602 165.941992 
L 703.685511 164.235211 
L 710.02642 168.181241 
L 716.36733 168.428685 
L 722.708239 173.981971 
L 729.049148 175.223539 
L 735.390057 175.559089 
L 741.730966 174.772469 
L 748.071875 174.811446 
L 754.412784 174.634232 
L 760.753693 172.003217 
L 767.094602 173.448906 
L 773.435511 174.247005 
L 779.77642 173.980361 
L 786.11733 174.624539 
L 792.458239 175.936217 
L 798.799148 173.758795 
L 805.140057 175.005362 
L 811.480966 178.856762 
L 817.821875 178.930503 
L 824.162784 178.086693 
L 830.503693 178.568965 
L 836.844602 177.179797 
L 843.185511 178.096682 
L 849.52642 182.022367 
L 855.86733 177.899844 
L 862.208239 179.000458 
L 868.549148 180.089523 
L 874.890057 177.802626 
L 881.230966 176.158532 
L 887.571875 176.916922 
" clip-path="url(#p5938fc0e6f)" style="fill: none; stroke: #78c679; stroke-width: 2; stroke-linecap: square"/>
   </g>
   <g id="line2d_26">
    <path d="M 570.52642 205.076977 
L 570.52642 53.374652 
" clip-path="url(#p5938fc0e6f)" style="fill: none; stroke-dasharray: 4.44,1.92; stroke-dashoffset: 0; stroke: #808080; stroke-opacity: 0.8; stroke-width: 1.2"/>
   </g>
   <g id="patch_6">
    <path d="M 507.11733 205.076977 
L 507.11733 53.374652 
" style="fill: none; stroke: #000000; stroke-width: 0.8; stroke-linejoin: miter; stroke-linecap: square"/>
   </g>
   <g id="patch_7">
    <path d="M 507.11733 205.076977 
L 887.571875 205.076977 
" style="fill: none; stroke: #000000; stroke-width: 0.8; stroke-linejoin: miter; stroke-linecap: square"/>
   </g>
  </g>
  <g id="axes_3">
   <g id="patch_8">
    <path d="M 50.571875 379.534652 
L 431.02642 379.534652 
L 431.02642 227.832326 
L 50.571875 227.832326 
z
" style="fill: #ffffff"/>
   </g>
   <g id="PolyCollection_5">
    <defs>
     <path id="m92b0df6b78" d="M 12.52642 -142.292876 
L 12.52642 -113.966145 
L 18.86733 -112.691687 
L 25.208239 -112.289304 
L 31.549148 -110.910445 
L 37.890057 -109.431824 
L 44.230966 -108.860924 
L 50.571875 -108.11652 
L 56.912784 -107.951665 
L 63.253693 -108.210709 
L 69.594602 -108.256435 
L 75.935511 -107.94165 
L 82.27642 -108.901314 
L 88.61733 -108.96819 
L 94.958239 -109.483136 
L 101.299148 -110.572336 
L 107.640057 -111.450972 
L 113.980966 -112.457704 
L 120.321875 -113.66166 
L 126.662784 -114.829534 
L 133.003693 -116.733525 
L 139.344602 -119.08949 
L 145.685511 -122.135287 
L 152.02642 -124.290121 
L 158.36733 -127.796157 
L 164.708239 -130.706766 
L 171.049148 -133.605766 
L 177.390057 -136.684345 
L 183.730966 -139.793432 
L 190.071875 -143.241355 
L 196.412784 -148.506752 
L 202.753693 -155.356941 
L 209.094602 -160.500666 
L 215.435511 -167.716438 
L 221.77642 -174.254188 
L 228.11733 -178.790866 
L 234.458239 -180.553566 
L 240.799148 -182.813725 
L 247.140057 -185.267422 
L 253.480966 -187.186804 
L 259.821875 -189.881472 
L 266.162784 -193.77056 
L 272.503693 -196.470282 
L 278.844602 -198.673505 
L 285.185511 -200.393751 
L 291.52642 -201.555351 
L 297.86733 -201.541432 
L 304.208239 -202.68815 
L 310.549148 -202.320313 
L 316.890057 -202.155559 
L 323.230966 -202.52229 
L 329.571875 -204.044517 
L 335.912784 -203.013554 
L 342.253693 -204.686487 
L 348.594602 -204.84879 
L 354.935511 -204.433174 
L 361.27642 -204.923195 
L 367.61733 -205.971271 
L 373.958239 -204.671033 
L 380.299148 -204.768415 
L 386.640057 -203.906285 
L 392.980966 -201.839472 
L 399.321875 -201.799356 
L 405.662784 -201.425382 
L 412.003693 -202.113888 
L 418.344602 -203.476569 
L 424.685511 -206.281162 
L 431.02642 -205.939782 
L 431.02642 -245.357522 
L 431.02642 -245.357522 
L 424.685511 -245.852855 
L 418.344602 -242.765427 
L 412.003693 -241.309942 
L 405.662784 -240.568679 
L 399.321875 -241.01615 
L 392.980966 -240.749513 
L 386.640057 -243.060273 
L 380.299148 -244.016291 
L 373.958239 -243.924311 
L 367.61733 -245.174601 
L 361.27642 -244.346694 
L 354.935511 -243.712395 
L 348.594602 -244.043148 
L 342.253693 -243.88824 
L 335.912784 -241.986515 
L 329.571875 -242.878451 
L 323.230966 -241.113316 
L 316.890057 -240.943912 
L 310.549148 -241.378172 
L 304.208239 -242.421145 
L 297.86733 -241.586965 
L 291.52642 -241.933414 
L 285.185511 -240.710566 
L 278.844602 -238.476212 
L 272.503693 -236.135143 
L 266.162784 -233.528292 
L 259.821875 -229.214276 
L 253.480966 -226.587789 
L 247.140057 -224.871595 
L 240.799148 -222.192176 
L 234.458239 -219.800383 
L 228.11733 -218.286868 
L 221.77642 -213.357781 
L 215.435511 -205.788241 
L 209.094602 -197.280772 
L 202.753693 -191.068593 
L 196.412784 -182.828048 
L 190.071875 -176.417931 
L 183.730966 -172.457869 
L 177.390057 -168.746038 
L 171.049148 -164.958851 
L 164.708239 -161.771496 
L 158.36733 -158.383334 
L 152.02642 -154.572524 
L 145.685511 -152.482742 
L 139.344602 -149.143733 
L 133.003693 -146.131776 
L 126.662784 -144.036492 
L 120.321875 -142.398283 
L 113.980966 -140.775532 
L 107.640057 -139.548478 
L 101.299148 -138.780147 
L 94.958239 -137.416426 
L 88.61733 -136.856527 
L 82.27642 -137.022616 
L 75.935511 -135.877472 
L 69.594602 -136.204229 
L 63.253693 -136.032382 
L 56.912784 -135.657964 
L 50.571875 -135.839149 
L 44.230966 -136.729024 
L 37.890057 -137.322754 
L 31.549148 -139.017872 
L 25.208239 -140.724165 
L 18.86733 -140.772395 
L 12.52642 -142.292876 
z
" style="stroke: #2c7fb8; stroke-opacity: 0.15"/>
    </defs>
    <g clip-path="url(#pd71074c47e)">
     <use xlink:href="#m92b0df6b78" x="0" y="480.580742" style="fill: #2c7fb8; fill-opacity: 0.15; stroke: #2c7fb8; stroke-opacity: 0.15"/>
    </g>
   </g>
   <g id="PolyCollection_6">
    <defs>
     <path id="m718048ab13" d="M 12.52642 -131.146118 
L 12.52642 -117.847834 
L 18.86733 -117.850998 
L 25.208239 -117.957461 
L 31.549148 -117.512872 
L 37.890057 -117.263275 
L 44.230966 -117.110998 
L 50.571875 -116.772004 
L 56.912784 -116.289684 
L 63.253693 -115.909591 
L 69.594602 -115.656735 
L 75.935511 -115.755295 
L 82.27642 -116.099792 
L 88.61733 -116.238836 
L 94.958239 -116.974418 
L 101.299148 -117.400239 
L 107.640057 -118.141346 
L 113.980966 -120.459517 
L 120.321875 -122.775033 
L 126.662784 -125.670122 
L 133.003693 -130.2292 
L 139.344602 -134.623708 
L 145.685511 -138.53512 
L 152.02642 -144.333991 
L 158.36733 -150.74286 
L 164.708239 -156.859673 
L 171.049148 -163.509943 
L 177.390057 -170.521908 
L 183.730966 -176.198213 
L 190.071875 -182.001097 
L 196.412784 -187.530301 
L 202.753693 -192.511386 
L 209.094602 -197.234123 
L 215.435511 -201.622569 
L 221.77642 -205.028918 
L 228.11733 -207.905596 
L 234.458239 -210.352532 
L 240.799148 -212.151275 
L 247.140057 -213.512267 
L 253.480966 -214.859947 
L 259.821875 -214.946011 
L 266.162784 -214.400287 
L 272.503693 -213.896061 
L 278.844602 -213.482653 
L 285.185511 -212.97306 
L 291.52642 -212.561534 
L 297.86733 -212.649547 
L 304.208239 -212.521401 
L 310.549148 -211.534664 
L 316.890057 -210.332744 
L 323.230966 -209.736655 
L 329.571875 -208.822435 
L 335.912784 -207.676955 
L 342.253693 -207.292416 
L 348.594602 -206.456734 
L 354.935511 -205.297578 
L 361.27642 -204.545447 
L 367.61733 -203.714168 
L 373.958239 -202.201971 
L 380.299148 -201.165579 
L 386.640057 -200.267014 
L 392.980966 -198.993628 
L 399.321875 -197.867841 
L 405.662784 -196.948866 
L 412.003693 -195.839796 
L 418.344602 -194.457779 
L 424.685511 -193.511982 
L 431.02642 -192.372616 
L 431.02642 -206.488245 
L 431.02642 -206.488245 
L 424.685511 -207.716544 
L 418.344602 -208.685698 
L 412.003693 -210.088934 
L 405.662784 -211.257768 
L 399.321875 -212.246615 
L 392.980966 -213.458141 
L 386.640057 -214.872495 
L 380.299148 -215.921153 
L 373.958239 -217.023759 
L 367.61733 -218.614487 
L 361.27642 -219.494603 
L 354.935511 -220.346284 
L 348.594602 -221.584919 
L 342.253693 -222.509283 
L 335.912784 -222.936268 
L 329.571875 -224.186309 
L 323.230966 -225.113549 
L 316.890057 -225.787487 
L 310.549148 -227.117399 
L 304.208239 -228.198631 
L 297.86733 -228.330885 
L 291.52642 -228.291752 
L 285.185511 -228.710869 
L 278.844602 -229.269543 
L 272.503693 -229.756676 
L 266.162784 -230.370465 
L 259.821875 -230.9597 
L 253.480966 -230.911933 
L 247.140057 -229.607666 
L 240.799148 -228.322785 
L 234.458239 -226.601767 
L 228.11733 -224.224693 
L 221.77642 -221.346668 
L 215.435511 -217.812758 
L 209.094602 -213.276516 
L 202.753693 -208.418114 
L 196.412784 -203.303245 
L 190.071875 -197.67095 
L 183.730966 -191.700426 
L 177.390057 -185.750726 
L 171.049148 -178.334034 
L 164.708239 -171.258921 
L 158.36733 -164.707637 
L 152.02642 -158.0161 
L 145.685511 -152.009532 
L 139.344602 -147.923525 
L 133.003693 -143.419895 
L 126.662784 -138.714919 
L 120.321875 -135.690204 
L 113.980966 -133.343744 
L 107.640057 -130.985091 
L 101.299148 -130.279324 
L 94.958239 -129.925615 
L 88.61733 -129.215492 
L 82.27642 -129.166431 
L 75.935511 -128.868976 
L 69.594602 -128.844684 
L 63.253693 -129.085836 
L 56.912784 -129.525097 
L 50.571875 -130.021536 
L 44.230966 -130.413278 
L 37.890057 -130.547478 
L 31.549148 -130.828121 
L 25.208239 -131.283262 
L 18.86733 -131.200228 
L 12.52642 -131.146118 
z
" style="stroke: #78c679; stroke-opacity: 0.25"/>
    </defs>
    <g clip-path="url(#pd71074c47e)">
     <use xlink:href="#m718048ab13" x="0" y="480.580742" style="fill: #78c679; fill-opacity: 0.25; stroke: #78c679; stroke-opacity: 0.25"/>
    </g>
   </g>
   <g id="matplotlib.axis_5">
    <g id="xtick_15">
     <g id="line2d_27">
      <g>
       <use xlink:href="#mfbbe4bfc4e" x="50.571875" y="379.534652" style="stroke: #000000; stroke-width: 0.8"/>
      </g>
     </g>
     <g id="text_8">
      <!-- −0.2 -->
      <g transform="translate(32.359766 397.932308) scale(0.15 -0.15)">
       <defs>
        <path id="DejaVuSans-2212" d="M 678 2272 
L 4684 2272 
L 4684 1741 
L 678 1741 
L 678 2272 
z
" transform="scale(0.015625)"/>
       </defs>
       <use xlink:href="#DejaVuSans-2212"/>
       <use xlink:href="#DejaVuSans-30" x="83.789062"/>
       <use xlink:href="#DejaVuSans-2e" x="147.412109"/>
       <use xlink:href="#DejaVuSans-32" x="179.199219"/>
      </g>
     </g>
    </g>
    <g id="xtick_16">
     <g id="line2d_28">
      <g>
       <use xlink:href="#mfbbe4bfc4e" x="113.980966" y="379.534652" style="stroke: #000000; stroke-width: 0.8"/>
      </g>
     </g>
     <g id="text_9">
      <!-- 0.0 -->
      <g transform="translate(102.053622 397.932308) scale(0.15 -0.15)">
       <use xlink:href="#DejaVuSans-30"/>
       <use xlink:href="#DejaVuSans-2e" x="63.623047"/>
       <use xlink:href="#DejaVuSans-30" x="95.410156"/>
      </g>
     </g>
    </g>
    <g id="xtick_17">
     <g id="line2d_29">
      <g>
       <use xlink:href="#mfbbe4bfc4e" x="177.390057" y="379.534652" style="stroke: #000000; stroke-width: 0.8"/>
      </g>
     </g>
     <g id="text_10">
      <!-- 0.2 -->
      <g transform="translate(165.462713 397.932308) scale(0.15 -0.15)">
       <use xlink:href="#DejaVuSans-30"/>
       <use xlink:href="#DejaVuSans-2e" x="63.623047"/>
       <use xlink:href="#DejaVuSans-32" x="95.410156"/>
      </g>
     </g>
    </g>
    <g id="xtick_18">
     <g id="line2d_30">
      <g>
       <use xlink:href="#mfbbe4bfc4e" x="240.799148" y="379.534652" style="stroke: #000000; stroke-width: 0.8"/>
      </g>
     </g>
     <g id="text_11">
      <!-- 0.4 -->
      <g transform="translate(228.871804 397.932308) scale(0.15 -0.15)">
       <defs>
        <path id="DejaVuSans-34" d="M 2419 4116 
L 825 1625 
L 2419 1625 
L 2419 4116 
z
M 2253 4666 
L 3047 4666 
L 3047 1625 
L 3713 1625 
L 3713 1100 
L 3047 1100 
L 3047 0 
L 2419 0 
L 2419 1100 
L 313 1100 
L 313 1709 
L 2253 4666 
z
" transform="scale(0.015625)"/>
       </defs>
       <use xlink:href="#DejaVuSans-30"/>
       <use xlink:href="#DejaVuSans-2e" x="63.623047"/>
       <use xlink:href="#DejaVuSans-34" x="95.410156"/>
      </g>
     </g>
    </g>
    <g id="xtick_19">
     <g id="line2d_31">
      <g>
       <use xlink:href="#mfbbe4bfc4e" x="304.208239" y="379.534652" style="stroke: #000000; stroke-width: 0.8"/>
      </g>
     </g>
     <g id="text_12">
      <!-- 0.6 -->
      <g transform="translate(292.280895 397.932308) scale(0.15 -0.15)">
       <defs>
        <path id="DejaVuSans-36" d="M 2113 2584 
Q 1688 2584 1439 2293 
Q 1191 2003 1191 1497 
Q 1191 994 1439 701 
Q 1688 409 2113 409 
Q 2538 409 2786 701 
Q 3034 994 3034 1497 
Q 3034 2003 2786 2293 
Q 2538 2584 2113 2584 
z
M 3366 4563 
L 3366 3988 
Q 3128 4100 2886 4159 
Q 2644 4219 2406 4219 
Q 1781 4219 1451 3797 
Q 1122 3375 1075 2522 
Q 1259 2794 1537 2939 
Q 1816 3084 2150 3084 
Q 2853 3084 3261 2657 
Q 3669 2231 3669 1497 
Q 3669 778 3244 343 
Q 2819 -91 2113 -91 
Q 1303 -91 875 529 
Q 447 1150 447 2328 
Q 447 3434 972 4092 
Q 1497 4750 2381 4750 
Q 2619 4750 2861 4703 
Q 3103 4656 3366 4563 
z
" transform="scale(0.015625)"/>
       </defs>
       <use xlink:href="#DejaVuSans-30"/>
       <use xlink:href="#DejaVuSans-2e" x="63.623047"/>
       <use xlink:href="#DejaVuSans-36" x="95.410156"/>
      </g>
     </g>
    </g>
    <g id="xtick_20">
     <g id="line2d_32">
      <g>
       <use xlink:href="#mfbbe4bfc4e" x="367.61733" y="379.534652" style="stroke: #000000; stroke-width: 0.8"/>
      </g>
     </g>
     <g id="text_13">
      <!-- 0.8 -->
      <g transform="translate(355.689986 397.932308) scale(0.15 -0.15)">
       <use xlink:href="#DejaVuSans-30"/>
       <use xlink:href="#DejaVuSans-2e" x="63.623047"/>
       <use xlink:href="#DejaVuSans-38" x="95.410156"/>
      </g>
     </g>
    </g>
    <g id="xtick_21">
     <g id="line2d_33">
      <g>
       <use xlink:href="#mfbbe4bfc4e" x="431.02642" y="379.534652" style="stroke: #000000; stroke-width: 0.8"/>
      </g>
     </g>
     <g id="text_14">
      <!-- 1.0 -->
      <g transform="translate(419.099077 397.932308) scale(0.15 -0.15)">
       <use xlink:href="#DejaVuSans-31"/>
       <use xlink:href="#DejaVuSans-2e" x="63.623047"/>
       <use xlink:href="#DejaVuSans-30" x="95.410156"/>
      </g>
     </g>
    </g>
   </g>
   <g id="matplotlib.axis_6">
    <g id="ytick_7">
     <g id="line2d_34">
      <g>
       <use xlink:href="#me42971c31a" x="50.571875" y="356.539932" style="stroke: #000000; stroke-width: 0.8"/>
      </g>
     </g>
     <g id="text_15">
      <!-- 0 -->
      <g transform="translate(34.028125 362.23876) scale(0.15 -0.15)">
       <use xlink:href="#DejaVuSans-30"/>
      </g>
     </g>
    </g>
    <g id="ytick_8">
     <g id="line2d_35">
      <g>
       <use xlink:href="#me42971c31a" x="50.571875" y="320.841864" style="stroke: #000000; stroke-width: 0.8"/>
      </g>
     </g>
     <g id="text_16">
      <!-- 1 -->
      <g transform="translate(34.028125 326.540692) scale(0.15 -0.15)">
       <use xlink:href="#DejaVuSans-31"/>
      </g>
     </g>
    </g>
    <g id="ytick_9">
     <g id="line2d_36">
      <g>
       <use xlink:href="#me42971c31a" x="50.571875" y="285.143796" style="stroke: #000000; stroke-width: 0.8"/>
      </g>
     </g>
     <g id="text_17">
      <!-- 2 -->
      <g transform="translate(34.028125 290.842624) scale(0.15 -0.15)">
       <use xlink:href="#DejaVuSans-32"/>
      </g>
     </g>
    </g>
    <g id="ytick_10">
     <g id="line2d_37">
      <g>
       <use xlink:href="#me42971c31a" x="50.571875" y="249.445729" style="stroke: #000000; stroke-width: 0.8"/>
      </g>
     </g>
     <g id="text_18">
      <!-- 3 -->
      <g transform="translate(34.028125 255.144557) scale(0.15 -0.15)">
       <defs>
        <path id="DejaVuSans-33" d="M 2597 2516 
Q 3050 2419 3304 2112 
Q 3559 1806 3559 1356 
Q 3559 666 3084 287 
Q 2609 -91 1734 -91 
Q 1441 -91 1130 -33 
Q 819 25 488 141 
L 488 750 
Q 750 597 1062 519 
Q 1375 441 1716 441 
Q 2309 441 2620 675 
Q 2931 909 2931 1356 
Q 2931 1769 2642 2001 
Q 2353 2234 1838 2234 
L 1294 2234 
L 1294 2753 
L 1863 2753 
Q 2328 2753 2575 2939 
Q 2822 3125 2822 3475 
Q 2822 3834 2567 4026 
Q 2313 4219 1838 4219 
Q 1578 4219 1281 4162 
Q 984 4106 628 3988 
L 628 4550 
Q 988 4650 1302 4700 
Q 1616 4750 1894 4750 
Q 2613 4750 3031 4423 
Q 3450 4097 3450 3541 
Q 3450 3153 3228 2886 
Q 3006 2619 2597 2516 
z
" transform="scale(0.015625)"/>
       </defs>
       <use xlink:href="#DejaVuSans-33"/>
      </g>
     </g>
    </g>
    <g id="text_19">
     <!-- PO -->
     <g transform="translate(25.094531 321.744036) rotate(-90) scale(0.25 -0.25)">
      <defs>
       <path id="Arial-BoldMT-4f" d="M 278 2263 
Q 278 2963 488 3438 
Q 644 3788 914 4066 
Q 1184 4344 1506 4478 
Q 1934 4659 2494 4659 
Q 3506 4659 4114 4031 
Q 4722 3403 4722 2284 
Q 4722 1175 4119 548 
Q 3516 -78 2506 -78 
Q 1484 -78 881 545 
Q 278 1169 278 2263 
z
M 1231 2294 
Q 1231 1516 1590 1114 
Q 1950 713 2503 713 
Q 3056 713 3411 1111 
Q 3766 1509 3766 2306 
Q 3766 3094 3420 3481 
Q 3075 3869 2503 3869 
Q 1931 3869 1581 3476 
Q 1231 3084 1231 2294 
z
" transform="scale(0.015625)"/>
      </defs>
      <use xlink:href="#Arial-BoldMT-50"/>
      <use xlink:href="#Arial-BoldMT-4f" x="66.699219"/>
     </g>
    </g>
   </g>
   <g id="line2d_38">
    <path d="M 12.52642 352.451231 
L 18.86733 353.8487 
L 25.208239 354.074007 
L 31.549148 355.616583 
L 37.890057 357.203453 
L 44.230966 357.785768 
L 50.571875 358.602907 
L 56.912784 358.775927 
L 63.253693 358.459196 
L 69.594602 358.35041 
L 75.935511 358.671181 
L 82.27642 357.618776 
L 88.61733 357.668383 
L 94.958239 357.130961 
L 101.299148 355.9045 
L 107.640057 355.081017 
L 113.980966 353.964124 
L 120.321875 352.55077 
L 126.662784 351.147728 
L 133.003693 349.148091 
L 139.344602 346.46413 
L 145.685511 343.271727 
L 152.02642 341.149419 
L 158.36733 337.490996 
L 164.708239 334.341611 
L 171.049148 331.298433 
L 177.390057 327.865551 
L 183.730966 324.455091 
L 190.071875 320.751099 
L 196.412784 314.913342 
L 202.753693 307.367975 
L 209.094602 301.690023 
L 215.435511 293.828402 
L 221.77642 286.774757 
L 228.11733 282.041875 
L 234.458239 280.403767 
L 240.799148 278.077791 
L 247.140057 275.511233 
L 253.480966 273.693445 
L 259.821875 271.032868 
L 266.162784 266.931315 
L 272.503693 264.278029 
L 278.844602 262.005883 
L 285.185511 260.028583 
L 291.52642 258.836359 
L 297.86733 259.016543 
L 304.208239 258.026094 
L 310.549148 258.731499 
L 316.890057 259.031006 
L 323.230966 258.762938 
L 329.571875 257.119258 
L 335.912784 258.080707 
L 342.253693 256.293378 
L 348.594602 256.134773 
L 354.935511 256.507957 
L 361.27642 255.945797 
L 367.61733 255.007806 
L 373.958239 256.28307 
L 380.299148 256.188389 
L 386.640057 257.097463 
L 392.980966 259.286249 
L 399.321875 259.172989 
L 405.662784 259.583711 
L 412.003693 258.868827 
L 418.344602 257.459744 
L 424.685511 254.513733 
L 431.02642 254.93209 
" clip-path="url(#pd71074c47e)" style="fill: none; stroke: #2c7fb8; stroke-width: 2; stroke-linecap: square"/>
   </g>
   <g id="line2d_39">
    <path d="M 12.52642 356.083765 
L 18.86733 356.055129 
L 25.208239 355.96038 
L 31.549148 356.410245 
L 37.890057 356.675365 
L 44.230966 356.818604 
L 50.571875 357.183972 
L 56.912784 357.673351 
L 63.253693 358.083028 
L 69.594602 358.330032 
L 75.935511 358.268606 
L 82.27642 357.94763 
L 88.61733 357.853578 
L 94.958239 357.130725 
L 101.299148 356.74096 
L 107.640057 356.017523 
L 113.980966 353.679111 
L 120.321875 351.348124 
L 126.662784 348.388221 
L 133.003693 343.756194 
L 139.344602 339.307125 
L 145.685511 335.308416 
L 152.02642 329.405696 
L 158.36733 322.855493 
L 164.708239 316.521445 
L 171.049148 309.658753 
L 177.390057 302.444425 
L 183.730966 296.631422 
L 190.071875 290.744718 
L 196.412784 285.163969 
L 202.753693 280.115992 
L 209.094602 275.325422 
L 215.435511 270.863078 
L 221.77642 267.392949 
L 228.11733 264.515597 
L 234.458239 262.103592 
L 240.799148 260.343712 
L 247.140057 259.020775 
L 253.480966 257.694801 
L 259.821875 257.627886 
L 266.162784 258.195366 
L 272.503693 258.754373 
L 278.844602 259.204644 
L 285.185511 259.738777 
L 291.52642 260.154099 
L 297.86733 260.090526 
L 304.208239 260.220726 
L 310.549148 261.254711 
L 316.890057 262.520626 
L 323.230966 263.15564 
L 329.571875 264.07637 
L 335.912784 265.27413 
L 342.253693 265.679892 
L 348.594602 266.559915 
L 354.935511 267.758811 
L 361.27642 268.560717 
L 367.61733 269.416414 
L 373.958239 270.967877 
L 380.299148 272.037375 
L 386.640057 273.010987 
L 392.980966 274.354857 
L 399.321875 275.523514 
L 405.662784 276.477425 
L 412.003693 277.616377 
L 418.344602 279.009003 
L 424.685511 279.966478 
L 431.02642 281.150311 
" clip-path="url(#pd71074c47e)" style="fill: none; stroke: #78c679; stroke-width: 2; stroke-linecap: square"/>
   </g>
   <g id="line2d_40">
    <path d="M 113.980966 379.534652 
L 113.980966 227.832326 
" clip-path="url(#pd71074c47e)" style="fill: none; stroke-dasharray: 4.44,1.92; stroke-dashoffset: 0; stroke: #808080; stroke-opacity: 0.8; stroke-width: 1.2"/>
   </g>
   <g id="patch_9">
    <path d="M 50.571875 379.534652 
L 50.571875 227.832326 
" style="fill: none; stroke: #000000; stroke-width: 0.8; stroke-linejoin: miter; stroke-linecap: square"/>
   </g>
   <g id="patch_10">
    <path d="M 50.571875 379.534652 
L 431.02642 379.534652 
" style="fill: none; stroke: #000000; stroke-width: 0.8; stroke-linejoin: miter; stroke-linecap: square"/>
   </g>
  </g>
  <g id="axes_4">
   <g id="patch_11">
    <path d="M 507.11733 379.534652 
L 887.571875 379.534652 
L 887.571875 227.832326 
L 507.11733 227.832326 
z
" style="fill: #ffffff"/>
   </g>
   <g id="PolyCollection_7">
    <defs>
     <path id="m3f277894a3" d="M 469.071875 -149.04827 
L 469.071875 -137.412543 
L 475.412784 -139.485991 
L 481.753693 -139.033413 
L 488.094602 -140.012102 
L 494.435511 -137.815732 
L 500.77642 -136.72031 
L 507.11733 -133.31955 
L 513.458239 -131.556952 
L 519.799148 -131.002487 
L 526.140057 -131.267626 
L 532.480966 -133.042 
L 538.821875 -133.437796 
L 545.162784 -132.216649 
L 551.503693 -129.515034 
L 557.844602 -128.669958 
L 564.185511 -129.132203 
L 570.52642 -127.301254 
L 576.86733 -125.458753 
L 583.208239 -123.27052 
L 589.549148 -117.675872 
L 595.890057 -115.474965 
L 602.230966 -114.491048 
L 608.571875 -113.199838 
L 614.912784 -112.861754 
L 621.253693 -111.805745 
L 627.594602 -109.442862 
L 633.935511 -108.235068 
L 640.27642 -107.94165 
L 646.61733 -110.257439 
L 652.958239 -110.599606 
L 659.299148 -112.374152 
L 665.640057 -111.724755 
L 671.980966 -112.97708 
L 678.321875 -114.636583 
L 684.662784 -117.595206 
L 691.003693 -121.567288 
L 697.344602 -126.377847 
L 703.685511 -129.221944 
L 710.02642 -131.083998 
L 716.36733 -132.156917 
L 722.708239 -131.226571 
L 729.049148 -130.323552 
L 735.390057 -132.224471 
L 741.730966 -133.631428 
L 748.071875 -134.491419 
L 754.412784 -135.45304 
L 760.753693 -135.702216 
L 767.094602 -136.498828 
L 773.435511 -137.585266 
L 779.77642 -136.934017 
L 786.11733 -137.078281 
L 792.458239 -137.504758 
L 798.799148 -139.902078 
L 805.140057 -140.659868 
L 811.480966 -140.277754 
L 817.821875 -141.084862 
L 824.162784 -141.909347 
L 830.503693 -140.406494 
L 836.844602 -139.918398 
L 843.185511 -138.774418 
L 849.52642 -138.800398 
L 855.86733 -137.790007 
L 862.208239 -139.130013 
L 868.549148 -142.209459 
L 874.890057 -143.332998 
L 881.230966 -141.281341 
L 887.571875 -142.093209 
L 887.571875 -152.727788 
L 887.571875 -152.727788 
L 881.230966 -151.639739 
L 874.890057 -153.838586 
L 868.549148 -152.806099 
L 862.208239 -149.764439 
L 855.86733 -148.581351 
L 849.52642 -149.781802 
L 843.185511 -149.462111 
L 836.844602 -150.441855 
L 830.503693 -151.152711 
L 824.162784 -152.953819 
L 817.821875 -152.452623 
L 811.480966 -152.188302 
L 805.140057 -152.810095 
L 798.799148 -151.584249 
L 792.458239 -148.622648 
L 786.11733 -147.99896 
L 779.77642 -147.824931 
L 773.435511 -148.579917 
L 767.094602 -147.359417 
L 760.753693 -146.376104 
L 754.412784 -146.033367 
L 748.071875 -145.240045 
L 741.730966 -144.284439 
L 735.390057 -142.921229 
L 729.049148 -140.918063 
L 722.708239 -142.059221 
L 716.36733 -143.266674 
L 710.02642 -142.177541 
L 703.685511 -140.259875 
L 697.344602 -136.982165 
L 691.003693 -131.842687 
L 684.662784 -127.858159 
L 678.321875 -125.015149 
L 671.980966 -123.627219 
L 665.640057 -122.859771 
L 659.299148 -124.050183 
L 652.958239 -122.354682 
L 646.61733 -122.07696 
L 640.27642 -119.512092 
L 633.935511 -119.979701 
L 627.594602 -121.10731 
L 621.253693 -123.545862 
L 614.912784 -125.056784 
L 608.571875 -125.225471 
L 602.230966 -125.938897 
L 595.890057 -126.915617 
L 589.549148 -128.858193 
L 583.208239 -134.542794 
L 576.86733 -136.673788 
L 570.52642 -138.269797 
L 564.185511 -140.096918 
L 557.844602 -139.85169 
L 551.503693 -140.746049 
L 545.162784 -143.614306 
L 538.821875 -145.214573 
L 532.480966 -144.888334 
L 526.140057 -142.844349 
L 519.799148 -142.530032 
L 513.458239 -143.094218 
L 507.11733 -144.969678 
L 500.77642 -148.479447 
L 494.435511 -149.37528 
L 488.094602 -151.853079 
L 481.753693 -150.901756 
L 475.412784 -151.350002 
L 469.071875 -149.04827 
z
" style="stroke: #78c679; stroke-opacity: 0.25"/>
    </defs>
    <g clip-path="url(#p3c7785a175)">
     <use xlink:href="#m3f277894a3" x="0" y="480.580742" style="fill: #78c679; fill-opacity: 0.25; stroke: #78c679; stroke-opacity: 0.25"/>
    </g>
   </g>
   <g id="PolyCollection_8">
    <defs>
     <path id="m3b1a9319a7" d="M 469.071875 -244.44345 
L 469.071875 -194.262898 
L 475.412784 -193.945003 
L 481.753693 -183.908638 
L 488.094602 -185.995804 
L 494.435511 -183.912567 
L 500.77642 -177.699842 
L 507.11733 -186.95438 
L 513.458239 -185.025018 
L 519.799148 -183.733269 
L 526.140057 -181.535879 
L 532.480966 -186.585039 
L 538.821875 -180.494861 
L 545.162784 -180.274074 
L 551.503693 -186.082633 
L 557.844602 -189.460227 
L 564.185511 -184.828391 
L 570.52642 -180.757879 
L 576.86733 -180.800194 
L 583.208239 -172.0007 
L 589.549148 -169.511324 
L 595.890057 -172.946536 
L 602.230966 -179.673972 
L 608.571875 -176.00581 
L 614.912784 -176.226297 
L 621.253693 -171.645646 
L 627.594602 -161.809605 
L 633.935511 -163.791948 
L 640.27642 -154.756844 
L 646.61733 -154.051128 
L 652.958239 -153.308012 
L 659.299148 -155.646468 
L 665.640057 -157.704419 
L 671.980966 -161.738986 
L 678.321875 -161.079153 
L 684.662784 -157.228576 
L 691.003693 -150.113955 
L 697.344602 -147.903561 
L 703.685511 -145.524395 
L 710.02642 -144.978139 
L 716.36733 -153.83515 
L 722.708239 -157.261635 
L 729.049148 -157.673031 
L 735.390057 -159.882185 
L 741.730966 -160.622276 
L 748.071875 -159.128422 
L 754.412784 -158.967465 
L 760.753693 -159.818727 
L 767.094602 -161.007827 
L 773.435511 -166.405638 
L 779.77642 -168.129557 
L 786.11733 -166.391827 
L 792.458239 -163.104127 
L 798.799148 -160.478287 
L 805.140057 -165.103058 
L 811.480966 -173.088005 
L 817.821875 -173.214569 
L 824.162784 -174.147731 
L 830.503693 -172.068763 
L 836.844602 -168.922909 
L 843.185511 -164.463926 
L 849.52642 -163.079523 
L 855.86733 -167.717484 
L 862.208239 -170.602949 
L 868.549148 -175.359792 
L 874.890057 -179.407644 
L 881.230966 -183.396244 
L 887.571875 -180.55261 
L 887.571875 -218.121767 
L 887.571875 -218.121767 
L 881.230966 -219.587481 
L 874.890057 -215.206182 
L 868.549148 -209.999404 
L 862.208239 -208.111062 
L 855.86733 -207.117056 
L 849.52642 -202.622521 
L 843.185511 -204.999324 
L 836.844602 -210.256 
L 830.503693 -212.647643 
L 824.162784 -214.882457 
L 817.821875 -215.223632 
L 811.480966 -214.899916 
L 805.140057 -202.107482 
L 798.799148 -196.718829 
L 792.458239 -200.169485 
L 786.11733 -203.743989 
L 779.77642 -205.215625 
L 773.435511 -202.380529 
L 767.094602 -195.309411 
L 760.753693 -194.634942 
L 754.412784 -193.650456 
L 748.071875 -194.99912 
L 741.730966 -197.893425 
L 735.390057 -197.548582 
L 729.049148 -193.1864 
L 722.708239 -192.580026 
L 716.36733 -187.699942 
L 710.02642 -177.337049 
L 703.685511 -178.728762 
L 697.344602 -181.667347 
L 691.003693 -183.952921 
L 684.662784 -191.939621 
L 678.321875 -198.001754 
L 671.980966 -199.100871 
L 665.640057 -193.90545 
L 659.299148 -187.846872 
L 652.958239 -182.580344 
L 646.61733 -182.35368 
L 640.27642 -184.595819 
L 633.935511 -195.754498 
L 627.594602 -197.314694 
L 621.253693 -211.853629 
L 614.912784 -218.336635 
L 608.571875 -216.576898 
L 602.230966 -219.923998 
L 595.890057 -209.437249 
L 589.549148 -205.367739 
L 583.208239 -209.03425 
L 576.86733 -225.241788 
L 570.52642 -226.276712 
L 564.185511 -229.068194 
L 557.844602 -228.799025 
L 551.503693 -222.720406 
L 545.162784 -217.513682 
L 538.821875 -219.078774 
L 532.480966 -224.189528 
L 526.140057 -217.414233 
L 519.799148 -222.155564 
L 513.458239 -225.387266 
L 507.11733 -227.00823 
L 500.77642 -217.301179 
L 494.435511 -227.822323 
L 488.094602 -232.177256 
L 481.753693 -232.040271 
L 475.412784 -245.852855 
L 469.071875 -244.44345 
z
" style="stroke: #2c7fb8; stroke-opacity: 0.15"/>
    </defs>
    <g clip-path="url(#p3c7785a175)">
     <use xlink:href="#m3b1a9319a7" x="0" y="480.580742" style="fill: #2c7fb8; fill-opacity: 0.15; stroke: #2c7fb8; stroke-opacity: 0.15"/>
    </g>
   </g>
   <g id="matplotlib.axis_7">
    <g id="xtick_22">
     <g id="line2d_41">
      <g>
       <use xlink:href="#mfbbe4bfc4e" x="507.11733" y="379.534652" style="stroke: #000000; stroke-width: 0.8"/>
      </g>
     </g>
     <g id="text_20">
      <!-- −0.2 -->
      <g transform="translate(488.90522 397.932308) scale(0.15 -0.15)">
       <use xlink:href="#DejaVuSans-2212"/>
       <use xlink:href="#DejaVuSans-30" x="83.789062"/>
       <use xlink:href="#DejaVuSans-2e" x="147.412109"/>
       <use xlink:href="#DejaVuSans-32" x="179.199219"/>
      </g>
     </g>
    </g>
    <g id="xtick_23">
     <g id="line2d_42">
      <g>
       <use xlink:href="#mfbbe4bfc4e" x="570.52642" y="379.534652" style="stroke: #000000; stroke-width: 0.8"/>
      </g>
     </g>
     <g id="text_21">
      <!-- 0.0 -->
      <g transform="translate(558.599077 397.932308) scale(0.15 -0.15)">
       <use xlink:href="#DejaVuSans-30"/>
       <use xlink:href="#DejaVuSans-2e" x="63.623047"/>
       <use xlink:href="#DejaVuSans-30" x="95.410156"/>
      </g>
     </g>
    </g>
    <g id="xtick_24">
     <g id="line2d_43">
      <g>
       <use xlink:href="#mfbbe4bfc4e" x="633.935511" y="379.534652" style="stroke: #000000; stroke-width: 0.8"/>
      </g>
     </g>
     <g id="text_22">
      <!-- 0.2 -->
      <g transform="translate(622.008168 397.932308) scale(0.15 -0.15)">
       <use xlink:href="#DejaVuSans-30"/>
       <use xlink:href="#DejaVuSans-2e" x="63.623047"/>
       <use xlink:href="#DejaVuSans-32" x="95.410156"/>
      </g>
     </g>
    </g>
    <g id="xtick_25">
     <g id="line2d_44">
      <g>
       <use xlink:href="#mfbbe4bfc4e" x="697.344602" y="379.534652" style="stroke: #000000; stroke-width: 0.8"/>
      </g>
     </g>
     <g id="text_23">
      <!-- 0.4 -->
      <g transform="translate(685.417259 397.932308) scale(0.15 -0.15)">
       <use xlink:href="#DejaVuSans-30"/>
       <use xlink:href="#DejaVuSans-2e" x="63.623047"/>
       <use xlink:href="#DejaVuSans-34" x="95.410156"/>
      </g>
     </g>
    </g>
    <g id="xtick_26">
     <g id="line2d_45">
      <g>
       <use xlink:href="#mfbbe4bfc4e" x="760.753693" y="379.534652" style="stroke: #000000; stroke-width: 0.8"/>
      </g>
     </g>
     <g id="text_24">
      <!-- 0.6 -->
      <g transform="translate(748.826349 397.932308) scale(0.15 -0.15)">
       <use xlink:href="#DejaVuSans-30"/>
       <use xlink:href="#DejaVuSans-2e" x="63.623047"/>
       <use xlink:href="#DejaVuSans-36" x="95.410156"/>
      </g>
     </g>
    </g>
    <g id="xtick_27">
     <g id="line2d_46">
      <g>
       <use xlink:href="#mfbbe4bfc4e" x="824.162784" y="379.534652" style="stroke: #000000; stroke-width: 0.8"/>
      </g>
     </g>
     <g id="text_25">
      <!-- 0.8 -->
      <g transform="translate(812.23544 397.932308) scale(0.15 -0.15)">
       <use xlink:href="#DejaVuSans-30"/>
       <use xlink:href="#DejaVuSans-2e" x="63.623047"/>
       <use xlink:href="#DejaVuSans-38" x="95.410156"/>
      </g>
     </g>
    </g>
    <g id="xtick_28">
     <g id="line2d_47">
      <g>
       <use xlink:href="#mfbbe4bfc4e" x="887.571875" y="379.534652" style="stroke: #000000; stroke-width: 0.8"/>
      </g>
     </g>
     <g id="text_26">
      <!-- 1.0 -->
      <g transform="translate(875.644531 397.932308) scale(0.15 -0.15)">
       <use xlink:href="#DejaVuSans-31"/>
       <use xlink:href="#DejaVuSans-2e" x="63.623047"/>
       <use xlink:href="#DejaVuSans-30" x="95.410156"/>
      </g>
     </g>
    </g>
   </g>
   <g id="matplotlib.axis_8">
    <g id="ytick_11">
     <g id="line2d_48">
      <g>
       <use xlink:href="#me42971c31a" x="507.11733" y="378.644327" style="stroke: #000000; stroke-width: 0.8"/>
      </g>
     </g>
     <g id="text_27">
      <!-- 1.6 -->
      <g transform="translate(476.262642 384.343156) scale(0.15 -0.15)">
       <use xlink:href="#DejaVuSans-31"/>
       <use xlink:href="#DejaVuSans-2e" x="63.623047"/>
       <use xlink:href="#DejaVuSans-36" x="95.410156"/>
      </g>
     </g>
    </g>
    <g id="ytick_12">
     <g id="line2d_49">
      <g>
       <use xlink:href="#me42971c31a" x="507.11733" y="324.298926" style="stroke: #000000; stroke-width: 0.8"/>
      </g>
     </g>
     <g id="text_28">
      <!-- 1.8 -->
      <g transform="translate(476.262642 329.997754) scale(0.15 -0.15)">
       <use xlink:href="#DejaVuSans-31"/>
       <use xlink:href="#DejaVuSans-2e" x="63.623047"/>
       <use xlink:href="#DejaVuSans-38" x="95.410156"/>
      </g>
     </g>
    </g>
    <g id="ytick_13">
     <g id="line2d_50">
      <g>
       <use xlink:href="#me42971c31a" x="507.11733" y="269.953525" style="stroke: #000000; stroke-width: 0.8"/>
      </g>
     </g>
     <g id="text_29">
      <!-- 2.0 -->
      <g transform="translate(476.262642 275.652353) scale(0.15 -0.15)">
       <use xlink:href="#DejaVuSans-32"/>
       <use xlink:href="#DejaVuSans-2e" x="63.623047"/>
       <use xlink:href="#DejaVuSans-30" x="95.410156"/>
      </g>
     </g>
    </g>
   </g>
   <g id="line2d_51">
    <path d="M 469.071875 261.227567 
L 475.412784 260.681813 
L 481.753693 272.606287 
L 488.094602 271.494212 
L 494.435511 274.713297 
L 500.77642 283.080231 
L 507.11733 273.599437 
L 513.458239 275.3746 
L 519.799148 277.636325 
L 526.140057 281.105686 
L 532.480966 275.193459 
L 538.821875 280.793924 
L 545.162784 281.686864 
L 551.503693 276.179222 
L 557.844602 271.451116 
L 564.185511 273.632449 
L 570.52642 277.063446 
L 576.86733 277.559751 
L 583.208239 290.063267 
L 589.549148 293.14121 
L 595.890057 289.388849 
L 602.230966 280.781757 
L 608.571875 284.289387 
L 614.912784 283.299276 
L 621.253693 288.831105 
L 627.594602 301.018592 
L 633.935511 300.807518 
L 640.27642 310.90441 
L 646.61733 312.378337 
L 652.958239 312.636564 
L 659.299148 308.834072 
L 665.640057 304.775807 
L 671.980966 300.160813 
L 678.321875 301.040289 
L 684.662784 305.996643 
L 691.003693 313.547303 
L 697.344602 315.795288 
L 703.685511 318.454163 
L 710.02642 319.423147 
L 716.36733 309.813195 
L 722.708239 305.659911 
L 729.049148 305.151026 
L 735.390057 301.865358 
L 741.730966 301.322892 
L 748.071875 303.51697 
L 754.412784 304.271781 
L 760.753693 303.353907 
L 767.094602 302.422123 
L 773.435511 296.187658 
L 779.77642 293.908151 
L 786.11733 295.512834 
L 792.458239 298.943935 
L 798.799148 301.982184 
L 805.140057 296.975472 
L 811.480966 286.586781 
L 817.821875 286.361641 
L 824.162784 286.065648 
L 830.503693 288.222539 
L 836.844602 290.991287 
L 843.185511 295.849116 
L 849.52642 297.72972 
L 855.86733 293.163472 
L 862.208239 291.223736 
L 868.549148 287.901144 
L 874.890057 283.273829 
L 881.230966 279.088879 
L 887.571875 281.243553 
" clip-path="url(#p3c7785a175)" style="fill: none; stroke: #2c7fb8; stroke-width: 2; stroke-linecap: square"/>
   </g>
   <g id="line2d_52">
    <path d="M 469.071875 337.350336 
L 475.412784 335.162745 
L 481.753693 335.613157 
L 488.094602 334.648151 
L 494.435511 336.985236 
L 500.77642 337.980863 
L 507.11733 341.436128 
L 513.458239 343.255157 
L 519.799148 343.814482 
L 526.140057 343.524754 
L 532.480966 341.615575 
L 538.821875 341.254557 
L 545.162784 342.665264 
L 551.503693 345.4502 
L 557.844602 346.319917 
L 564.185511 345.966181 
L 570.52642 347.795216 
L 576.86733 349.514471 
L 583.208239 351.674085 
L 589.549148 357.313709 
L 595.890057 359.385451 
L 602.230966 360.365769 
L 608.571875 361.368087 
L 614.912784 361.621473 
L 621.253693 362.904938 
L 627.594602 365.305655 
L 633.935511 366.473357 
L 640.27642 366.853871 
L 646.61733 364.413542 
L 652.958239 364.103598 
L 659.299148 362.368574 
L 665.640057 363.288479 
L 671.980966 362.278592 
L 678.321875 360.754876 
L 684.662784 357.85406 
L 691.003693 353.875754 
L 697.344602 348.900736 
L 703.685511 345.839832 
L 710.02642 343.949972 
L 716.36733 342.868946 
L 722.708239 343.937845 
L 729.049148 344.959935 
L 735.390057 343.007892 
L 741.730966 341.622808 
L 748.071875 340.71501 
L 754.412784 339.837538 
L 760.753693 339.541582 
L 767.094602 338.651619 
L 773.435511 337.49815 
L 779.77642 338.201268 
L 786.11733 338.042121 
L 792.458239 337.517039 
L 798.799148 334.837578 
L 805.140057 333.84576 
L 811.480966 334.347714 
L 817.821875 333.811999 
L 824.162784 333.149158 
L 830.503693 334.801139 
L 836.844602 335.400615 
L 843.185511 336.462477 
L 849.52642 336.289642 
L 855.86733 337.395063 
L 862.208239 336.133516 
L 868.549148 333.072962 
L 874.890057 331.99495 
L 881.230966 334.120201 
L 887.571875 333.170243 
" clip-path="url(#p3c7785a175)" style="fill: none; stroke: #78c679; stroke-width: 2; stroke-linecap: square"/>
   </g>
   <g id="line2d_53">
    <path d="M 570.52642 379.534652 
L 570.52642 227.832326 
" clip-path="url(#p3c7785a175)" style="fill: none; stroke-dasharray: 4.44,1.92; stroke-dashoffset: 0; stroke: #808080; stroke-opacity: 0.8; stroke-width: 1.2"/>
   </g>
   <g id="patch_12">
    <path d="M 507.11733 379.534652 
L 507.11733 227.832326 
" style="fill: none; stroke: #000000; stroke-width: 0.8; stroke-linejoin: miter; stroke-linecap: square"/>
   </g>
   <g id="patch_13">
    <path d="M 507.11733 379.534652 
L 887.571875 379.534652 
" style="fill: none; stroke: #000000; stroke-width: 0.8; stroke-linejoin: miter; stroke-linecap: square"/>
   </g>
   <g id="text_30">
    <!-- ΔFiring Rate (spikes/s) -->
    <g transform="translate(110.810511 25.399219) scale(0.25 -0.25)">
     <defs>
      <path id="Arial-BoldMT-394" d="M 4597 0 
L 0 0 
L 1784 4581 
L 2763 4581 
L 4597 0 
z
M 3294 772 
L 2263 3513 
L 1263 772 
L 3294 772 
z
" transform="scale(0.015625)"/>
      <path id="Arial-BoldMT-46" d="M 472 0 
L 472 4581 
L 3613 4581 
L 3613 3806 
L 1397 3806 
L 1397 2722 
L 3309 2722 
L 3309 1947 
L 1397 1947 
L 1397 0 
L 472 0 
z
" transform="scale(0.015625)"/>
      <path id="Arial-BoldMT-69" d="M 459 3769 
L 459 4581 
L 1338 4581 
L 1338 3769 
L 459 3769 
z
M 459 0 
L 459 3319 
L 1338 3319 
L 1338 0 
L 459 0 
z
" transform="scale(0.015625)"/>
      <path id="Arial-BoldMT-72" d="M 1300 0 
L 422 0 
L 422 3319 
L 1238 3319 
L 1238 2847 
Q 1447 3181 1614 3287 
Q 1781 3394 1994 3394 
Q 2294 3394 2572 3228 
L 2300 2463 
Q 2078 2606 1888 2606 
Q 1703 2606 1575 2504 
Q 1447 2403 1373 2137 
Q 1300 1872 1300 1025 
L 1300 0 
z
" transform="scale(0.015625)"/>
      <path id="Arial-BoldMT-6e" d="M 3478 0 
L 2600 0 
L 2600 1694 
Q 2600 2231 2544 2389 
Q 2488 2547 2361 2634 
Q 2234 2722 2056 2722 
Q 1828 2722 1647 2597 
Q 1466 2472 1398 2265 
Q 1331 2059 1331 1503 
L 1331 0 
L 453 0 
L 453 3319 
L 1269 3319 
L 1269 2831 
Q 1703 3394 2363 3394 
Q 2653 3394 2893 3289 
Q 3134 3184 3257 3021 
Q 3381 2859 3429 2653 
Q 3478 2447 3478 2063 
L 3478 0 
z
" transform="scale(0.015625)"/>
      <path id="Arial-BoldMT-67" d="M 378 -219 
L 1381 -341 
Q 1406 -516 1497 -581 
Q 1622 -675 1891 -675 
Q 2234 -675 2406 -572 
Q 2522 -503 2581 -350 
Q 2622 -241 2622 53 
L 2622 538 
Q 2228 0 1628 0 
Q 959 0 569 566 
Q 263 1013 263 1678 
Q 263 2513 664 2953 
Q 1066 3394 1663 3394 
Q 2278 3394 2678 2853 
L 2678 3319 
L 3500 3319 
L 3500 341 
Q 3500 -247 3403 -537 
Q 3306 -828 3131 -993 
Q 2956 -1159 2664 -1253 
Q 2372 -1347 1925 -1347 
Q 1081 -1347 728 -1058 
Q 375 -769 375 -325 
Q 375 -281 378 -219 
z
M 1163 1728 
Q 1163 1200 1367 954 
Q 1572 709 1872 709 
Q 2194 709 2416 961 
Q 2638 1213 2638 1706 
Q 2638 2222 2425 2472 
Q 2213 2722 1888 2722 
Q 1572 2722 1367 2476 
Q 1163 2231 1163 1728 
z
" transform="scale(0.015625)"/>
      <path id="Arial-BoldMT-20" transform="scale(0.015625)"/>
      <path id="Arial-BoldMT-52" d="M 469 0 
L 469 4581 
L 2416 4581 
Q 3150 4581 3483 4457 
Q 3816 4334 4016 4018 
Q 4216 3703 4216 3297 
Q 4216 2781 3912 2445 
Q 3609 2109 3006 2022 
Q 3306 1847 3501 1637 
Q 3697 1428 4028 894 
L 4588 0 
L 3481 0 
L 2813 997 
Q 2456 1531 2325 1670 
Q 2194 1809 2047 1861 
Q 1900 1913 1581 1913 
L 1394 1913 
L 1394 0 
L 469 0 
z
M 1394 2644 
L 2078 2644 
Q 2744 2644 2909 2700 
Q 3075 2756 3169 2893 
Q 3263 3031 3263 3238 
Q 3263 3469 3139 3611 
Q 3016 3753 2791 3791 
Q 2678 3806 2116 3806 
L 1394 3806 
L 1394 2644 
z
" transform="scale(0.015625)"/>
      <path id="Arial-BoldMT-61" d="M 1116 2306 
L 319 2450 
Q 453 2931 781 3162 
Q 1109 3394 1756 3394 
Q 2344 3394 2631 3255 
Q 2919 3116 3036 2902 
Q 3153 2688 3153 2116 
L 3144 1091 
Q 3144 653 3186 445 
Q 3228 238 3344 0 
L 2475 0 
Q 2441 88 2391 259 
Q 2369 338 2359 363 
Q 2134 144 1878 34 
Q 1622 -75 1331 -75 
Q 819 -75 523 203 
Q 228 481 228 906 
Q 228 1188 362 1408 
Q 497 1628 739 1745 
Q 981 1863 1438 1950 
Q 2053 2066 2291 2166 
L 2291 2253 
Q 2291 2506 2166 2614 
Q 2041 2722 1694 2722 
Q 1459 2722 1328 2630 
Q 1197 2538 1116 2306 
z
M 2291 1594 
Q 2122 1538 1756 1459 
Q 1391 1381 1278 1306 
Q 1106 1184 1106 997 
Q 1106 813 1243 678 
Q 1381 544 1594 544 
Q 1831 544 2047 700 
Q 2206 819 2256 991 
Q 2291 1103 2291 1419 
L 2291 1594 
z
" transform="scale(0.015625)"/>
      <path id="Arial-BoldMT-74" d="M 1981 3319 
L 1981 2619 
L 1381 2619 
L 1381 1281 
Q 1381 875 1398 808 
Q 1416 741 1477 697 
Q 1538 653 1625 653 
Q 1747 653 1978 738 
L 2053 56 
Q 1747 -75 1359 -75 
Q 1122 -75 931 4 
Q 741 84 652 211 
Q 563 338 528 553 
Q 500 706 500 1172 
L 500 2619 
L 97 2619 
L 97 3319 
L 500 3319 
L 500 3978 
L 1381 4491 
L 1381 3319 
L 1981 3319 
z
" transform="scale(0.015625)"/>
      <path id="Arial-BoldMT-65" d="M 2381 1056 
L 3256 909 
Q 3088 428 2723 176 
Q 2359 -75 1813 -75 
Q 947 -75 531 491 
Q 203 944 203 1634 
Q 203 2459 634 2926 
Q 1066 3394 1725 3394 
Q 2466 3394 2894 2905 
Q 3322 2416 3303 1406 
L 1103 1406 
Q 1113 1016 1316 798 
Q 1519 581 1822 581 
Q 2028 581 2168 693 
Q 2309 806 2381 1056 
z
M 2431 1944 
Q 2422 2325 2234 2523 
Q 2047 2722 1778 2722 
Q 1491 2722 1303 2513 
Q 1116 2303 1119 1944 
L 2431 1944 
z
" transform="scale(0.015625)"/>
      <path id="Arial-BoldMT-28" d="M 1916 -1347 
L 1313 -1347 
Q 834 -625 584 153 
Q 334 931 334 1659 
Q 334 2563 644 3369 
Q 913 4069 1325 4659 
L 1925 4659 
Q 1497 3713 1336 3048 
Q 1175 2384 1175 1641 
Q 1175 1128 1270 590 
Q 1366 53 1531 -431 
Q 1641 -750 1916 -1347 
z
" transform="scale(0.015625)"/>
      <path id="Arial-BoldMT-73" d="M 150 947 
L 1031 1081 
Q 1088 825 1259 692 
Q 1431 559 1741 559 
Q 2081 559 2253 684 
Q 2369 772 2369 919 
Q 2369 1019 2306 1084 
Q 2241 1147 2013 1200 
Q 950 1434 666 1628 
Q 272 1897 272 2375 
Q 272 2806 612 3100 
Q 953 3394 1669 3394 
Q 2350 3394 2681 3172 
Q 3013 2950 3138 2516 
L 2309 2363 
Q 2256 2556 2107 2659 
Q 1959 2763 1684 2763 
Q 1338 2763 1188 2666 
Q 1088 2597 1088 2488 
Q 1088 2394 1175 2328 
Q 1294 2241 1995 2081 
Q 2697 1922 2975 1691 
Q 3250 1456 3250 1038 
Q 3250 581 2869 253 
Q 2488 -75 1741 -75 
Q 1063 -75 667 200 
Q 272 475 150 947 
z
" transform="scale(0.015625)"/>
      <path id="Arial-BoldMT-70" d="M 434 3319 
L 1253 3319 
L 1253 2831 
Q 1413 3081 1684 3237 
Q 1956 3394 2288 3394 
Q 2866 3394 3269 2941 
Q 3672 2488 3672 1678 
Q 3672 847 3265 386 
Q 2859 -75 2281 -75 
Q 2006 -75 1782 34 
Q 1559 144 1313 409 
L 1313 -1263 
L 434 -1263 
L 434 3319 
z
M 1303 1716 
Q 1303 1156 1525 889 
Q 1747 622 2066 622 
Q 2372 622 2575 867 
Q 2778 1113 2778 1672 
Q 2778 2194 2568 2447 
Q 2359 2700 2050 2700 
Q 1728 2700 1515 2451 
Q 1303 2203 1303 1716 
z
" transform="scale(0.015625)"/>
      <path id="Arial-BoldMT-6b" d="M 428 0 
L 428 4581 
L 1306 4581 
L 1306 2150 
L 2334 3319 
L 3416 3319 
L 2281 2106 
L 3497 0 
L 2550 0 
L 1716 1491 
L 1306 1063 
L 1306 0 
L 428 0 
z
" transform="scale(0.015625)"/>
      <path id="Arial-BoldMT-2f" d="M -9 -78 
L 1125 4659 
L 1784 4659 
L 638 -78 
L -9 -78 
z
" transform="scale(0.015625)"/>
      <path id="Arial-BoldMT-29" d="M 216 -1347 
Q 475 -791 581 -494 
Q 688 -197 778 190 
Q 869 578 912 926 
Q 956 1275 956 1641 
Q 956 2384 797 3048 
Q 638 3713 209 4659 
L 806 4659 
Q 1278 3988 1539 3234 
Q 1800 2481 1800 1706 
Q 1800 1053 1594 306 
Q 1359 -531 822 -1347 
L 216 -1347 
z
" transform="scale(0.015625)"/>
     </defs>
     <use xlink:href="#Arial-BoldMT-394"/>
     <use xlink:href="#Arial-BoldMT-46" x="71.875"/>
     <use xlink:href="#Arial-BoldMT-69" x="132.958984"/>
     <use xlink:href="#Arial-BoldMT-72" x="160.742188"/>
     <use xlink:href="#Arial-BoldMT-69" x="199.658203"/>
     <use xlink:href="#Arial-BoldMT-6e" x="227.441406"/>
     <use xlink:href="#Arial-BoldMT-67" x="288.525391"/>
     <use xlink:href="#Arial-BoldMT-20" x="349.609375"/>
     <use xlink:href="#Arial-BoldMT-52" x="377.392578"/>
     <use xlink:href="#Arial-BoldMT-61" x="449.609375"/>
     <use xlink:href="#Arial-BoldMT-74" x="505.224609"/>
     <use xlink:href="#Arial-BoldMT-65" x="538.525391"/>
     <use xlink:href="#Arial-BoldMT-20" x="594.140625"/>
     <use xlink:href="#Arial-BoldMT-28" x="621.923828"/>
     <use xlink:href="#Arial-BoldMT-73" x="655.224609"/>
     <use xlink:href="#Arial-BoldMT-70" x="710.839844"/>
     <use xlink:href="#Arial-BoldMT-69" x="771.923828"/>
     <use xlink:href="#Arial-BoldMT-6b" x="799.707031"/>
     <use xlink:href="#Arial-BoldMT-65" x="855.322266"/>
     <use xlink:href="#Arial-BoldMT-73" x="910.9375"/>
     <use xlink:href="#Arial-BoldMT-2f" x="966.552734"/>
     <use xlink:href="#Arial-BoldMT-73" x="994.335938"/>
     <use xlink:href="#Arial-BoldMT-29" x="1049.951172"/>
    </g>
   </g>
   <g id="text_31">
    <!-- Fano Factor -->
    <g transform="translate(633.935511 25.399219) scale(0.25 -0.25)">
     <defs>
      <path id="Arial-BoldMT-6f" d="M 256 1706 
Q 256 2144 472 2553 
Q 688 2963 1083 3178 
Q 1478 3394 1966 3394 
Q 2719 3394 3200 2905 
Q 3681 2416 3681 1669 
Q 3681 916 3195 420 
Q 2709 -75 1972 -75 
Q 1516 -75 1102 131 
Q 688 338 472 736 
Q 256 1134 256 1706 
z
M 1156 1659 
Q 1156 1166 1390 903 
Q 1625 641 1969 641 
Q 2313 641 2545 903 
Q 2778 1166 2778 1666 
Q 2778 2153 2545 2415 
Q 2313 2678 1969 2678 
Q 1625 2678 1390 2415 
Q 1156 2153 1156 1659 
z
" transform="scale(0.015625)"/>
      <path id="Arial-BoldMT-63" d="M 3353 2338 
L 2488 2181 
Q 2444 2441 2289 2572 
Q 2134 2703 1888 2703 
Q 1559 2703 1364 2476 
Q 1169 2250 1169 1719 
Q 1169 1128 1367 884 
Q 1566 641 1900 641 
Q 2150 641 2309 783 
Q 2469 925 2534 1272 
L 3397 1125 
Q 3263 531 2881 228 
Q 2500 -75 1859 -75 
Q 1131 -75 698 384 
Q 266 844 266 1656 
Q 266 2478 700 2936 
Q 1134 3394 1875 3394 
Q 2481 3394 2839 3133 
Q 3197 2872 3353 2338 
z
" transform="scale(0.015625)"/>
     </defs>
     <use xlink:href="#Arial-BoldMT-46"/>
     <use xlink:href="#Arial-BoldMT-61" x="61.083984"/>
     <use xlink:href="#Arial-BoldMT-6e" x="116.699219"/>
     <use xlink:href="#Arial-BoldMT-6f" x="177.783203"/>
     <use xlink:href="#Arial-BoldMT-20" x="238.867188"/>
     <use xlink:href="#Arial-BoldMT-46" x="266.650391"/>
     <use xlink:href="#Arial-BoldMT-61" x="327.734375"/>
     <use xlink:href="#Arial-BoldMT-63" x="383.349609"/>
     <use xlink:href="#Arial-BoldMT-74" x="438.964844"/>
     <use xlink:href="#Arial-BoldMT-6f" x="472.265625"/>
     <use xlink:href="#Arial-BoldMT-72" x="533.349609"/>
    </g>
   </g>
   <g id="legend_1">
    <g id="line2d_54">
     <path d="M 682.208239 432.14246 
L 699.208239 432.14246 
L 716.208239 432.14246 
" style="fill: none; stroke: #2c7fb8; stroke-width: 2; stroke-linecap: square"/>
    </g>
    <g id="text_32">
     <!-- Old mice -->
     <g transform="translate(729.808239 438.09246) scale(0.17 -0.17)">
      <defs>
       <path id="DejaVuSans-4f" d="M 2522 4238 
Q 1834 4238 1429 3725 
Q 1025 3213 1025 2328 
Q 1025 1447 1429 934 
Q 1834 422 2522 422 
Q 3209 422 3611 934 
Q 4013 1447 4013 2328 
Q 4013 3213 3611 3725 
Q 3209 4238 2522 4238 
z
M 2522 4750 
Q 3503 4750 4090 4092 
Q 4678 3434 4678 2328 
Q 4678 1225 4090 567 
Q 3503 -91 2522 -91 
Q 1538 -91 948 565 
Q 359 1222 359 2328 
Q 359 3434 948 4092 
Q 1538 4750 2522 4750 
z
" transform="scale(0.015625)"/>
       <path id="DejaVuSans-6c" d="M 603 4863 
L 1178 4863 
L 1178 0 
L 603 0 
L 603 4863 
z
" transform="scale(0.015625)"/>
       <path id="DejaVuSans-64" d="M 2906 2969 
L 2906 4863 
L 3481 4863 
L 3481 0 
L 2906 0 
L 2906 525 
Q 2725 213 2448 61 
Q 2172 -91 1784 -91 
Q 1150 -91 751 415 
Q 353 922 353 1747 
Q 353 2572 751 3078 
Q 1150 3584 1784 3584 
Q 2172 3584 2448 3432 
Q 2725 3281 2906 2969 
z
M 947 1747 
Q 947 1113 1208 752 
Q 1469 391 1925 391 
Q 2381 391 2643 752 
Q 2906 1113 2906 1747 
Q 2906 2381 2643 2742 
Q 2381 3103 1925 3103 
Q 1469 3103 1208 2742 
Q 947 2381 947 1747 
z
" transform="scale(0.015625)"/>
       <path id="DejaVuSans-20" transform="scale(0.015625)"/>
       <path id="DejaVuSans-6d" d="M 3328 2828 
Q 3544 3216 3844 3400 
Q 4144 3584 4550 3584 
Q 5097 3584 5394 3201 
Q 5691 2819 5691 2113 
L 5691 0 
L 5113 0 
L 5113 2094 
Q 5113 2597 4934 2840 
Q 4756 3084 4391 3084 
Q 3944 3084 3684 2787 
Q 3425 2491 3425 1978 
L 3425 0 
L 2847 0 
L 2847 2094 
Q 2847 2600 2669 2842 
Q 2491 3084 2119 3084 
Q 1678 3084 1418 2786 
Q 1159 2488 1159 1978 
L 1159 0 
L 581 0 
L 581 3500 
L 1159 3500 
L 1159 2956 
Q 1356 3278 1631 3431 
Q 1906 3584 2284 3584 
Q 2666 3584 2933 3390 
Q 3200 3197 3328 2828 
z
" transform="scale(0.015625)"/>
       <path id="DejaVuSans-69" d="M 603 3500 
L 1178 3500 
L 1178 0 
L 603 0 
L 603 3500 
z
M 603 4863 
L 1178 4863 
L 1178 4134 
L 603 4134 
L 603 4863 
z
" transform="scale(0.015625)"/>
       <path id="DejaVuSans-63" d="M 3122 3366 
L 3122 2828 
Q 2878 2963 2633 3030 
Q 2388 3097 2138 3097 
Q 1578 3097 1268 2742 
Q 959 2388 959 1747 
Q 959 1106 1268 751 
Q 1578 397 2138 397 
Q 2388 397 2633 464 
Q 2878 531 3122 666 
L 3122 134 
Q 2881 22 2623 -34 
Q 2366 -91 2075 -91 
Q 1284 -91 818 406 
Q 353 903 353 1747 
Q 353 2603 823 3093 
Q 1294 3584 2113 3584 
Q 2378 3584 2631 3529 
Q 2884 3475 3122 3366 
z
" transform="scale(0.015625)"/>
       <path id="DejaVuSans-65" d="M 3597 1894 
L 3597 1613 
L 953 1613 
Q 991 1019 1311 708 
Q 1631 397 2203 397 
Q 2534 397 2845 478 
Q 3156 559 3463 722 
L 3463 178 
Q 3153 47 2828 -22 
Q 2503 -91 2169 -91 
Q 1331 -91 842 396 
Q 353 884 353 1716 
Q 353 2575 817 3079 
Q 1281 3584 2069 3584 
Q 2775 3584 3186 3129 
Q 3597 2675 3597 1894 
z
M 3022 2063 
Q 3016 2534 2758 2815 
Q 2500 3097 2075 3097 
Q 1594 3097 1305 2825 
Q 1016 2553 972 2059 
L 3022 2063 
z
" transform="scale(0.015625)"/>
      </defs>
      <use xlink:href="#DejaVuSans-4f"/>
      <use xlink:href="#DejaVuSans-6c" x="78.710938"/>
      <use xlink:href="#DejaVuSans-64" x="106.494141"/>
      <use xlink:href="#DejaVuSans-20" x="169.970703"/>
      <use xlink:href="#DejaVuSans-6d" x="201.757812"/>
      <use xlink:href="#DejaVuSans-69" x="299.169922"/>
      <use xlink:href="#DejaVuSans-63" x="326.953125"/>
      <use xlink:href="#DejaVuSans-65" x="381.933594"/>
     </g>
    </g>
    <g id="line2d_55">
     <path d="M 682.208239 457.095273 
L 699.208239 457.095273 
L 716.208239 457.095273 
" style="fill: none; stroke: #78c679; stroke-width: 2; stroke-linecap: square"/>
    </g>
    <g id="text_33">
     <!-- Young mice -->
     <g transform="translate(729.808239 463.045273) scale(0.17 -0.17)">
      <defs>
       <path id="DejaVuSans-59" d="M -13 4666 
L 666 4666 
L 1959 2747 
L 3244 4666 
L 3922 4666 
L 2272 2222 
L 2272 0 
L 1638 0 
L 1638 2222 
L -13 4666 
z
" transform="scale(0.015625)"/>
       <path id="DejaVuSans-6f" d="M 1959 3097 
Q 1497 3097 1228 2736 
Q 959 2375 959 1747 
Q 959 1119 1226 758 
Q 1494 397 1959 397 
Q 2419 397 2687 759 
Q 2956 1122 2956 1747 
Q 2956 2369 2687 2733 
Q 2419 3097 1959 3097 
z
M 1959 3584 
Q 2709 3584 3137 3096 
Q 3566 2609 3566 1747 
Q 3566 888 3137 398 
Q 2709 -91 1959 -91 
Q 1206 -91 779 398 
Q 353 888 353 1747 
Q 353 2609 779 3096 
Q 1206 3584 1959 3584 
z
" transform="scale(0.015625)"/>
       <path id="DejaVuSans-75" d="M 544 1381 
L 544 3500 
L 1119 3500 
L 1119 1403 
Q 1119 906 1312 657 
Q 1506 409 1894 409 
Q 2359 409 2629 706 
Q 2900 1003 2900 1516 
L 2900 3500 
L 3475 3500 
L 3475 0 
L 2900 0 
L 2900 538 
Q 2691 219 2414 64 
Q 2138 -91 1772 -91 
Q 1169 -91 856 284 
Q 544 659 544 1381 
z
M 1991 3584 
L 1991 3584 
z
" transform="scale(0.015625)"/>
       <path id="DejaVuSans-6e" d="M 3513 2113 
L 3513 0 
L 2938 0 
L 2938 2094 
Q 2938 2591 2744 2837 
Q 2550 3084 2163 3084 
Q 1697 3084 1428 2787 
Q 1159 2491 1159 1978 
L 1159 0 
L 581 0 
L 581 3500 
L 1159 3500 
L 1159 2956 
Q 1366 3272 1645 3428 
Q 1925 3584 2291 3584 
Q 2894 3584 3203 3211 
Q 3513 2838 3513 2113 
z
" transform="scale(0.015625)"/>
       <path id="DejaVuSans-67" d="M 2906 1791 
Q 2906 2416 2648 2759 
Q 2391 3103 1925 3103 
Q 1463 3103 1205 2759 
Q 947 2416 947 1791 
Q 947 1169 1205 825 
Q 1463 481 1925 481 
Q 2391 481 2648 825 
Q 2906 1169 2906 1791 
z
M 3481 434 
Q 3481 -459 3084 -895 
Q 2688 -1331 1869 -1331 
Q 1566 -1331 1297 -1286 
Q 1028 -1241 775 -1147 
L 775 -588 
Q 1028 -725 1275 -790 
Q 1522 -856 1778 -856 
Q 2344 -856 2625 -561 
Q 2906 -266 2906 331 
L 2906 616 
Q 2728 306 2450 153 
Q 2172 0 1784 0 
Q 1141 0 747 490 
Q 353 981 353 1791 
Q 353 2603 747 3093 
Q 1141 3584 1784 3584 
Q 2172 3584 2450 3431 
Q 2728 3278 2906 2969 
L 2906 3500 
L 3481 3500 
L 3481 434 
z
" transform="scale(0.015625)"/>
      </defs>
      <use xlink:href="#DejaVuSans-59"/>
      <use xlink:href="#DejaVuSans-6f" x="47.833984"/>
      <use xlink:href="#DejaVuSans-75" x="109.015625"/>
      <use xlink:href="#DejaVuSans-6e" x="172.394531"/>
      <use xlink:href="#DejaVuSans-67" x="235.773438"/>
      <use xlink:href="#DejaVuSans-20" x="299.25"/>
      <use xlink:href="#DejaVuSans-6d" x="331.037109"/>
      <use xlink:href="#DejaVuSans-69" x="428.449219"/>
      <use xlink:href="#DejaVuSans-63" x="456.232422"/>
      <use xlink:href="#DejaVuSans-65" x="511.212891"/>
     </g>
    </g>
   </g>
  </g>
  <g id="text_34">
   <!-- Time from stimulus onset (s) -->
   <g transform="translate(284.944922 436.912933) scale(0.25 -0.25)">
    <defs>
     <path id="Arial-BoldMT-54" d="M 1497 0 
L 1497 3806 
L 138 3806 
L 138 4581 
L 3778 4581 
L 3778 3806 
L 2422 3806 
L 2422 0 
L 1497 0 
z
" transform="scale(0.015625)"/>
     <path id="Arial-BoldMT-6d" d="M 394 3319 
L 1203 3319 
L 1203 2866 
Q 1638 3394 2238 3394 
Q 2556 3394 2790 3262 
Q 3025 3131 3175 2866 
Q 3394 3131 3647 3262 
Q 3900 3394 4188 3394 
Q 4553 3394 4806 3245 
Q 5059 3097 5184 2809 
Q 5275 2597 5275 2122 
L 5275 0 
L 4397 0 
L 4397 1897 
Q 4397 2391 4306 2534 
Q 4184 2722 3931 2722 
Q 3747 2722 3584 2609 
Q 3422 2497 3350 2280 
Q 3278 2063 3278 1594 
L 3278 0 
L 2400 0 
L 2400 1819 
Q 2400 2303 2353 2443 
Q 2306 2584 2207 2653 
Q 2109 2722 1941 2722 
Q 1738 2722 1575 2612 
Q 1413 2503 1342 2297 
Q 1272 2091 1272 1613 
L 1272 0 
L 394 0 
L 394 3319 
z
" transform="scale(0.015625)"/>
     <path id="Arial-BoldMT-66" d="M 75 3319 
L 563 3319 
L 563 3569 
Q 563 3988 652 4194 
Q 741 4400 980 4529 
Q 1219 4659 1584 4659 
Q 1959 4659 2319 4547 
L 2200 3934 
Q 1991 3984 1797 3984 
Q 1606 3984 1523 3895 
Q 1441 3806 1441 3553 
L 1441 3319 
L 2097 3319 
L 2097 2628 
L 1441 2628 
L 1441 0 
L 563 0 
L 563 2628 
L 75 2628 
L 75 3319 
z
" transform="scale(0.015625)"/>
     <path id="Arial-BoldMT-75" d="M 2644 0 
L 2644 497 
Q 2463 231 2167 78 
Q 1872 -75 1544 -75 
Q 1209 -75 943 72 
Q 678 219 559 484 
Q 441 750 441 1219 
L 441 3319 
L 1319 3319 
L 1319 1794 
Q 1319 1094 1367 936 
Q 1416 778 1544 686 
Q 1672 594 1869 594 
Q 2094 594 2272 717 
Q 2450 841 2515 1023 
Q 2581 1206 2581 1919 
L 2581 3319 
L 3459 3319 
L 3459 0 
L 2644 0 
z
" transform="scale(0.015625)"/>
     <path id="Arial-BoldMT-6c" d="M 459 0 
L 459 4581 
L 1338 4581 
L 1338 0 
L 459 0 
z
" transform="scale(0.015625)"/>
    </defs>
    <use xlink:href="#Arial-BoldMT-54"/>
    <use xlink:href="#Arial-BoldMT-69" x="59.333984"/>
    <use xlink:href="#Arial-BoldMT-6d" x="87.117188"/>
    <use xlink:href="#Arial-BoldMT-65" x="176.033203"/>
    <use xlink:href="#Arial-BoldMT-20" x="231.648438"/>
    <use xlink:href="#Arial-BoldMT-66" x="259.431641"/>
    <use xlink:href="#Arial-BoldMT-72" x="292.732422"/>
    <use xlink:href="#Arial-BoldMT-6f" x="331.648438"/>
    <use xlink:href="#Arial-BoldMT-6d" x="392.732422"/>
    <use xlink:href="#Arial-BoldMT-20" x="481.648438"/>
    <use xlink:href="#Arial-BoldMT-73" x="509.431641"/>
    <use xlink:href="#Arial-BoldMT-74" x="565.046875"/>
    <use xlink:href="#Arial-BoldMT-69" x="598.347656"/>
    <use xlink:href="#Arial-BoldMT-6d" x="626.130859"/>
    <use xlink:href="#Arial-BoldMT-75" x="715.046875"/>
    <use xlink:href="#Arial-BoldMT-6c" x="776.130859"/>
    <use xlink:href="#Arial-BoldMT-75" x="803.914062"/>
    <use xlink:href="#Arial-BoldMT-73" x="864.998047"/>
    <use xlink:href="#Arial-BoldMT-20" x="920.613281"/>
    <use xlink:href="#Arial-BoldMT-6f" x="948.396484"/>
    <use xlink:href="#Arial-BoldMT-6e" x="1009.480469"/>
    <use xlink:href="#Arial-BoldMT-73" x="1070.564453"/>
    <use xlink:href="#Arial-BoldMT-65" x="1126.179688"/>
    <use xlink:href="#Arial-BoldMT-74" x="1181.794922"/>
    <use xlink:href="#Arial-BoldMT-20" x="1215.095703"/>
    <use xlink:href="#Arial-BoldMT-28" x="1242.878906"/>
    <use xlink:href="#Arial-BoldMT-73" x="1276.179688"/>
    <use xlink:href="#Arial-BoldMT-29" x="1331.794922"/>
   </g>
  </g>
 </g>
 <defs>
  <clipPath id="p9bbff975fa">
   <rect x="50.571875" y="53.374652" width="380.454545" height="151.702326"/>
  </clipPath>
  <clipPath id="p5938fc0e6f">
   <rect x="507.11733" y="53.374652" width="380.454545" height="151.702326"/>
  </clipPath>
  <clipPath id="pd71074c47e">
   <rect x="50.571875" y="227.832326" width="380.454545" height="151.702326"/>
  </clipPath>
  <clipPath id="p3c7785a175">
   <rect x="507.11733" y="227.832326" width="380.454545" height="151.702326"/>
  </clipPath>
 </defs>
</svg>
